G04*
G04 #@! TF.GenerationSoftware,Altium Limited,Altium Designer,23.1.1 (15)*
G04*
G04 Layer_Color=8388736*
%FSLAX24Y24*%
%MOIN*%
G70*
G04*
G04 #@! TF.SameCoordinates,52EA1FD8-E69D-4759-9217-C2292DA48D7E*
G04*
G04*
G04 #@! TF.FilePolarity,Positive*
G04*
G01*
G75*
%ADD11C,0.0100*%
D11*
X35236Y7972D02*
Y8169D01*
Y7972D02*
Y8169D01*
Y7972D02*
X35433D01*
X35236Y7776D02*
Y7972D01*
X35039D02*
X35236D01*
X25689Y17520D02*
Y17717D01*
X25886D01*
X25689D02*
Y17913D01*
X25492Y17717D02*
X25689D01*
X25492D02*
X25689D01*
X18031Y12037D02*
X18228D01*
Y11841D02*
Y12037D01*
X18425D01*
X18228D02*
Y12234D01*
Y12037D02*
Y12234D01*
X18200Y6600D02*
X18397D01*
X18200D02*
Y6797D01*
X18003Y6600D02*
X18200D01*
Y6403D02*
Y6600D01*
Y6403D02*
Y6600D01*
X17441Y20453D02*
X17638D01*
X17441D02*
X17638D01*
X17441Y20256D02*
Y20453D01*
X17244D02*
X17441D01*
Y20650D01*
X25689Y14272D02*
Y14468D01*
X25492Y14272D02*
X25689D01*
Y14075D02*
Y14272D01*
X25886D01*
X25689D02*
X25886D01*
X26775Y15354D02*
X26972D01*
Y15157D02*
Y15354D01*
X27169D01*
X26972D02*
Y15551D01*
Y15354D02*
Y15551D01*
X26958Y18723D02*
X27155D01*
X26958D02*
Y18920D01*
X26761Y18723D02*
X26958D01*
Y18527D02*
Y18723D01*
Y18527D02*
Y18723D01*
X18200Y16555D02*
Y16752D01*
Y16555D02*
Y16752D01*
X18003D02*
X18200D01*
Y16949D01*
Y16752D02*
X18397D01*
X20472Y21949D02*
Y22146D01*
Y21949D02*
Y22146D01*
X20276D02*
X20472D01*
Y22343D01*
Y22146D02*
X20669D01*
X14823Y13878D02*
X15020D01*
X14823D02*
Y14075D01*
X14626Y13878D02*
X14823D01*
Y13681D02*
Y13878D01*
Y13681D02*
Y13878D01*
X15000Y13000D02*
X15197D01*
X15000D02*
Y13197D01*
X14803Y13000D02*
X15000D01*
Y12803D02*
Y13000D01*
Y12803D02*
Y13000D01*
Y11400D02*
X15197D01*
X15000D02*
Y11597D01*
X14803Y11400D02*
X15000D01*
Y11203D02*
Y11400D01*
Y11203D02*
Y11400D01*
Y10650D02*
X15197D01*
X15000D02*
Y10847D01*
X14803Y10650D02*
X15000D01*
Y10453D02*
Y10650D01*
Y10453D02*
Y10650D01*
X23917Y16929D02*
X24114D01*
Y16732D02*
Y16929D01*
X24311D01*
X24114D02*
Y17126D01*
Y16929D02*
Y17126D01*
Y13517D02*
Y13714D01*
Y13517D02*
Y13714D01*
Y13517D02*
X24311D01*
X24114Y13320D02*
Y13517D01*
X23917D02*
X24114D01*
X23917Y10105D02*
X24114D01*
Y9908D02*
Y10105D01*
X24311D01*
X24114D02*
Y10302D01*
Y10105D02*
Y10302D01*
Y6693D02*
Y6890D01*
Y6693D02*
Y6890D01*
Y6693D02*
X24311D01*
X24114Y6496D02*
Y6693D01*
X23917D02*
X24114D01*
X18583Y9350D02*
X18780D01*
Y9154D02*
Y9350D01*
X18976D01*
X18780D02*
Y9547D01*
Y9350D02*
Y9547D01*
X13600Y14200D02*
Y14397D01*
X13403Y14200D02*
X13600D01*
Y14003D02*
Y14200D01*
X13797D01*
X13600D02*
X13797D01*
X13403Y11400D02*
X13600D01*
Y11203D02*
Y11400D01*
X13797D01*
X13600D02*
Y11597D01*
Y11400D02*
Y11597D01*
X13800Y12600D02*
Y12797D01*
X13603Y12600D02*
X13800D01*
Y12403D02*
Y12600D01*
X13997D01*
X13800D02*
X13997D01*
X13000Y12403D02*
Y12600D01*
X13197D01*
X13000D02*
Y12797D01*
X12803Y12600D02*
X13000D01*
X12803D02*
X13000D01*
X12900Y17400D02*
Y17597D01*
X12703Y17400D02*
X12900D01*
Y17203D02*
Y17400D01*
X13097D01*
X12900D02*
X13097D01*
X14895Y9800D02*
X15092D01*
X14895D02*
Y9997D01*
X14698Y9800D02*
X14895D01*
Y9603D02*
Y9800D01*
Y9603D02*
Y9800D01*
X27264Y17717D02*
Y17913D01*
X27067Y17717D02*
X27264D01*
Y17520D02*
Y17717D01*
X27461D01*
X27264D02*
X27461D01*
X27264Y14075D02*
Y14272D01*
X27461D01*
X27264D02*
Y14468D01*
X27067Y14272D02*
X27264D01*
X27067D02*
X27264D01*
X28150Y15984D02*
Y16181D01*
X28346D01*
X28150D02*
Y16378D01*
X27953Y16181D02*
X28150D01*
X27953D02*
X28150D01*
X27264Y10925D02*
Y11122D01*
X27067Y10925D02*
X27264D01*
Y10728D02*
Y10925D01*
X27461D01*
X27264D02*
X27461D01*
X27264Y7283D02*
Y7480D01*
X27461D01*
X27264D02*
Y7677D01*
X27067Y7480D02*
X27264D01*
X27067D02*
X27264D01*
X28248Y9154D02*
Y9350D01*
X28445D01*
X28248D02*
Y9547D01*
X28051Y9350D02*
X28248D01*
X28051D02*
X28248D01*
X6496Y17815D02*
X6693D01*
X6496D02*
Y18012D01*
X6299Y17815D02*
X6496D01*
Y17618D02*
Y17815D01*
Y17618D02*
Y17815D01*
Y7972D02*
X6693D01*
X6496D02*
Y8169D01*
X6299Y7972D02*
X6496D01*
Y7776D02*
Y7972D01*
Y7776D02*
Y7972D01*
X35043Y17820D02*
X35240D01*
Y17623D02*
Y17820D01*
X35437D01*
X35240D02*
Y18017D01*
Y17820D02*
Y18017D01*
X20079Y9154D02*
Y9350D01*
Y9154D02*
Y9350D01*
X19882D02*
X20079D01*
Y9547D01*
Y9350D02*
X20276D01*
X20079Y8406D02*
Y8602D01*
Y8406D02*
Y8602D01*
X19882D02*
X20079D01*
Y8799D01*
Y8602D02*
X20276D01*
X18780D02*
Y8799D01*
Y8602D02*
Y8799D01*
Y8602D02*
X18976D01*
X18780Y8406D02*
Y8602D01*
X18583D02*
X18780D01*
X18681Y14744D02*
Y14941D01*
Y14744D02*
Y14941D01*
Y14744D02*
X18878D01*
X18681Y14547D02*
Y14744D01*
X18484D02*
X18681D01*
X19980Y14547D02*
Y14744D01*
Y14547D02*
Y14744D01*
X19783D02*
X19980D01*
Y14941D01*
Y14744D02*
X20177D01*
X17200Y9400D02*
Y9597D01*
Y9400D02*
Y9597D01*
Y9400D02*
X17397D01*
X17200Y9203D02*
Y9400D01*
X17003D02*
X17200D01*
X15095Y12003D02*
Y12200D01*
Y12003D02*
Y12200D01*
X14898D02*
X15095D01*
Y12397D01*
Y12200D02*
X15292D01*
X21358Y14272D02*
X21555D01*
X21358D02*
X21555D01*
Y14468D01*
Y14272D02*
X21752D01*
X21555Y14075D02*
Y14272D01*
X26280Y17717D02*
X26476D01*
X26280D02*
X26476D01*
Y17913D01*
Y17717D02*
X26673D01*
X26476Y17520D02*
Y17717D01*
X21555Y12697D02*
X21752D01*
X21555D02*
X21752D01*
X21555Y12500D02*
Y12697D01*
X21358D02*
X21555D01*
Y12894D01*
X26476Y14272D02*
X26673D01*
X26476D02*
X26673D01*
X26476Y14075D02*
Y14272D01*
X26280D02*
X26476D01*
Y14468D01*
X21358Y11122D02*
X21555D01*
X21358D02*
X21555D01*
Y11319D01*
Y11122D02*
X21752D01*
X21555Y10925D02*
Y11122D01*
X25492Y10925D02*
X25689D01*
X25492D02*
X25689D01*
Y11122D01*
Y10925D02*
X25886D01*
X25689Y10728D02*
Y10925D01*
X26280D02*
X26476D01*
X26280D02*
X26476D01*
Y11122D01*
Y10925D02*
X26673D01*
X26476Y10728D02*
Y10925D01*
X26950Y11703D02*
Y11900D01*
Y11703D02*
Y11900D01*
X26753D02*
X26950D01*
Y12097D01*
Y11900D02*
X27147D01*
X21555Y9547D02*
X21752D01*
X21555D02*
X21752D01*
X21555Y9350D02*
Y9547D01*
X21358D02*
X21555D01*
Y9744D01*
X25689Y7480D02*
X25886D01*
X25689D02*
X25886D01*
X25689Y7283D02*
Y7480D01*
X25492D02*
X25689D01*
Y7677D01*
X26476Y7480D02*
X26673D01*
X26476D02*
X26673D01*
X26476Y7283D02*
Y7480D01*
X26280D02*
X26476D01*
Y7677D01*
X26977Y8501D02*
Y8698D01*
Y8501D02*
Y8698D01*
Y8501D02*
X27174D01*
X26977Y8304D02*
Y8501D01*
X26781D02*
X26977D01*
M02*
