M48
;Layer_Color=9474304
;FILE_FORMAT=2:3
INCH,LZ
;TYPE=PLATED
T1F00S00C0.010
T3F00S00C0.055
T4F00S00C0.126
%
T01
X0043Y0009
X0057
X00705
X00835
X00965Y00095
X0109
X0123
X01365
X015
X0155Y00425
X0141
X01405Y00565
X014Y00705
X01395Y00845
X01255Y0085
Y0071
Y0057
Y00425
X01115
X01085Y0094
X0089Y00935
Y00755
Y01285
X01085
X0118Y01185
Y0105
X0128Y0114
X01412Y01064
X0141Y00978
X01505Y00895
X015Y0076
X0155Y0067
X01432Y01222
X014Y0134
X01301Y0136
X01362Y01503
X0125Y01545
X01115
X0014Y0149
X00145Y0133
X00295Y01325
X003Y01015
X00145Y0101
X0014Y0085
X0029Y00845
X00285Y0069
X0014
X00145Y0052
X0158Y00575
X01625Y00755
X016Y00875
X0162Y0094
X0168Y0086
X0178Y0084
Y0088
X01735Y01045
Y0108
X0176Y0114
X018
X0184
X0188
X01879Y01181
X01839
X01799
X018Y0122
X0176
X01759Y01181
X0176Y0126
X018
X0184
X0188
X0184Y0142
X0167Y0144
X02075Y01472
X0204Y00987
X02038Y00805
X0208Y0075
Y00625
Y0049
X02215
X0221Y0062
Y0075
X02215Y0035
Y00215
X02085Y00225
Y00355
X0203Y00095
X019
X01765
X01625
X0169Y00425
X0249Y0049
X02705Y00445
X03005Y0041
X02985Y0021
X0259Y00835
Y0087
X0255Y00855
X0256Y0119
X02595Y01175
Y0121
X02605Y01515
X02605Y01543
X02575Y0153
X03385Y01355
X03543Y01358
X03715Y01345
X0408Y0131
X04075Y01175
X04065Y0102
X0409Y0088
X04085Y00755
X04075Y0065
X0411Y0051
X0351Y0054
X03485Y00175
X03275Y0023
X03645Y0028
X04035Y01625
X0405Y01825
X04055Y01995
X04025Y02175
X03625Y02495
X03505Y02385
X03305Y02485
X03125Y023
X02995Y02475
X02705Y02455
X0283Y0225
X02875Y0208
X0261Y0213
X0258Y019
X026Y0187
X02555
X0246Y01945
X0237Y0252
X0207Y02515
X017
Y022
X0174
X0178
X0164Y0172
Y0168
Y0164
X0155Y0177
Y019
X0141Y01905
X01405Y02055
X01415Y02185
X0156Y02195
Y0205
X01335Y0251
X00955Y02505
X0088Y0237
Y02265
X0075
Y0237
X0063
Y0226
X00505
X005Y02365
X00285Y02015
Y0188
Y0175
Y01635
X0014Y0163
X00145Y0176
Y0189
X0015Y0201
X00155Y02115
X0089Y0163
X01085Y01635
T03
X004Y00478
X009
Y01117
Y01462
X004
Y01117
X03274
X03274Y01463
X03774
X03774Y01117
Y00478
X03274
X03274Y02101
X03774
X009Y02101
X004
T04
X00197Y00197
X03976
Y02362
X00197
M30
