G04*
G04 #@! TF.GenerationSoftware,Altium Limited,Altium Designer,23.1.1 (15)*
G04*
G04 Layer_Physical_Order=1*
G04 Layer_Color=255*
%FSLAX24Y24*%
%MOIN*%
G70*
G04*
G04 #@! TF.SameCoordinates,52EA1FD8-E69D-4759-9217-C2292DA48D7E*
G04*
G04*
G04 #@! TF.FilePolarity,Positive*
G04*
G01*
G75*
%ADD11C,0.0100*%
G04:AMPARAMS|DCode=17|XSize=31.5mil|YSize=39.4mil|CornerRadius=3.9mil|HoleSize=0mil|Usage=FLASHONLY|Rotation=90.000|XOffset=0mil|YOffset=0mil|HoleType=Round|Shape=RoundedRectangle|*
%AMROUNDEDRECTD17*
21,1,0.0315,0.0315,0,0,90.0*
21,1,0.0236,0.0394,0,0,90.0*
1,1,0.0079,0.0157,0.0118*
1,1,0.0079,0.0157,-0.0118*
1,1,0.0079,-0.0157,-0.0118*
1,1,0.0079,-0.0157,0.0118*
%
%ADD17ROUNDEDRECTD17*%
G04:AMPARAMS|DCode=18|XSize=27.6mil|YSize=11.8mil|CornerRadius=0.3mil|HoleSize=0mil|Usage=FLASHONLY|Rotation=180.000|XOffset=0mil|YOffset=0mil|HoleType=Round|Shape=RoundedRectangle|*
%AMROUNDEDRECTD18*
21,1,0.0276,0.0112,0,0,180.0*
21,1,0.0270,0.0118,0,0,180.0*
1,1,0.0006,-0.0135,0.0056*
1,1,0.0006,0.0135,0.0056*
1,1,0.0006,0.0135,-0.0056*
1,1,0.0006,-0.0135,-0.0056*
%
%ADD18ROUNDEDRECTD18*%
G04:AMPARAMS|DCode=19|XSize=161.8mil|YSize=171.7mil|CornerRadius=4mil|HoleSize=0mil|Usage=FLASHONLY|Rotation=180.000|XOffset=0mil|YOffset=0mil|HoleType=Round|Shape=RoundedRectangle|*
%AMROUNDEDRECTD19*
21,1,0.1618,0.1636,0,0,180.0*
21,1,0.1537,0.1717,0,0,180.0*
1,1,0.0081,-0.0769,0.0818*
1,1,0.0081,0.0769,0.0818*
1,1,0.0081,0.0769,-0.0818*
1,1,0.0081,-0.0769,-0.0818*
%
%ADD19ROUNDEDRECTD19*%
G04:AMPARAMS|DCode=20|XSize=17.7mil|YSize=55.1mil|CornerRadius=2.2mil|HoleSize=0mil|Usage=FLASHONLY|Rotation=90.000|XOffset=0mil|YOffset=0mil|HoleType=Round|Shape=RoundedRectangle|*
%AMROUNDEDRECTD20*
21,1,0.0177,0.0507,0,0,90.0*
21,1,0.0133,0.0551,0,0,90.0*
1,1,0.0044,0.0253,0.0066*
1,1,0.0044,0.0253,-0.0066*
1,1,0.0044,-0.0253,-0.0066*
1,1,0.0044,-0.0253,0.0066*
%
%ADD20ROUNDEDRECTD20*%
G04:AMPARAMS|DCode=21|XSize=63mil|YSize=137.8mil|CornerRadius=7.9mil|HoleSize=0mil|Usage=FLASHONLY|Rotation=270.000|XOffset=0mil|YOffset=0mil|HoleType=Round|Shape=RoundedRectangle|*
%AMROUNDEDRECTD21*
21,1,0.0630,0.1220,0,0,270.0*
21,1,0.0472,0.1378,0,0,270.0*
1,1,0.0157,-0.0610,-0.0236*
1,1,0.0157,-0.0610,0.0236*
1,1,0.0157,0.0610,0.0236*
1,1,0.0157,0.0610,-0.0236*
%
%ADD21ROUNDEDRECTD21*%
G04:AMPARAMS|DCode=22|XSize=50mil|YSize=82.7mil|CornerRadius=6.3mil|HoleSize=0mil|Usage=FLASHONLY|Rotation=270.000|XOffset=0mil|YOffset=0mil|HoleType=Round|Shape=RoundedRectangle|*
%AMROUNDEDRECTD22*
21,1,0.0500,0.0702,0,0,270.0*
21,1,0.0375,0.0827,0,0,270.0*
1,1,0.0125,-0.0351,-0.0188*
1,1,0.0125,-0.0351,0.0188*
1,1,0.0125,0.0351,0.0188*
1,1,0.0125,0.0351,-0.0188*
%
%ADD22ROUNDEDRECTD22*%
G04:AMPARAMS|DCode=23|XSize=31.5mil|YSize=39.4mil|CornerRadius=3.9mil|HoleSize=0mil|Usage=FLASHONLY|Rotation=0.000|XOffset=0mil|YOffset=0mil|HoleType=Round|Shape=RoundedRectangle|*
%AMROUNDEDRECTD23*
21,1,0.0315,0.0315,0,0,0.0*
21,1,0.0236,0.0394,0,0,0.0*
1,1,0.0079,0.0118,-0.0157*
1,1,0.0079,-0.0118,-0.0157*
1,1,0.0079,-0.0118,0.0157*
1,1,0.0079,0.0118,0.0157*
%
%ADD23ROUNDEDRECTD23*%
G04:AMPARAMS|DCode=24|XSize=43.3mil|YSize=39.4mil|CornerRadius=4.9mil|HoleSize=0mil|Usage=FLASHONLY|Rotation=0.000|XOffset=0mil|YOffset=0mil|HoleType=Round|Shape=RoundedRectangle|*
%AMROUNDEDRECTD24*
21,1,0.0433,0.0295,0,0,0.0*
21,1,0.0335,0.0394,0,0,0.0*
1,1,0.0098,0.0167,-0.0148*
1,1,0.0098,-0.0167,-0.0148*
1,1,0.0098,-0.0167,0.0148*
1,1,0.0098,0.0167,0.0148*
%
%ADD24ROUNDEDRECTD24*%
G04:AMPARAMS|DCode=25|XSize=51.2mil|YSize=133.9mil|CornerRadius=2.6mil|HoleSize=0mil|Usage=FLASHONLY|Rotation=0.000|XOffset=0mil|YOffset=0mil|HoleType=Round|Shape=RoundedRectangle|*
%AMROUNDEDRECTD25*
21,1,0.0512,0.1287,0,0,0.0*
21,1,0.0461,0.1339,0,0,0.0*
1,1,0.0051,0.0230,-0.0644*
1,1,0.0051,-0.0230,-0.0644*
1,1,0.0051,-0.0230,0.0644*
1,1,0.0051,0.0230,0.0644*
%
%ADD25ROUNDEDRECTD25*%
%ADD40C,0.0164*%
%ADD41C,0.0394*%
%ADD42C,0.0300*%
%ADD43C,0.0350*%
%ADD44C,0.0984*%
%ADD45C,0.2362*%
%ADD46O,0.0787X0.1654*%
%ADD47O,0.1654X0.0787*%
%ADD48C,0.0200*%
G36*
X41500Y24300D02*
Y1200D01*
X40550Y250D01*
X1350D01*
X250Y1350D01*
Y24050D01*
X300D01*
X1610Y25360D01*
X40440D01*
X41500Y24300D01*
D02*
G37*
%LPC*%
G36*
X26000Y23297D02*
X25971Y23296D01*
X25942Y23291D01*
X25914Y23284D01*
X25886Y23275D01*
X25860Y23262D01*
X25835Y23247D01*
X25811Y23230D01*
X25790Y23210D01*
X25770Y23189D01*
X25753Y23165D01*
X25738Y23140D01*
X25725Y23114D01*
X25716Y23086D01*
X25708Y23058D01*
X25704Y23029D01*
X25703Y23000D01*
X25704Y22971D01*
X25708Y22942D01*
X25716Y22914D01*
X25725Y22886D01*
X25738Y22860D01*
X25753Y22835D01*
X25770Y22811D01*
X25790Y22790D01*
X25811Y22770D01*
X25835Y22753D01*
X25860Y22738D01*
X25886Y22725D01*
X25914Y22716D01*
X25942Y22708D01*
X25971Y22704D01*
X26000Y22703D01*
X26029Y22704D01*
X26058Y22708D01*
X26086Y22716D01*
X26114Y22725D01*
X26140Y22738D01*
X26165Y22753D01*
X26189Y22770D01*
X26210Y22790D01*
X26230Y22811D01*
X26247Y22835D01*
X26262Y22860D01*
X26275Y22886D01*
X26284Y22914D01*
X26291Y22942D01*
X26296Y22971D01*
X26297Y23000D01*
X26296Y23029D01*
X26291Y23058D01*
X26284Y23086D01*
X26275Y23114D01*
X26262Y23140D01*
X26247Y23165D01*
X26230Y23189D01*
X26210Y23210D01*
X26189Y23230D01*
X26165Y23247D01*
X26140Y23262D01*
X26114Y23275D01*
X26086Y23284D01*
X26058Y23291D01*
X26029Y23296D01*
X26000Y23297D01*
D02*
G37*
G36*
X39764Y24904D02*
X39701Y24902D01*
X39638Y24897D01*
X39576Y24890D01*
X39514Y24879D01*
X39452Y24865D01*
X39392Y24848D01*
X39332Y24829D01*
X39273Y24806D01*
X39216Y24780D01*
X39160Y24752D01*
X39105Y24721D01*
X39052Y24688D01*
X39000Y24651D01*
X38951Y24613D01*
X38903Y24572D01*
X38858Y24528D01*
X38814Y24483D01*
X38773Y24435D01*
X38734Y24385D01*
X38698Y24334D01*
X38665Y24281D01*
X38634Y24226D01*
X38605Y24170D01*
X38580Y24112D01*
X38557Y24054D01*
X38537Y23994D01*
X38521Y23933D01*
X38507Y23872D01*
X38496Y23810D01*
X38488Y23748D01*
X38484Y23685D01*
X38482Y23622D01*
X38484Y23559D01*
X38488Y23496D01*
X38496Y23434D01*
X38507Y23372D01*
X38521Y23311D01*
X38537Y23250D01*
X38557Y23190D01*
X38580Y23132D01*
X38605Y23074D01*
X38634Y23018D01*
X38665Y22963D01*
X38698Y22910D01*
X38734Y22859D01*
X38773Y22809D01*
X38814Y22761D01*
X38858Y22716D01*
X38903Y22673D01*
X38951Y22631D01*
X39000Y22593D01*
X39052Y22557D01*
X39105Y22523D01*
X39160Y22492D01*
X39216Y22464D01*
X39273Y22438D01*
X39332Y22415D01*
X39392Y22396D01*
X39452Y22379D01*
X39514Y22365D01*
X39576Y22354D01*
X39638Y22347D01*
X39701Y22342D01*
X39764Y22341D01*
X39827Y22342D01*
X39889Y22347D01*
X39952Y22354D01*
X40014Y22365D01*
X40075Y22379D01*
X40136Y22396D01*
X40195Y22415D01*
X40254Y22438D01*
X40312Y22464D01*
X40368Y22492D01*
X40423Y22523D01*
X40476Y22557D01*
X40527Y22593D01*
X40577Y22631D01*
X40624Y22673D01*
X40670Y22716D01*
X40713Y22761D01*
X40754Y22809D01*
X40793Y22859D01*
X40829Y22910D01*
X40863Y22963D01*
X40894Y23018D01*
X40922Y23074D01*
X40948Y23132D01*
X40970Y23190D01*
X40990Y23250D01*
X41007Y23311D01*
X41021Y23372D01*
X41031Y23434D01*
X41039Y23496D01*
X41044Y23559D01*
X41045Y23622D01*
X41044Y23685D01*
X41039Y23748D01*
X41031Y23810D01*
X41021Y23872D01*
X41007Y23933D01*
X40990Y23994D01*
X40970Y24054D01*
X40948Y24112D01*
X40922Y24170D01*
X40894Y24226D01*
X40863Y24281D01*
X40829Y24334D01*
X40793Y24385D01*
X40754Y24435D01*
X40713Y24483D01*
X40670Y24528D01*
X40624Y24572D01*
X40577Y24613D01*
X40527Y24651D01*
X40476Y24688D01*
X40423Y24721D01*
X40368Y24752D01*
X40312Y24780D01*
X40254Y24806D01*
X40195Y24829D01*
X40136Y24848D01*
X40075Y24865D01*
X40014Y24879D01*
X39952Y24890D01*
X39889Y24897D01*
X39827Y24902D01*
X39764Y24904D01*
D02*
G37*
G36*
X1969D02*
X1906Y24902D01*
X1843Y24897D01*
X1780Y24890D01*
X1718Y24879D01*
X1657Y24865D01*
X1597Y24848D01*
X1537Y24829D01*
X1478Y24806D01*
X1421Y24780D01*
X1364Y24752D01*
X1310Y24721D01*
X1257Y24688D01*
X1205Y24651D01*
X1156Y24613D01*
X1108Y24572D01*
X1062Y24528D01*
X1019Y24483D01*
X978Y24435D01*
X939Y24385D01*
X903Y24334D01*
X869Y24281D01*
X838Y24226D01*
X810Y24170D01*
X785Y24112D01*
X762Y24054D01*
X742Y23994D01*
X725Y23933D01*
X712Y23872D01*
X701Y23810D01*
X693Y23748D01*
X689Y23685D01*
X687Y23622D01*
X689Y23559D01*
X693Y23496D01*
X701Y23434D01*
X712Y23372D01*
X725Y23311D01*
X742Y23250D01*
X762Y23190D01*
X785Y23132D01*
X810Y23074D01*
X838Y23018D01*
X869Y22963D01*
X903Y22910D01*
X939Y22859D01*
X978Y22809D01*
X1019Y22761D01*
X1062Y22716D01*
X1108Y22673D01*
X1156Y22631D01*
X1205Y22593D01*
X1257Y22557D01*
X1310Y22523D01*
X1364Y22492D01*
X1421Y22464D01*
X1478Y22438D01*
X1537Y22415D01*
X1597Y22396D01*
X1657Y22379D01*
X1718Y22365D01*
X1780Y22354D01*
X1843Y22347D01*
X1906Y22342D01*
X1969Y22341D01*
X2031Y22342D01*
X2094Y22347D01*
X2157Y22354D01*
X2219Y22365D01*
X2280Y22379D01*
X2341Y22396D01*
X2400Y22415D01*
X2459Y22438D01*
X2516Y22464D01*
X2573Y22492D01*
X2627Y22523D01*
X2680Y22557D01*
X2732Y22593D01*
X2781Y22631D01*
X2829Y22673D01*
X2875Y22716D01*
X2918Y22761D01*
X2959Y22809D01*
X2998Y22859D01*
X3034Y22910D01*
X3068Y22963D01*
X3099Y23018D01*
X3127Y23074D01*
X3152Y23132D01*
X3175Y23190D01*
X3195Y23250D01*
X3212Y23311D01*
X3225Y23372D01*
X3236Y23434D01*
X3244Y23496D01*
X3248Y23559D01*
X3250Y23622D01*
X3248Y23685D01*
X3244Y23748D01*
X3236Y23810D01*
X3225Y23872D01*
X3212Y23933D01*
X3195Y23994D01*
X3175Y24054D01*
X3152Y24112D01*
X3127Y24170D01*
X3099Y24226D01*
X3068Y24281D01*
X3034Y24334D01*
X2998Y24385D01*
X2959Y24435D01*
X2918Y24483D01*
X2875Y24528D01*
X2829Y24572D01*
X2781Y24613D01*
X2732Y24651D01*
X2680Y24688D01*
X2627Y24721D01*
X2573Y24752D01*
X2516Y24780D01*
X2459Y24806D01*
X2400Y24829D01*
X2341Y24848D01*
X2280Y24865D01*
X2219Y24879D01*
X2157Y24890D01*
X2094Y24897D01*
X2031Y24902D01*
X1969Y24904D01*
D02*
G37*
G36*
X10500Y24800D02*
X10484Y24799D01*
X10469Y24795D01*
X10454Y24789D01*
X10441Y24781D01*
X10429Y24771D01*
X9979Y24321D01*
X9969Y24309D01*
X9961Y24296D01*
X9955Y24281D01*
X9951Y24266D01*
X9950Y24250D01*
Y21142D01*
X9208Y20400D01*
X5742D01*
X5721Y20421D01*
X5709Y20431D01*
X5696Y20439D01*
X5681Y20445D01*
X5666Y20449D01*
X5650Y20450D01*
X5634Y20449D01*
X5619Y20445D01*
X5604Y20439D01*
X5591Y20431D01*
X5579Y20421D01*
X4679Y19521D01*
X4669Y19509D01*
X4661Y19496D01*
X4655Y19481D01*
X4651Y19466D01*
X4650Y19450D01*
Y2900D01*
X4651Y2884D01*
X4655Y2869D01*
X4661Y2854D01*
X4669Y2841D01*
X4679Y2829D01*
X6050Y1459D01*
X6062Y1448D01*
X6075Y1440D01*
X6090Y1434D01*
X6105Y1430D01*
X6121Y1429D01*
X19259D01*
X19259Y1429D01*
X19273Y1423D01*
X19289Y1419D01*
X19304Y1418D01*
X19320Y1419D01*
X19335Y1423D01*
X19350Y1429D01*
X19363Y1437D01*
X19375Y1448D01*
X20179Y2252D01*
X20182Y2252D01*
X20195Y2261D01*
X20207Y2271D01*
X20217Y2283D01*
X20225Y2296D01*
X20231Y2311D01*
X20235Y2326D01*
X20236Y2342D01*
Y6164D01*
X20235Y6180D01*
X20231Y6195D01*
X20225Y6209D01*
X20217Y6223D01*
X20207Y6235D01*
X20195Y6245D01*
X20182Y6253D01*
X20180Y6254D01*
Y7040D01*
X20179Y7056D01*
X20179Y7056D01*
Y10574D01*
X20277Y10615D01*
X20718Y10174D01*
Y9589D01*
X20719Y9565D01*
X20724Y9541D01*
X20731Y9519D01*
X20742Y9497D01*
X20755Y9478D01*
X20771Y9460D01*
X21108Y9123D01*
X21126Y9107D01*
X21145Y9094D01*
X21167Y9083D01*
X21189Y9076D01*
X21213Y9071D01*
X21237Y9070D01*
X21274D01*
X21277Y9064D01*
X21287Y9049D01*
X21299Y9035D01*
X21313Y9023D01*
X21328Y9013D01*
X21344Y9005D01*
X21361Y8999D01*
X21379Y8995D01*
X21398Y8994D01*
X21713D01*
X21731Y8995D01*
X21749Y8999D01*
X21766Y9005D01*
X21782Y9013D01*
X21798Y9023D01*
X21811Y9035D01*
X21823Y9049D01*
X21830Y9059D01*
X21870Y9066D01*
X21894Y9067D01*
X21937Y9056D01*
X22250Y8302D01*
Y6000D01*
X22251Y5984D01*
X22255Y5969D01*
X22261Y5954D01*
X22269Y5941D01*
X22279Y5929D01*
X22629Y5579D01*
X22641Y5569D01*
X22654Y5561D01*
X22669Y5555D01*
X22684Y5551D01*
X22700Y5550D01*
X23700D01*
X23716Y5551D01*
X23731Y5555D01*
X23746Y5561D01*
X23759Y5569D01*
X23771Y5579D01*
X24107Y5916D01*
X24118Y5928D01*
X24126Y5941D01*
X24132Y5956D01*
X24134Y5965D01*
X24163Y5980D01*
X24188Y5988D01*
X24235Y5990D01*
X24356Y5805D01*
X24358Y5803D01*
X24359Y5801D01*
X24362Y5797D01*
X24366Y5793D01*
X24367Y5791D01*
X24369Y5789D01*
X24373Y5786D01*
X24377Y5782D01*
X24379Y5780D01*
X24381Y5779D01*
X24386Y5776D01*
X24390Y5773D01*
X24392Y5772D01*
X24394Y5771D01*
X24399Y5769D01*
X24404Y5766D01*
X24407Y5766D01*
X24409Y5765D01*
X24414Y5763D01*
X24419Y5762D01*
X24422Y5762D01*
X24424Y5761D01*
X24430Y5760D01*
X24435Y5760D01*
X24438Y5760D01*
X24440Y5760D01*
X37347D01*
X37350Y5760D01*
X37354Y5760D01*
X37358Y5761D01*
X37363Y5761D01*
X37366Y5762D01*
X37369Y5762D01*
X37374Y5764D01*
X37378Y5765D01*
X37381Y5766D01*
X37384Y5767D01*
X37388Y5769D01*
X37392Y5771D01*
X37395Y5772D01*
X37398Y5774D01*
X37402Y5776D01*
X37406Y5779D01*
X37408Y5781D01*
X37411Y5783D01*
X38924Y7044D01*
X38927Y7047D01*
X38931Y7050D01*
X38933Y7052D01*
X38935Y7055D01*
X38938Y7058D01*
X38941Y7062D01*
X38943Y7065D01*
X38945Y7067D01*
X38947Y7071D01*
X38949Y7075D01*
X38951Y7078D01*
X38952Y7081D01*
X38954Y7086D01*
X38955Y7090D01*
X38956Y7093D01*
X38957Y7096D01*
X38958Y7101D01*
X38959Y7105D01*
X38959Y7108D01*
X38960Y7112D01*
X38960Y7116D01*
X38960Y7121D01*
X38960Y10565D01*
Y11748D01*
X38960Y11754D01*
X38959Y11761D01*
X38959Y11762D01*
X38959Y11764D01*
X38958Y11770D01*
X38956Y11776D01*
X38956Y11778D01*
X38955Y11779D01*
X38953Y11785D01*
X38951Y11791D01*
X38950Y11792D01*
X38949Y11793D01*
X38946Y11799D01*
X38943Y11805D01*
X38942Y11806D01*
X38941Y11807D01*
X38937Y11812D01*
X38933Y11817D01*
X38932Y11818D01*
X38931Y11819D01*
X38926Y11823D01*
X38921Y11827D01*
X38321Y12288D01*
X38320Y12289D01*
X38319Y12290D01*
X38313Y12293D01*
X38308Y12297D01*
X38307Y12297D01*
X38306Y12298D01*
X38299Y12300D01*
X38294Y12303D01*
X38292Y12304D01*
X38291Y12304D01*
X38285Y12306D01*
X38278Y12307D01*
X38277Y12307D01*
X38276Y12308D01*
X38269Y12308D01*
X38263Y12309D01*
X38261Y12309D01*
X38260Y12309D01*
X35180D01*
X35164Y12308D01*
X35149Y12304D01*
X35134Y12298D01*
X35121Y12290D01*
X35109Y12280D01*
X34744Y11914D01*
X34740Y11913D01*
X34715Y11905D01*
X34699Y11905D01*
X34642Y11909D01*
X34630Y11911D01*
X34625Y11915D01*
X34619Y11920D01*
X34618Y11920D01*
X34618Y11921D01*
X34612Y11924D01*
X34606Y11928D01*
X34605Y11928D01*
X34604Y11929D01*
X34598Y11931D01*
X34591Y11934D01*
X34590Y11934D01*
X34589Y11934D01*
X33382Y12301D01*
X33375Y12302D01*
X33368Y12304D01*
X33367Y12304D01*
X33366Y12304D01*
X33359Y12304D01*
X33353Y12305D01*
X28225D01*
X28209Y12304D01*
X28194Y12300D01*
X28179Y12294D01*
X28166Y12286D01*
X28154Y12276D01*
X27689Y11811D01*
X27679Y11799D01*
X27671Y11786D01*
X27665Y11771D01*
X27661Y11756D01*
X27660Y11740D01*
Y11228D01*
X27659Y11227D01*
X27561Y11280D01*
Y11339D01*
X27560Y11357D01*
X27556Y11375D01*
X27550Y11392D01*
X27542Y11408D01*
X27539Y11413D01*
Y11842D01*
X27538Y11869D01*
X27534Y11896D01*
X27527Y11922D01*
X27518Y11947D01*
X27507Y11972D01*
X27503Y11978D01*
Y12057D01*
X27502Y12076D01*
X27498Y12094D01*
X27492Y12111D01*
X27484Y12127D01*
X27474Y12143D01*
X27462Y12156D01*
X27448Y12168D01*
X27433Y12178D01*
X27417Y12187D01*
X27400Y12192D01*
X27382Y12196D01*
X27363Y12197D01*
X27127D01*
X27109Y12196D01*
X27091Y12192D01*
X27074Y12187D01*
X27057Y12178D01*
X27042Y12168D01*
X27028Y12156D01*
X27016Y12143D01*
X27006Y12127D01*
X26998Y12111D01*
X26992Y12094D01*
X26989Y12076D01*
X26988Y12057D01*
Y11743D01*
X26988Y11728D01*
Y11413D01*
X26985Y11408D01*
X26977Y11392D01*
X26971Y11375D01*
X26968Y11357D01*
X26967Y11339D01*
Y11102D01*
X26968Y11084D01*
X26971Y11066D01*
X26974Y11059D01*
X26957Y11010D01*
X26946Y10991D01*
X26917Y10960D01*
X24560D01*
X24556Y10960D01*
X24552Y10960D01*
X24548Y10959D01*
X24544Y10959D01*
X24541Y10958D01*
X24537Y10958D01*
X24533Y10956D01*
X24529Y10955D01*
X24525Y10954D01*
X24522Y10953D01*
X24518Y10951D01*
X24514Y10949D01*
X24511Y10947D01*
X24508Y10946D01*
X24327Y10835D01*
X24311D01*
X24295Y10834D01*
X24280Y10830D01*
X24265Y10824D01*
X24252Y10816D01*
X24234Y10806D01*
X24157Y10805D01*
X24151Y10805D01*
X24129Y10813D01*
X23821Y11121D01*
X23809Y11131D01*
X23796Y11139D01*
X23781Y11145D01*
X23766Y11149D01*
X23750Y11150D01*
X21898D01*
X21881Y11165D01*
X21868Y11182D01*
X21842Y11246D01*
X21848Y11263D01*
X21851Y11281D01*
X21852Y11299D01*
Y11535D01*
X21851Y11554D01*
X21848Y11572D01*
X21842Y11589D01*
X21834Y11605D01*
X21823Y11620D01*
X21811Y11634D01*
X21798Y11646D01*
X21782Y11656D01*
X21766Y11664D01*
X21749Y11670D01*
X21731Y11674D01*
X21713Y11675D01*
X21516D01*
X21153Y12038D01*
X21135Y12054D01*
X21115Y12067D01*
X21093Y12078D01*
X21071Y12086D01*
X21047Y12090D01*
X21024Y12092D01*
X20017D01*
X20016Y12092D01*
X19997Y12097D01*
X19978Y12098D01*
X19471D01*
X19452Y12097D01*
X19433Y12092D01*
X19415Y12085D01*
X19399Y12075D01*
X19384Y12063D01*
X19372Y12048D01*
X19362Y12032D01*
X19354Y12014D01*
X19350Y11995D01*
X19348Y11976D01*
Y11843D01*
X19350Y11824D01*
X19354Y11805D01*
X19362Y11787D01*
X19365Y11781D01*
X19362Y11776D01*
X19354Y11758D01*
X19350Y11739D01*
X19348Y11720D01*
Y11587D01*
X19350Y11568D01*
X19354Y11549D01*
X19362Y11531D01*
X19372Y11515D01*
X19384Y11500D01*
X19399Y11488D01*
X19415Y11478D01*
X19433Y11471D01*
X19452Y11466D01*
X19471Y11465D01*
X19978D01*
X19997Y11466D01*
X20014Y11470D01*
X20016Y11470D01*
X20018Y11469D01*
X20019Y11468D01*
X20025Y11467D01*
X20031Y11466D01*
X20033Y11466D01*
X20035Y11465D01*
X20041Y11465D01*
X20047Y11465D01*
X20160D01*
X20191Y11424D01*
X20143Y11326D01*
X20040D01*
X20034Y11326D01*
X20028Y11325D01*
X20026Y11325D01*
X20024Y11325D01*
X20019Y11323D01*
X20016Y11325D01*
X19997Y11329D01*
X19978Y11331D01*
X19471D01*
X19452Y11329D01*
X19433Y11325D01*
X19415Y11317D01*
X19399Y11307D01*
X19384Y11295D01*
X19372Y11280D01*
X19362Y11264D01*
X19354Y11246D01*
X19350Y11227D01*
X19348Y11208D01*
Y11075D01*
X19350Y11056D01*
X19354Y11037D01*
X19362Y11020D01*
X19365Y11014D01*
X19362Y11008D01*
X19354Y10990D01*
X19350Y10971D01*
X19348Y10952D01*
Y10820D01*
X19021D01*
X19019Y10820D01*
X19017Y10820D01*
X19012Y10820D01*
X19006Y10819D01*
X19004Y10819D01*
X19002Y10818D01*
X18996Y10817D01*
X18990Y10815D01*
X18989Y10815D01*
X18987Y10814D01*
X18981Y10812D01*
X18976Y10809D01*
X18974Y10808D01*
X18972Y10808D01*
X18967Y10804D01*
X18962Y10801D01*
X18961Y10800D01*
X18959Y10799D01*
X18955Y10795D01*
X18950Y10791D01*
X18949Y10789D01*
X18948Y10788D01*
X18944Y10783D01*
X18940Y10779D01*
X18939Y10777D01*
X18938Y10776D01*
X18834Y10620D01*
X18831Y10615D01*
X18828Y10610D01*
X18827Y10608D01*
X18826Y10606D01*
X18824Y10601D01*
X18822Y10595D01*
X18821Y10593D01*
X18821Y10591D01*
X18820Y10586D01*
X18818Y10580D01*
X18818Y10578D01*
X18818Y10576D01*
X18817Y10570D01*
X18817Y10564D01*
Y9635D01*
X18730Y9583D01*
X18719Y9585D01*
X18713Y9593D01*
X18701Y9607D01*
X18687Y9619D01*
X18672Y9629D01*
X18656Y9637D01*
X18639Y9643D01*
X18621Y9646D01*
X18602Y9648D01*
X18366D01*
X18348Y9646D01*
X18330Y9643D01*
X18313Y9637D01*
X18296Y9629D01*
X18292Y9626D01*
X17735D01*
X17734Y9627D01*
X17724Y9643D01*
X17712Y9656D01*
X17698Y9668D01*
X17683Y9678D01*
X17667Y9687D01*
X17650Y9692D01*
X17632Y9696D01*
X17613Y9697D01*
X17377D01*
X17359Y9696D01*
X17341Y9692D01*
X17324Y9687D01*
X17307Y9678D01*
X17292Y9668D01*
X17278Y9656D01*
X17266Y9643D01*
X17256Y9627D01*
X17248Y9611D01*
X17242Y9594D01*
X17239Y9576D01*
X17237Y9557D01*
Y9446D01*
X17232Y9430D01*
X17225Y9404D01*
X17221Y9377D01*
X17220Y9350D01*
X17221Y9323D01*
X17225Y9297D01*
X17232Y9270D01*
X17237Y9255D01*
Y9243D01*
X17239Y9224D01*
X17242Y9206D01*
X17248Y9189D01*
X17256Y9173D01*
X17266Y9158D01*
X17278Y9144D01*
X17292Y9132D01*
X17307Y9122D01*
X17324Y9113D01*
X17341Y9108D01*
X17359Y9104D01*
X17375Y9103D01*
X17390Y9096D01*
X17415Y9087D01*
X17442Y9080D01*
X17468Y9076D01*
X17495Y9075D01*
X18292D01*
X18296Y9072D01*
X18313Y9064D01*
X18330Y9058D01*
X18348Y9054D01*
X18366Y9053D01*
X18602D01*
X18621Y9054D01*
X18639Y9058D01*
X18656Y9064D01*
X18672Y9072D01*
X18687Y9082D01*
X18701Y9094D01*
X18713Y9108D01*
X18719Y9116D01*
X18730Y9117D01*
X18817Y9066D01*
Y8579D01*
X18354Y8116D01*
X18280Y8060D01*
X18274Y8056D01*
X18269Y8051D01*
X18189Y7971D01*
X18179Y7959D01*
X18171Y7946D01*
X18165Y7931D01*
X18161Y7916D01*
X18160Y7900D01*
X18160Y4325D01*
X17926Y3950D01*
X7992D01*
X7450Y4492D01*
Y16858D01*
X7992Y17400D01*
X12584D01*
X12609Y17366D01*
X12618Y17344D01*
X12627Y17301D01*
X12622Y17293D01*
X12613Y17276D01*
X12608Y17259D01*
X12604Y17241D01*
X12603Y17223D01*
Y16987D01*
X12604Y16968D01*
X12608Y16950D01*
X12613Y16933D01*
X12622Y16917D01*
X12632Y16902D01*
X12644Y16888D01*
X12657Y16876D01*
X12673Y16866D01*
X12689Y16858D01*
X12706Y16852D01*
X12724Y16848D01*
X12743Y16847D01*
X12939D01*
X15543Y14243D01*
X15509Y14156D01*
X15416Y14144D01*
X15416Y14144D01*
X15400Y14155D01*
X15382Y14164D01*
X15364Y14170D01*
X15344Y14174D01*
X15325Y14175D01*
X14990D01*
X14971Y14174D01*
X14951Y14170D01*
X14933Y14164D01*
X14915Y14155D01*
X14899Y14144D01*
X14884Y14131D01*
X14881Y14128D01*
X14848Y14118D01*
X14823Y14117D01*
X14798Y14118D01*
X14764Y14128D01*
X14761Y14131D01*
X14747Y14144D01*
X14730Y14155D01*
X14713Y14164D01*
X14694Y14170D01*
X14675Y14174D01*
X14656Y14175D01*
X14321D01*
X14301Y14174D01*
X14282Y14170D01*
X14264Y14164D01*
X14246Y14155D01*
X14230Y14144D01*
X14215Y14131D01*
X14202Y14117D01*
X14191Y14100D01*
X14183Y14083D01*
X14176Y14064D01*
X14176Y14060D01*
X13892D01*
X13887Y14076D01*
X13878Y14093D01*
X13868Y14108D01*
X13856Y14122D01*
X13843Y14134D01*
X13827Y14144D01*
X13811Y14152D01*
X13794Y14158D01*
X13776Y14161D01*
X13757Y14162D01*
X13561D01*
X12974Y14749D01*
X12956Y14765D01*
X12936Y14778D01*
X12915Y14789D01*
X12892Y14796D01*
X12869Y14801D01*
X12845Y14802D01*
X9559D01*
X9551Y14827D01*
X9535Y14866D01*
X9516Y14904D01*
X9495Y14940D01*
X9470Y14975D01*
X9444Y15008D01*
X9415Y15039D01*
X9384Y15068D01*
X9351Y15094D01*
X9316Y15119D01*
X9280Y15140D01*
X9242Y15159D01*
X9203Y15175D01*
X9163Y15189D01*
X9122Y15199D01*
X9080Y15207D01*
X9038Y15211D01*
X8996Y15213D01*
X8954Y15211D01*
X8912Y15207D01*
X8870Y15199D01*
X8829Y15189D01*
X8789Y15175D01*
X8750Y15159D01*
X8712Y15140D01*
X8676Y15119D01*
X8641Y15094D01*
X8608Y15068D01*
X8577Y15039D01*
X8548Y15008D01*
X8522Y14975D01*
X8498Y14940D01*
X8476Y14904D01*
X8457Y14866D01*
X8441Y14827D01*
X8428Y14787D01*
X8417Y14746D01*
X8410Y14704D01*
X8405Y14662D01*
X8404Y14620D01*
X8405Y14578D01*
X8410Y14536D01*
X8417Y14494D01*
X8428Y14453D01*
X8441Y14413D01*
X8457Y14374D01*
X8476Y14336D01*
X8498Y14300D01*
X8522Y14265D01*
X8548Y14232D01*
X8577Y14201D01*
X8608Y14172D01*
X8641Y14146D01*
X8676Y14122D01*
X8712Y14100D01*
X8750Y14081D01*
X8789Y14065D01*
X8829Y14052D01*
X8870Y14041D01*
X8912Y14034D01*
X8954Y14029D01*
X8996Y14028D01*
X9038Y14029D01*
X9080Y14034D01*
X9122Y14041D01*
X9163Y14052D01*
X9203Y14065D01*
X9242Y14081D01*
X9280Y14100D01*
X9316Y14122D01*
X9351Y14146D01*
X9384Y14172D01*
X9415Y14201D01*
X9444Y14232D01*
X9470Y14265D01*
X9495Y14300D01*
X9516Y14336D01*
X9535Y14374D01*
X9551Y14413D01*
X9559Y14438D01*
X12770D01*
X13303Y13905D01*
Y13787D01*
X13304Y13768D01*
X13308Y13750D01*
X13313Y13733D01*
X13322Y13717D01*
X13332Y13702D01*
X13344Y13688D01*
X13357Y13676D01*
X13373Y13666D01*
X13389Y13658D01*
X13406Y13652D01*
X13424Y13648D01*
X13443Y13647D01*
X13757D01*
X13776Y13648D01*
X13794Y13652D01*
X13811Y13658D01*
X13827Y13666D01*
X13843Y13676D01*
X13856Y13688D01*
X13863Y13696D01*
X14176D01*
X14176Y13692D01*
X14183Y13673D01*
X14191Y13656D01*
X14202Y13639D01*
X14215Y13625D01*
X14230Y13612D01*
X14246Y13601D01*
X14264Y13592D01*
X14282Y13586D01*
X14301Y13582D01*
X14321Y13581D01*
X14656D01*
X14675Y13582D01*
X14694Y13586D01*
X14713Y13592D01*
X14730Y13601D01*
X14747Y13612D01*
X14761Y13625D01*
X14764Y13628D01*
X14798Y13638D01*
X14823Y13639D01*
X14848Y13638D01*
X14881Y13628D01*
X14884Y13625D01*
X14899Y13612D01*
X14915Y13601D01*
X14933Y13592D01*
X14951Y13586D01*
X14971Y13582D01*
X14990Y13581D01*
X15325D01*
X15344Y13582D01*
X15364Y13586D01*
X15382Y13592D01*
X15400Y13601D01*
X15416Y13612D01*
X15431Y13625D01*
X15443Y13639D01*
X15454Y13656D01*
X15463Y13673D01*
X15469Y13692D01*
X15473Y13711D01*
X15474Y13726D01*
X15487Y13733D01*
X15573Y13755D01*
X16121Y13206D01*
X16084Y13115D01*
X15969D01*
X15956Y13129D01*
X15938Y13145D01*
X15918Y13158D01*
X15896Y13169D01*
X15874Y13176D01*
X15850Y13181D01*
X15827Y13182D01*
X15647D01*
X15646Y13186D01*
X15640Y13205D01*
X15631Y13222D01*
X15621Y13239D01*
X15608Y13253D01*
X15593Y13266D01*
X15577Y13277D01*
X15559Y13286D01*
X15541Y13292D01*
X15521Y13296D01*
X15502Y13297D01*
X15167D01*
X15148Y13296D01*
X15129Y13292D01*
X15110Y13286D01*
X15093Y13277D01*
X15076Y13266D01*
X15062Y13253D01*
X15049Y13239D01*
X15038Y13222D01*
X15029Y13205D01*
X15023Y13186D01*
X15019Y13167D01*
X15018Y13148D01*
Y12902D01*
X15013Y12850D01*
X14941Y12809D01*
X14925Y12803D01*
X14261D01*
X14115Y12949D01*
X14097Y12964D01*
X14097Y12965D01*
Y13013D01*
X14096Y13032D01*
X14092Y13050D01*
X14087Y13067D01*
X14078Y13083D01*
X14068Y13098D01*
X14056Y13112D01*
X14043Y13124D01*
X14027Y13134D01*
X14011Y13142D01*
X13994Y13148D01*
X13976Y13152D01*
X13957Y13153D01*
X13643D01*
X13624Y13152D01*
X13606Y13148D01*
X13589Y13142D01*
X13573Y13134D01*
X13557Y13124D01*
X13544Y13112D01*
X13532Y13098D01*
X13522Y13083D01*
X13513Y13067D01*
X13508Y13050D01*
X13504Y13032D01*
X13503Y13013D01*
Y12777D01*
X13504Y12759D01*
X13508Y12741D01*
X13513Y12724D01*
X13522Y12707D01*
X13532Y12692D01*
X13544Y12678D01*
X13557Y12666D01*
X13573Y12656D01*
X13583Y12651D01*
X13589Y12626D01*
Y12574D01*
X13583Y12549D01*
X13573Y12544D01*
X13557Y12534D01*
X13544Y12522D01*
X13532Y12508D01*
X13522Y12494D01*
X13278D01*
X13268Y12508D01*
X13256Y12522D01*
X13243Y12534D01*
X13227Y12544D01*
X13211Y12552D01*
X13194Y12558D01*
X13176Y12561D01*
X13157Y12563D01*
X12843D01*
X12824Y12561D01*
X12806Y12558D01*
X12789Y12552D01*
X12773Y12544D01*
X12757Y12534D01*
X12744Y12522D01*
X12732Y12508D01*
X12722Y12493D01*
X12713Y12476D01*
X12708Y12459D01*
X12704Y12441D01*
X12703Y12423D01*
Y12187D01*
X12704Y12168D01*
X12708Y12150D01*
X12713Y12133D01*
X12722Y12117D01*
X12732Y12102D01*
X12744Y12088D01*
X12757Y12076D01*
X12773Y12066D01*
X12789Y12058D01*
X12806Y12052D01*
X12824Y12048D01*
X12843Y12047D01*
X13157D01*
X13176Y12048D01*
X13194Y12052D01*
X13211Y12058D01*
X13227Y12066D01*
X13243Y12076D01*
X13256Y12088D01*
X13268Y12102D01*
X13278Y12117D01*
X13284Y12129D01*
X13516D01*
X13522Y12117D01*
X13532Y12102D01*
X13544Y12088D01*
X13557Y12076D01*
X13573Y12066D01*
X13589Y12058D01*
X13606Y12052D01*
X13624Y12048D01*
X13643Y12047D01*
X13842D01*
X13894Y11994D01*
X13896Y11992D01*
X13912Y11974D01*
X14111Y11774D01*
X14067Y11687D01*
X14050Y11692D01*
X14032Y11696D01*
X14013Y11697D01*
X13777D01*
X13759Y11696D01*
X13741Y11692D01*
X13724Y11687D01*
X13707Y11678D01*
X13692Y11668D01*
X13678Y11656D01*
X13666Y11643D01*
X13656Y11627D01*
X13648Y11611D01*
X13642Y11594D01*
X13639Y11576D01*
X13637Y11557D01*
Y11243D01*
X13639Y11224D01*
X13642Y11206D01*
X13648Y11189D01*
X13656Y11173D01*
X13666Y11157D01*
X13678Y11144D01*
X13692Y11132D01*
X13707Y11122D01*
X13718Y11116D01*
Y10976D01*
X8867Y6125D01*
X8851Y6107D01*
X8838Y6087D01*
X8828Y6066D01*
X8820Y6043D01*
X8815Y6020D01*
X8814Y5996D01*
Y5341D01*
X8789Y5333D01*
X8750Y5317D01*
X8712Y5298D01*
X8676Y5276D01*
X8641Y5252D01*
X8608Y5225D01*
X8577Y5197D01*
X8548Y5166D01*
X8522Y5133D01*
X8498Y5098D01*
X8476Y5062D01*
X8457Y5024D01*
X8441Y4985D01*
X8428Y4944D01*
X8417Y4904D01*
X8410Y4862D01*
X8405Y4820D01*
X8404Y4778D01*
X8405Y4735D01*
X8410Y4693D01*
X8417Y4652D01*
X8428Y4611D01*
X8441Y4570D01*
X8457Y4531D01*
X8476Y4494D01*
X8498Y4457D01*
X8522Y4422D01*
X8548Y4390D01*
X8577Y4359D01*
X8608Y4330D01*
X8641Y4303D01*
X8676Y4279D01*
X8712Y4258D01*
X8750Y4239D01*
X8789Y4222D01*
X8829Y4209D01*
X8870Y4199D01*
X8912Y4191D01*
X8954Y4187D01*
X8996Y4185D01*
X9038Y4187D01*
X9080Y4191D01*
X9122Y4199D01*
X9163Y4209D01*
X9203Y4222D01*
X9242Y4239D01*
X9280Y4258D01*
X9316Y4279D01*
X9351Y4303D01*
X9384Y4330D01*
X9415Y4359D01*
X9444Y4390D01*
X9470Y4422D01*
X9495Y4457D01*
X9516Y4494D01*
X9535Y4531D01*
X9551Y4570D01*
X9565Y4611D01*
X9575Y4652D01*
X9583Y4693D01*
X9587Y4735D01*
X9589Y4778D01*
X9587Y4820D01*
X9583Y4862D01*
X9575Y4904D01*
X9565Y4944D01*
X9551Y4985D01*
X9535Y5024D01*
X9516Y5062D01*
X9495Y5098D01*
X9470Y5133D01*
X9444Y5166D01*
X9415Y5197D01*
X9384Y5225D01*
X9351Y5252D01*
X9316Y5276D01*
X9280Y5298D01*
X9242Y5317D01*
X9203Y5333D01*
X9178Y5341D01*
Y5921D01*
X14029Y10771D01*
X14045Y10789D01*
X14058Y10809D01*
X14069Y10830D01*
X14076Y10853D01*
X14081Y10876D01*
X14082Y10900D01*
Y11121D01*
X14083Y11122D01*
X14098Y11132D01*
X14112Y11144D01*
X14124Y11157D01*
X14134Y11173D01*
X14142Y11189D01*
X14148Y11206D01*
X14151Y11218D01*
X14353D01*
X14354Y11214D01*
X14360Y11195D01*
X14369Y11178D01*
X14379Y11161D01*
X14392Y11147D01*
X14407Y11134D01*
X14423Y11123D01*
X14441Y11114D01*
X14459Y11108D01*
X14479Y11104D01*
X14498Y11103D01*
X14833D01*
X14852Y11104D01*
X14871Y11108D01*
X14890Y11114D01*
X14907Y11123D01*
X14924Y11134D01*
X14938Y11147D01*
X14942Y11150D01*
X14975Y11160D01*
X15000Y11161D01*
X15025Y11160D01*
X15058Y11150D01*
X15062Y11147D01*
X15076Y11134D01*
X15093Y11123D01*
X15110Y11114D01*
X15129Y11108D01*
X15148Y11104D01*
X15167Y11103D01*
X15502D01*
X15521Y11104D01*
X15541Y11108D01*
X15559Y11114D01*
X15577Y11123D01*
X15593Y11134D01*
X15608Y11147D01*
X15621Y11161D01*
X15631Y11178D01*
X15640Y11195D01*
X15646Y11214D01*
X15647Y11218D01*
X15856D01*
X15868Y11205D01*
Y10926D01*
X15774Y10832D01*
X15647D01*
X15646Y10836D01*
X15640Y10855D01*
X15631Y10872D01*
X15621Y10889D01*
X15608Y10903D01*
X15593Y10916D01*
X15577Y10927D01*
X15559Y10936D01*
X15541Y10942D01*
X15521Y10946D01*
X15502Y10947D01*
X15167D01*
X15148Y10946D01*
X15129Y10942D01*
X15110Y10936D01*
X15093Y10927D01*
X15076Y10916D01*
X15062Y10903D01*
X15049Y10889D01*
X15038Y10872D01*
X15029Y10855D01*
X15023Y10836D01*
X15019Y10817D01*
X15018Y10798D01*
Y10502D01*
X15019Y10483D01*
X15023Y10464D01*
X15029Y10445D01*
X15038Y10428D01*
X15049Y10411D01*
X15062Y10397D01*
X15076Y10384D01*
X15093Y10373D01*
X15110Y10364D01*
X15129Y10358D01*
X15148Y10354D01*
X15167Y10353D01*
X15317D01*
X15355Y10262D01*
X15190Y10097D01*
X15072D01*
X15054Y10096D01*
X15036Y10092D01*
X15019Y10087D01*
X15003Y10078D01*
X14987Y10068D01*
X14974Y10056D01*
X14962Y10043D01*
X14951Y10027D01*
X14943Y10011D01*
X14938Y9994D01*
X14934Y9976D01*
X14933Y9957D01*
Y9643D01*
X14934Y9624D01*
X14938Y9606D01*
X14943Y9589D01*
X14951Y9573D01*
X14962Y9557D01*
X14974Y9544D01*
X14987Y9532D01*
X15003Y9522D01*
X15019Y9513D01*
X15036Y9508D01*
X15054Y9504D01*
X15072Y9503D01*
X15309D01*
X15327Y9504D01*
X15345Y9508D01*
X15362Y9513D01*
X15379Y9522D01*
X15394Y9532D01*
X15407Y9544D01*
X15419Y9557D01*
X15430Y9573D01*
X15438Y9589D01*
X15444Y9606D01*
X15447Y9624D01*
X15448Y9643D01*
Y9839D01*
X15727Y10118D01*
X15950D01*
X15974Y10119D01*
X15997Y10124D01*
X16020Y10131D01*
X16041Y10142D01*
X16061Y10155D01*
X16079Y10171D01*
X16433Y10525D01*
X16449Y10543D01*
X16462Y10563D01*
X16473Y10584D01*
X16480Y10607D01*
X16485Y10630D01*
X16486Y10654D01*
Y10944D01*
X16642D01*
X16666Y10946D01*
X16689Y10950D01*
X16697Y10953D01*
X16986D01*
X17005Y10954D01*
X17024Y10959D01*
X17041Y10966D01*
X17058Y10976D01*
X17072Y10989D01*
X17085Y11003D01*
X17095Y11020D01*
X17102Y11037D01*
X17107Y11056D01*
X17108Y11075D01*
Y11208D01*
X17107Y11227D01*
X17102Y11246D01*
X17095Y11264D01*
X17091Y11270D01*
X17095Y11276D01*
X17102Y11293D01*
X17107Y11312D01*
X17108Y11331D01*
Y11464D01*
X17107Y11483D01*
X17102Y11502D01*
X17095Y11520D01*
X17091Y11526D01*
X17095Y11531D01*
X17102Y11549D01*
X17107Y11568D01*
X17108Y11587D01*
Y11720D01*
X17107Y11739D01*
X17102Y11758D01*
X17095Y11776D01*
X17085Y11792D01*
X17072Y11807D01*
X17058Y11819D01*
X17041Y11829D01*
X17024Y11837D01*
X17005Y11841D01*
X16986Y11842D01*
X16479D01*
X16460Y11841D01*
X16441Y11837D01*
X16440Y11836D01*
X16310D01*
X16268Y11932D01*
X16308Y11983D01*
X16440D01*
X16441Y11982D01*
X16460Y11978D01*
X16479Y11976D01*
X16986D01*
X17005Y11978D01*
X17024Y11982D01*
X17041Y11990D01*
X17058Y12000D01*
X17072Y12012D01*
X17085Y12027D01*
X17095Y12043D01*
X17102Y12061D01*
X17107Y12080D01*
X17108Y12099D01*
Y12232D01*
X17107Y12251D01*
X17102Y12270D01*
X17095Y12287D01*
X17091Y12293D01*
X17095Y12299D01*
X17102Y12317D01*
X17107Y12336D01*
X17108Y12355D01*
Y12488D01*
X17107Y12507D01*
X17102Y12526D01*
X17095Y12543D01*
X17091Y12549D01*
X17095Y12555D01*
X17102Y12573D01*
X17107Y12592D01*
X17108Y12611D01*
Y12744D01*
X17107Y12763D01*
X17102Y12781D01*
X17095Y12799D01*
X17091Y12805D01*
X17095Y12811D01*
X17102Y12829D01*
X17107Y12847D01*
X17108Y12867D01*
Y13000D01*
X17107Y13019D01*
X17102Y13037D01*
X17095Y13055D01*
X17091Y13061D01*
X17095Y13067D01*
X17102Y13085D01*
X17107Y13103D01*
X17108Y13123D01*
Y13255D01*
X17107Y13275D01*
X17102Y13293D01*
X17095Y13311D01*
X17091Y13317D01*
X17095Y13323D01*
X17102Y13341D01*
X17107Y13359D01*
X17108Y13378D01*
Y13511D01*
X17107Y13530D01*
X17102Y13549D01*
X17095Y13567D01*
X17091Y13573D01*
X17095Y13579D01*
X17102Y13596D01*
X17107Y13615D01*
X17108Y13634D01*
Y13767D01*
X17107Y13786D01*
X17102Y13805D01*
X17095Y13823D01*
X17085Y13839D01*
X17072Y13854D01*
X17058Y13866D01*
X17041Y13876D01*
X17024Y13884D01*
X17005Y13888D01*
X16986Y13890D01*
X16479D01*
X16460Y13888D01*
X16441Y13884D01*
X16440Y13883D01*
X16425D01*
X16329Y13979D01*
X16311Y13995D01*
X16300Y14002D01*
X13197Y17105D01*
Y17223D01*
X13196Y17241D01*
X13192Y17259D01*
X13187Y17276D01*
X13178Y17293D01*
X13173Y17301D01*
X13185Y17355D01*
X13188Y17364D01*
X13215Y17401D01*
X13216Y17401D01*
X13231Y17405D01*
X13246Y17411D01*
X13259Y17419D01*
X13271Y17429D01*
X13281Y17441D01*
X13289Y17454D01*
X13295Y17469D01*
X13299Y17484D01*
X13300Y17500D01*
Y22474D01*
X13781Y22800D01*
X21146D01*
X21500Y22270D01*
Y21735D01*
X21152Y21300D01*
X19980D01*
X19980Y21300D01*
X19979Y21300D01*
X19972Y21300D01*
X19964Y21299D01*
X19964Y21299D01*
X19964Y21299D01*
X19956Y21297D01*
X19949Y21295D01*
X19949Y21295D01*
X19948Y21295D01*
X19941Y21292D01*
X19934Y21289D01*
X19934Y21289D01*
X19934Y21289D01*
X19927Y21285D01*
X19921Y21281D01*
X19921Y21281D01*
X19921Y21281D01*
X19915Y21276D01*
X19909Y21271D01*
X19909Y21271D01*
X19909Y21271D01*
X19904Y21265D01*
X19899Y21259D01*
X19899Y21259D01*
X19899Y21259D01*
X18909Y19880D01*
X18342D01*
X17991Y20231D01*
X17979Y20241D01*
X17966Y20249D01*
X17951Y20255D01*
X17936Y20259D01*
X17920Y20260D01*
X17050D01*
X17046Y20260D01*
X17043Y20260D01*
X17039Y20259D01*
X17034Y20259D01*
X17031Y20258D01*
X17027Y20258D01*
X17023Y20256D01*
X17019Y20255D01*
X17016Y20254D01*
X17012Y20253D01*
X17008Y20251D01*
X17004Y20249D01*
X17001Y20248D01*
X16998Y20246D01*
X16995Y20243D01*
X16991Y20241D01*
X16988Y20239D01*
X16985Y20237D01*
X16982Y20234D01*
X16979Y20231D01*
X16977Y20228D01*
X16974Y20226D01*
X16644Y19846D01*
X16642Y19842D01*
X16639Y19839D01*
X16637Y19836D01*
X16635Y19833D01*
X16633Y19829D01*
X16631Y19826D01*
X16629Y19822D01*
X16628Y19819D01*
X16626Y19815D01*
X16625Y19811D01*
X16624Y19808D01*
X16623Y19804D01*
X16622Y19800D01*
X16621Y19796D01*
X16621Y19792D01*
X16620Y19789D01*
X16620Y19784D01*
X16620Y19780D01*
Y18182D01*
X16621Y18166D01*
X16625Y18151D01*
X16631Y18136D01*
X16639Y18123D01*
X16649Y18111D01*
X17371Y17389D01*
X17383Y17379D01*
X17396Y17371D01*
X17411Y17365D01*
X17426Y17361D01*
X17442Y17360D01*
X18138D01*
X18300Y17198D01*
Y15364D01*
X18301Y15348D01*
X18305Y15333D01*
X18311Y15318D01*
X18319Y15305D01*
X18329Y15293D01*
X18680Y14942D01*
Y13760D01*
X18681Y13744D01*
X18685Y13729D01*
X18691Y13714D01*
X18699Y13701D01*
X18709Y13689D01*
X18869Y13529D01*
X18881Y13519D01*
X18894Y13511D01*
X18909Y13505D01*
X18924Y13501D01*
X18940Y13500D01*
X19348D01*
Y13378D01*
X19350Y13359D01*
X19354Y13341D01*
X19362Y13323D01*
X19365Y13317D01*
X19362Y13311D01*
X19354Y13293D01*
X19350Y13275D01*
X19348Y13255D01*
Y13123D01*
X19350Y13103D01*
X19354Y13085D01*
X19362Y13067D01*
X19372Y13051D01*
X19384Y13036D01*
X19399Y13023D01*
X19415Y13013D01*
X19433Y13006D01*
X19452Y13002D01*
X19471Y13000D01*
X19978D01*
X19997Y13002D01*
X20011Y13005D01*
X20011Y13005D01*
X20017Y13003D01*
X20022Y13001D01*
X20024Y13000D01*
X20026Y12999D01*
X20032Y12998D01*
X20038Y12997D01*
X20040Y12997D01*
X20042Y12996D01*
X20048Y12996D01*
X20053Y12996D01*
X20733D01*
X20785Y12897D01*
X20769Y12874D01*
X20058D01*
X20052Y12873D01*
X20047Y12873D01*
X20045Y12873D01*
X20043Y12873D01*
X20037Y12871D01*
X20031Y12870D01*
X20029Y12869D01*
X20027Y12869D01*
X20022Y12867D01*
X20016Y12865D01*
X20015Y12864D01*
X20013Y12863D01*
X20010Y12861D01*
X19997Y12865D01*
X19978Y12866D01*
X19471D01*
X19452Y12865D01*
X19433Y12860D01*
X19415Y12853D01*
X19399Y12843D01*
X19384Y12830D01*
X19372Y12816D01*
X19362Y12799D01*
X19354Y12781D01*
X19350Y12763D01*
X19348Y12744D01*
Y12611D01*
X19350Y12592D01*
X19354Y12573D01*
X19362Y12555D01*
X19365Y12549D01*
X19362Y12543D01*
X19354Y12526D01*
X19350Y12507D01*
X19348Y12488D01*
Y12355D01*
X19350Y12336D01*
X19354Y12317D01*
X19362Y12299D01*
X19372Y12283D01*
X19384Y12268D01*
X19399Y12256D01*
X19415Y12246D01*
X19433Y12238D01*
X19452Y12234D01*
X19471Y12232D01*
X19978D01*
X19997Y12234D01*
X20016Y12238D01*
X20017Y12239D01*
X21266D01*
X21269Y12230D01*
X21277Y12214D01*
X21287Y12198D01*
X21299Y12185D01*
X21313Y12173D01*
X21328Y12163D01*
X21344Y12154D01*
X21361Y12149D01*
X21379Y12145D01*
X21398Y12144D01*
X21713D01*
X21731Y12145D01*
X21749Y12149D01*
X21766Y12154D01*
X21782Y12163D01*
X21798Y12173D01*
X21811Y12185D01*
X21823Y12198D01*
X21834Y12214D01*
X21842Y12230D01*
X21848Y12247D01*
X21851Y12265D01*
X21852Y12283D01*
Y12488D01*
X23689D01*
X23704Y12490D01*
X23720Y12493D01*
X23734Y12499D01*
X23748Y12507D01*
X23760Y12518D01*
X24021Y12779D01*
X24031Y12791D01*
X24039Y12804D01*
X24045Y12819D01*
X24049Y12834D01*
X24050Y12850D01*
Y12880D01*
X24080Y12899D01*
X24111Y12910D01*
X24149Y12914D01*
X24344Y12719D01*
X24345Y12717D01*
X24355Y12705D01*
X24367Y12694D01*
X24381Y12686D01*
X24395Y12680D01*
X24411Y12677D01*
X24426Y12675D01*
X31476D01*
X31492Y12677D01*
X31507Y12680D01*
X31522Y12686D01*
X31535Y12694D01*
X31547Y12705D01*
X32759Y13916D01*
X32762Y13920D01*
X32766Y13924D01*
X32767Y13926D01*
X32769Y13928D01*
X32772Y13933D01*
X32775Y13937D01*
X32776Y13939D01*
X32777Y13942D01*
X32779Y13946D01*
X32782Y13951D01*
X32782Y13954D01*
X32783Y13956D01*
X32785Y13961D01*
X32786Y13966D01*
X32786Y13969D01*
X32787Y13971D01*
X32787Y13977D01*
X32788Y13982D01*
X32788Y13984D01*
X32788Y13987D01*
X32788Y13992D01*
X32788Y13998D01*
X32860Y14042D01*
X32876Y14049D01*
X32907Y14057D01*
X32947Y14070D01*
X32986Y14086D01*
X33024Y14105D01*
X33060Y14127D01*
X33095Y14151D01*
X33128Y14177D01*
X33159Y14206D01*
X33188Y14237D01*
X33214Y14270D01*
X33238Y14305D01*
X33260Y14341D01*
X33279Y14379D01*
X33295Y14418D01*
X33308Y14458D01*
X33316Y14489D01*
X33323Y14506D01*
X33368Y14577D01*
X33373Y14577D01*
X33378Y14577D01*
X33381Y14577D01*
X33383Y14577D01*
X33388Y14578D01*
X33394Y14578D01*
X33396Y14579D01*
X33399Y14579D01*
X33404Y14581D01*
X33409Y14582D01*
X33411Y14583D01*
X33414Y14584D01*
X33419Y14586D01*
X33424Y14588D01*
X33426Y14589D01*
X33428Y14590D01*
X33432Y14593D01*
X33437Y14596D01*
X33439Y14598D01*
X33441Y14599D01*
X33445Y14603D01*
X33449Y14606D01*
X33677Y14835D01*
X39047Y20205D01*
X39058Y20217D01*
X39066Y20230D01*
X39072Y20245D01*
X39075Y20260D01*
X39077Y20276D01*
Y21654D01*
X39075Y21669D01*
X39072Y21685D01*
X39066Y21699D01*
X39058Y21713D01*
X39047Y21724D01*
X38654Y22118D01*
X38642Y22128D01*
X38628Y22137D01*
X38614Y22143D01*
X38598Y22146D01*
X38583Y22148D01*
X36220D01*
X36205Y22146D01*
X36189Y22143D01*
X36175Y22137D01*
X36162Y22128D01*
X36150Y22118D01*
X34050Y20018D01*
X33959Y20056D01*
Y21654D01*
X33957Y21669D01*
X33954Y21685D01*
X33948Y21699D01*
X33939Y21713D01*
X33929Y21724D01*
X33535Y22118D01*
X33524Y22128D01*
X33510Y22137D01*
X33496Y22143D01*
X33480Y22146D01*
X33465Y22148D01*
X31919D01*
X31904Y22146D01*
X31888Y22143D01*
X31874Y22137D01*
X31860Y22128D01*
X31848Y22118D01*
X27659Y17929D01*
X27561Y17970D01*
Y18130D01*
X27560Y18148D01*
X27556Y18166D01*
X27550Y18183D01*
X27542Y18200D01*
X27532Y18215D01*
X27520Y18229D01*
X27514Y18234D01*
Y18619D01*
X27513Y18647D01*
X27511Y18655D01*
Y18716D01*
X27511Y18718D01*
Y18881D01*
X27510Y18899D01*
X27506Y18917D01*
X27501Y18934D01*
X27492Y18951D01*
X27482Y18966D01*
X27470Y18980D01*
X27456Y18992D01*
X27441Y19002D01*
X27425Y19010D01*
X27408Y19016D01*
X27390Y19019D01*
X27371Y19021D01*
X27135D01*
X27117Y19019D01*
X27099Y19016D01*
X27082Y19010D01*
X27065Y19002D01*
X27050Y18992D01*
X27036Y18980D01*
X27024Y18966D01*
X27014Y18951D01*
X27006Y18934D01*
X27000Y18917D01*
X26997Y18899D01*
X26996Y18881D01*
Y18566D01*
X26997Y18548D01*
X27000Y18530D01*
X27006Y18512D01*
X27013Y18498D01*
Y18234D01*
X27008Y18229D01*
X26995Y18215D01*
X26985Y18200D01*
X26977Y18183D01*
X26971Y18166D01*
X26968Y18148D01*
X26967Y18130D01*
Y17894D01*
X26909Y17832D01*
X26901Y17826D01*
X26881Y17817D01*
X24409D01*
X24394Y17816D01*
X24378Y17812D01*
X24364Y17806D01*
X24350Y17798D01*
X24339Y17787D01*
X24212Y17661D01*
X24113Y17702D01*
Y17726D01*
X24112Y17741D01*
X24109Y17757D01*
X24103Y17771D01*
X24094Y17785D01*
X24084Y17797D01*
X24072Y17807D01*
X24059Y17815D01*
X24044Y17821D01*
X24029Y17825D01*
X24013Y17826D01*
X22253D01*
X22238Y17825D01*
X22222Y17821D01*
X22208Y17815D01*
X22194Y17807D01*
X22182Y17797D01*
X21779Y17394D01*
X21769Y17382D01*
X21761Y17368D01*
X21755Y17354D01*
X21751Y17339D01*
X21750Y17323D01*
Y14920D01*
X21748Y14911D01*
X21713Y14825D01*
X21398D01*
X21379Y14824D01*
X21361Y14820D01*
X21344Y14814D01*
X21328Y14806D01*
X21313Y14796D01*
X21299Y14784D01*
X21287Y14770D01*
X21277Y14755D01*
X21269Y14738D01*
X21263Y14721D01*
X21259Y14703D01*
X21258Y14685D01*
Y14674D01*
X21124D01*
X21100Y14672D01*
X21076Y14668D01*
X21054Y14660D01*
X21032Y14649D01*
X21013Y14636D01*
X20995Y14620D01*
X20291Y13917D01*
X20200Y13955D01*
Y14200D01*
X20199Y14216D01*
X20195Y14231D01*
X20189Y14246D01*
X20181Y14259D01*
X20171Y14271D01*
X20080Y14362D01*
Y15057D01*
X21260D01*
X21276Y15058D01*
X21291Y15062D01*
X21305Y15068D01*
X21319Y15076D01*
X21331Y15087D01*
X21528Y15283D01*
X21538Y15295D01*
X21546Y15309D01*
X21552Y15323D01*
X21556Y15339D01*
X21557Y15354D01*
Y17675D01*
X21892Y18010D01*
X23819D01*
X23835Y18011D01*
X23850Y18015D01*
X23864Y18021D01*
X23878Y18029D01*
X23890Y18039D01*
X24284Y18433D01*
X24294Y18445D01*
X24302Y18458D01*
X24308Y18473D01*
X24312Y18488D01*
X24313Y18504D01*
X24313Y24213D01*
X24312Y24228D01*
X24308Y24244D01*
X24302Y24258D01*
X24294Y24272D01*
X24284Y24284D01*
X23796Y24771D01*
X23784Y24781D01*
X23771Y24789D01*
X23756Y24795D01*
X23741Y24799D01*
X23725Y24800D01*
X10500Y24800D01*
D02*
G37*
G36*
X37740Y15218D02*
X37698Y15216D01*
X37656Y15212D01*
X37614Y15204D01*
X37573Y15194D01*
X37533Y15180D01*
X37494Y15164D01*
X37456Y15145D01*
X37420Y15124D01*
X37385Y15099D01*
X37352Y15073D01*
X37321Y15044D01*
X37292Y15013D01*
X37266Y14980D01*
X37242Y14945D01*
X37220Y14909D01*
X37201Y14871D01*
X37185Y14832D01*
X37171Y14792D01*
X37161Y14751D01*
X37154Y14709D01*
X37149Y14667D01*
X37148Y14625D01*
X37149Y14583D01*
X37154Y14541D01*
X37161Y14499D01*
X37171Y14458D01*
X37185Y14418D01*
X37201Y14379D01*
X37220Y14341D01*
X37242Y14305D01*
X37266Y14270D01*
X37292Y14237D01*
X37321Y14206D01*
X37352Y14177D01*
X37385Y14151D01*
X37420Y14127D01*
X37456Y14105D01*
X37494Y14086D01*
X37533Y14070D01*
X37573Y14057D01*
X37614Y14046D01*
X37656Y14039D01*
X37698Y14034D01*
X37740Y14033D01*
X37782Y14034D01*
X37824Y14039D01*
X37866Y14046D01*
X37907Y14057D01*
X37947Y14070D01*
X37986Y14086D01*
X38024Y14105D01*
X38060Y14127D01*
X38095Y14151D01*
X38128Y14177D01*
X38159Y14206D01*
X38188Y14237D01*
X38214Y14270D01*
X38238Y14305D01*
X38260Y14341D01*
X38279Y14379D01*
X38295Y14418D01*
X38308Y14458D01*
X38319Y14499D01*
X38326Y14541D01*
X38331Y14583D01*
X38333Y14625D01*
X38331Y14667D01*
X38326Y14709D01*
X38319Y14751D01*
X38308Y14792D01*
X38295Y14832D01*
X38279Y14871D01*
X38260Y14909D01*
X38238Y14945D01*
X38214Y14980D01*
X38188Y15013D01*
X38159Y15044D01*
X38128Y15073D01*
X38095Y15099D01*
X38060Y15124D01*
X38024Y15145D01*
X37986Y15164D01*
X37947Y15180D01*
X37907Y15194D01*
X37866Y15204D01*
X37824Y15212D01*
X37782Y15216D01*
X37740Y15218D01*
D02*
G37*
G36*
X16986Y10307D02*
X16479D01*
X16460Y10306D01*
X16441Y10301D01*
X16423Y10294D01*
X16407Y10284D01*
X16392Y10271D01*
X16380Y10257D01*
X16370Y10240D01*
X16362Y10222D01*
X16358Y10204D01*
X16356Y10185D01*
Y10052D01*
X16358Y10033D01*
X16362Y10014D01*
X16370Y9996D01*
X16380Y9980D01*
X16392Y9965D01*
X16407Y9953D01*
X16423Y9942D01*
X16441Y9935D01*
X16460Y9931D01*
X16479Y9929D01*
X16986D01*
X17005Y9931D01*
X17024Y9935D01*
X17041Y9942D01*
X17058Y9953D01*
X17072Y9965D01*
X17085Y9980D01*
X17095Y9996D01*
X17102Y10014D01*
X17107Y10033D01*
X17108Y10052D01*
Y10185D01*
X17107Y10204D01*
X17102Y10222D01*
X17095Y10240D01*
X17085Y10257D01*
X17072Y10271D01*
X17058Y10284D01*
X17041Y10294D01*
X17024Y10301D01*
X17005Y10306D01*
X16986Y10307D01*
D02*
G37*
G36*
X13976Y5218D02*
X13947Y5217D01*
X13918Y5213D01*
X13890Y5206D01*
X13863Y5196D01*
X13836Y5183D01*
X13811Y5168D01*
X13788Y5151D01*
X13766Y5131D01*
X13747Y5110D01*
X13729Y5086D01*
X13714Y5061D01*
X13702Y5035D01*
X13692Y5008D01*
X13685Y4979D01*
X13681Y4950D01*
X13679Y4921D01*
X13681Y4892D01*
X13685Y4863D01*
X13692Y4835D01*
X13702Y4808D01*
X13714Y4781D01*
X13729Y4756D01*
X13747Y4733D01*
X13766Y4711D01*
X13788Y4692D01*
X13811Y4674D01*
X13836Y4659D01*
X13863Y4647D01*
X13890Y4637D01*
X13918Y4630D01*
X13947Y4625D01*
X13976Y4624D01*
X14006Y4625D01*
X14034Y4630D01*
X14063Y4637D01*
X14090Y4647D01*
X14116Y4659D01*
X14141Y4674D01*
X14165Y4692D01*
X14187Y4711D01*
X14206Y4733D01*
X14224Y4756D01*
X14238Y4781D01*
X14251Y4808D01*
X14261Y4835D01*
X14268Y4863D01*
X14272Y4892D01*
X14274Y4921D01*
X14272Y4950D01*
X14268Y4979D01*
X14261Y5008D01*
X14251Y5035D01*
X14238Y5061D01*
X14224Y5086D01*
X14206Y5110D01*
X14187Y5131D01*
X14165Y5151D01*
X14141Y5168D01*
X14116Y5183D01*
X14090Y5196D01*
X14063Y5206D01*
X14034Y5213D01*
X14006Y5217D01*
X13976Y5218D01*
D02*
G37*
G36*
X37736Y5370D02*
X37694Y5369D01*
X37652Y5364D01*
X37610Y5357D01*
X37569Y5346D01*
X37529Y5333D01*
X37490Y5317D01*
X37452Y5298D01*
X37416Y5276D01*
X37381Y5252D01*
X37348Y5225D01*
X37317Y5197D01*
X37288Y5166D01*
X37262Y5133D01*
X37238Y5098D01*
X37216Y5062D01*
X37197Y5024D01*
X37181Y4985D01*
X37168Y4944D01*
X37157Y4904D01*
X37150Y4862D01*
X37145Y4820D01*
X37144Y4778D01*
X37145Y4735D01*
X37150Y4693D01*
X37157Y4652D01*
X37168Y4611D01*
X37181Y4570D01*
X37197Y4531D01*
X37216Y4494D01*
X37238Y4457D01*
X37262Y4422D01*
X37288Y4390D01*
X37317Y4359D01*
X37348Y4330D01*
X37381Y4303D01*
X37416Y4279D01*
X37452Y4258D01*
X37490Y4239D01*
X37529Y4222D01*
X37569Y4209D01*
X37610Y4199D01*
X37652Y4191D01*
X37694Y4187D01*
X37736Y4185D01*
X37778Y4187D01*
X37821Y4191D01*
X37862Y4199D01*
X37903Y4209D01*
X37943Y4222D01*
X37982Y4239D01*
X38020Y4258D01*
X38057Y4279D01*
X38091Y4303D01*
X38124Y4330D01*
X38155Y4359D01*
X38184Y4390D01*
X38211Y4422D01*
X38235Y4457D01*
X38256Y4494D01*
X38275Y4531D01*
X38291Y4570D01*
X38305Y4611D01*
X38315Y4652D01*
X38323Y4693D01*
X38327Y4735D01*
X38329Y4778D01*
X38327Y4820D01*
X38323Y4862D01*
X38315Y4904D01*
X38305Y4944D01*
X38291Y4985D01*
X38275Y5024D01*
X38256Y5062D01*
X38235Y5098D01*
X38211Y5133D01*
X38184Y5166D01*
X38155Y5197D01*
X38124Y5225D01*
X38091Y5252D01*
X38057Y5276D01*
X38020Y5298D01*
X37982Y5317D01*
X37943Y5333D01*
X37903Y5346D01*
X37862Y5357D01*
X37821Y5364D01*
X37778Y5369D01*
X37736Y5370D01*
D02*
G37*
G36*
X32736D02*
X32694Y5369D01*
X32652Y5364D01*
X32610Y5357D01*
X32569Y5346D01*
X32529Y5333D01*
X32490Y5317D01*
X32452Y5298D01*
X32416Y5276D01*
X32381Y5252D01*
X32348Y5225D01*
X32317Y5197D01*
X32288Y5166D01*
X32262Y5133D01*
X32238Y5098D01*
X32216Y5062D01*
X32197Y5024D01*
X32181Y4985D01*
X32168Y4944D01*
X32157Y4904D01*
X32150Y4862D01*
X32145Y4820D01*
X32144Y4778D01*
X32145Y4735D01*
X32150Y4693D01*
X32157Y4652D01*
X32168Y4611D01*
X32181Y4570D01*
X32197Y4531D01*
X32216Y4494D01*
X32238Y4457D01*
X32262Y4422D01*
X32288Y4390D01*
X32317Y4359D01*
X32348Y4330D01*
X32381Y4303D01*
X32416Y4279D01*
X32452Y4258D01*
X32490Y4239D01*
X32529Y4222D01*
X32569Y4209D01*
X32610Y4199D01*
X32652Y4191D01*
X32694Y4187D01*
X32736Y4185D01*
X32778Y4187D01*
X32821Y4191D01*
X32862Y4199D01*
X32903Y4209D01*
X32943Y4222D01*
X32982Y4239D01*
X33020Y4258D01*
X33057Y4279D01*
X33091Y4303D01*
X33124Y4330D01*
X33155Y4359D01*
X33184Y4390D01*
X33211Y4422D01*
X33235Y4457D01*
X33256Y4494D01*
X33275Y4531D01*
X33291Y4570D01*
X33305Y4611D01*
X33315Y4652D01*
X33323Y4693D01*
X33327Y4735D01*
X33329Y4778D01*
X33327Y4820D01*
X33323Y4862D01*
X33315Y4904D01*
X33305Y4944D01*
X33291Y4985D01*
X33275Y5024D01*
X33256Y5062D01*
X33235Y5098D01*
X33211Y5133D01*
X33184Y5166D01*
X33155Y5197D01*
X33124Y5225D01*
X33091Y5252D01*
X33057Y5276D01*
X33020Y5298D01*
X32982Y5317D01*
X32943Y5333D01*
X32903Y5346D01*
X32862Y5357D01*
X32821Y5364D01*
X32778Y5369D01*
X32736Y5370D01*
D02*
G37*
G36*
X39764Y3250D02*
X39701Y3248D01*
X39638Y3244D01*
X39576Y3236D01*
X39514Y3225D01*
X39452Y3212D01*
X39392Y3195D01*
X39332Y3175D01*
X39273Y3152D01*
X39216Y3127D01*
X39160Y3099D01*
X39105Y3068D01*
X39052Y3034D01*
X39000Y2998D01*
X38951Y2959D01*
X38903Y2918D01*
X38858Y2875D01*
X38814Y2829D01*
X38773Y2781D01*
X38734Y2732D01*
X38698Y2680D01*
X38665Y2627D01*
X38634Y2573D01*
X38605Y2516D01*
X38580Y2459D01*
X38557Y2400D01*
X38537Y2341D01*
X38521Y2280D01*
X38507Y2219D01*
X38496Y2157D01*
X38488Y2094D01*
X38484Y2031D01*
X38482Y1969D01*
X38484Y1906D01*
X38488Y1843D01*
X38496Y1780D01*
X38507Y1718D01*
X38521Y1657D01*
X38537Y1597D01*
X38557Y1537D01*
X38580Y1478D01*
X38605Y1421D01*
X38634Y1364D01*
X38665Y1310D01*
X38698Y1257D01*
X38734Y1205D01*
X38773Y1156D01*
X38814Y1108D01*
X38858Y1062D01*
X38903Y1019D01*
X38951Y978D01*
X39000Y939D01*
X39052Y903D01*
X39105Y869D01*
X39160Y838D01*
X39216Y810D01*
X39273Y785D01*
X39332Y762D01*
X39392Y742D01*
X39452Y725D01*
X39514Y712D01*
X39576Y701D01*
X39638Y693D01*
X39701Y689D01*
X39764Y687D01*
X39827Y689D01*
X39889Y693D01*
X39952Y701D01*
X40014Y712D01*
X40075Y725D01*
X40136Y742D01*
X40195Y762D01*
X40254Y785D01*
X40312Y810D01*
X40368Y838D01*
X40423Y869D01*
X40476Y903D01*
X40527Y939D01*
X40577Y978D01*
X40624Y1019D01*
X40670Y1062D01*
X40713Y1108D01*
X40754Y1156D01*
X40793Y1205D01*
X40829Y1257D01*
X40863Y1310D01*
X40894Y1364D01*
X40922Y1421D01*
X40948Y1478D01*
X40970Y1537D01*
X40990Y1597D01*
X41007Y1657D01*
X41021Y1718D01*
X41031Y1780D01*
X41039Y1843D01*
X41044Y1906D01*
X41045Y1969D01*
X41044Y2031D01*
X41039Y2094D01*
X41031Y2157D01*
X41021Y2219D01*
X41007Y2280D01*
X40990Y2341D01*
X40970Y2400D01*
X40948Y2459D01*
X40922Y2516D01*
X40894Y2573D01*
X40863Y2627D01*
X40829Y2680D01*
X40793Y2732D01*
X40754Y2781D01*
X40713Y2829D01*
X40670Y2875D01*
X40624Y2918D01*
X40577Y2959D01*
X40527Y2998D01*
X40476Y3034D01*
X40423Y3068D01*
X40368Y3099D01*
X40312Y3127D01*
X40254Y3152D01*
X40195Y3175D01*
X40136Y3195D01*
X40075Y3212D01*
X40014Y3225D01*
X39952Y3236D01*
X39889Y3244D01*
X39827Y3248D01*
X39764Y3250D01*
D02*
G37*
G36*
X1969D02*
X1906Y3248D01*
X1843Y3244D01*
X1780Y3236D01*
X1718Y3225D01*
X1657Y3212D01*
X1597Y3195D01*
X1537Y3175D01*
X1478Y3152D01*
X1421Y3127D01*
X1364Y3099D01*
X1310Y3068D01*
X1257Y3034D01*
X1205Y2998D01*
X1156Y2959D01*
X1108Y2918D01*
X1062Y2875D01*
X1019Y2829D01*
X978Y2781D01*
X939Y2732D01*
X903Y2680D01*
X869Y2627D01*
X838Y2573D01*
X810Y2516D01*
X785Y2459D01*
X762Y2400D01*
X742Y2341D01*
X725Y2280D01*
X712Y2219D01*
X701Y2157D01*
X693Y2094D01*
X689Y2031D01*
X687Y1969D01*
X689Y1906D01*
X693Y1843D01*
X701Y1780D01*
X712Y1718D01*
X725Y1657D01*
X742Y1597D01*
X762Y1537D01*
X785Y1478D01*
X810Y1421D01*
X838Y1364D01*
X869Y1310D01*
X903Y1257D01*
X939Y1205D01*
X978Y1156D01*
X1019Y1108D01*
X1062Y1062D01*
X1108Y1019D01*
X1156Y978D01*
X1205Y939D01*
X1257Y903D01*
X1310Y869D01*
X1364Y838D01*
X1421Y810D01*
X1478Y785D01*
X1537Y762D01*
X1597Y742D01*
X1657Y725D01*
X1718Y712D01*
X1780Y701D01*
X1843Y693D01*
X1906Y689D01*
X1969Y687D01*
X2031Y689D01*
X2094Y693D01*
X2157Y701D01*
X2219Y712D01*
X2280Y725D01*
X2341Y742D01*
X2400Y762D01*
X2459Y785D01*
X2516Y810D01*
X2573Y838D01*
X2627Y869D01*
X2680Y903D01*
X2732Y939D01*
X2781Y978D01*
X2829Y1019D01*
X2875Y1062D01*
X2918Y1108D01*
X2959Y1156D01*
X2998Y1205D01*
X3034Y1257D01*
X3068Y1310D01*
X3099Y1364D01*
X3127Y1421D01*
X3152Y1478D01*
X3175Y1537D01*
X3195Y1597D01*
X3212Y1657D01*
X3225Y1718D01*
X3236Y1780D01*
X3244Y1843D01*
X3248Y1906D01*
X3250Y1969D01*
X3248Y2031D01*
X3244Y2094D01*
X3236Y2157D01*
X3225Y2219D01*
X3212Y2280D01*
X3195Y2341D01*
X3175Y2400D01*
X3152Y2459D01*
X3127Y2516D01*
X3099Y2573D01*
X3068Y2627D01*
X3034Y2680D01*
X2998Y2732D01*
X2959Y2781D01*
X2918Y2829D01*
X2875Y2875D01*
X2829Y2918D01*
X2781Y2959D01*
X2732Y2998D01*
X2680Y3034D01*
X2627Y3068D01*
X2573Y3099D01*
X2516Y3127D01*
X2459Y3152D01*
X2400Y3175D01*
X2341Y3195D01*
X2280Y3212D01*
X2219Y3225D01*
X2157Y3236D01*
X2094Y3244D01*
X2031Y3248D01*
X1969Y3250D01*
D02*
G37*
%LPD*%
G36*
X23725Y24700D02*
X24213Y24213D01*
X24213Y18504D01*
X23819Y18110D01*
X21850D01*
X21457Y17717D01*
Y15354D01*
X21260Y15157D01*
X19983D01*
X19980Y15160D01*
Y14320D01*
X20100Y14200D01*
Y13730D01*
X20008Y13639D01*
X19724D01*
X19711Y13636D01*
X19471D01*
X19423Y13626D01*
X19384Y13600D01*
X18940D01*
X18780Y13760D01*
Y14984D01*
X18400Y15364D01*
Y17240D01*
X18180Y17460D01*
X17442D01*
X16720Y18182D01*
Y19780D01*
X17050Y20160D01*
X17920D01*
X18300Y19780D01*
X18960D01*
X19980Y21200D01*
X21200D01*
X21600Y21700D01*
Y22300D01*
X21200Y22900D01*
X13750D01*
X13200Y22527D01*
Y17500D01*
X13025D01*
X13010Y17550D01*
X13031Y17564D01*
X13071Y17624D01*
X13086Y17695D01*
X13071Y17766D01*
X13031Y17826D01*
X12971Y17867D01*
X12900Y17881D01*
X12861D01*
X12790Y17867D01*
X12729Y17826D01*
X12689Y17766D01*
X12675Y17695D01*
X12689Y17624D01*
X12729Y17564D01*
X12750Y17550D01*
X12735Y17500D01*
X7950D01*
X7350Y16900D01*
Y4450D01*
X7950Y3850D01*
X17981D01*
X18260Y4296D01*
X18260Y7900D01*
X18340Y7980D01*
X18420Y8040D01*
X18917Y8537D01*
Y10564D01*
X19021Y10720D01*
X19400D01*
X19423Y10704D01*
X19471Y10695D01*
X19978D01*
X20005Y10700D01*
X20038D01*
X20079Y10679D01*
Y7041D01*
X20080Y7040D01*
Y6164D01*
X20136D01*
Y2342D01*
X20128D01*
X19304Y1518D01*
X19293Y1529D01*
X6121D01*
X4750Y2900D01*
Y19450D01*
X5650Y20350D01*
X5700Y20300D01*
X9250D01*
X10050Y21100D01*
Y24250D01*
X10500Y24700D01*
X23725Y24700D01*
D02*
G37*
G36*
X33858Y21654D02*
Y19882D01*
X30118Y16142D01*
X28329D01*
X28307Y16146D01*
X27992D01*
X27970Y16142D01*
X24409D01*
X24213Y16339D01*
Y17520D01*
X24409Y17717D01*
X27589D01*
X31919Y22047D01*
X33465D01*
X33858Y21654D01*
D02*
G37*
G36*
X38976D02*
Y20276D01*
X33606Y14906D01*
X33378Y14677D01*
X33329Y14699D01*
X33309Y14798D01*
X33265Y14906D01*
X33200Y15003D01*
X33117Y15085D01*
X33020Y15150D01*
X32913Y15194D01*
X32798Y15217D01*
X32682D01*
X32567Y15194D01*
X32460Y15150D01*
X32363Y15085D01*
X32280Y15003D01*
X32215Y14906D01*
X32171Y14798D01*
X32148Y14683D01*
Y14567D01*
X32171Y14452D01*
X32215Y14345D01*
X32280Y14248D01*
X32363Y14165D01*
X32460Y14100D01*
X32567Y14056D01*
X32666Y14036D01*
X32688Y13987D01*
X31476Y12776D01*
X24426D01*
Y12778D01*
X24213Y12992D01*
Y13976D01*
X24409Y14173D01*
X27490D01*
X27756Y14439D01*
Y15945D01*
X27851Y16040D01*
X27970D01*
X27980Y16042D01*
X27990D01*
X28002Y16044D01*
X28297D01*
X28309Y16042D01*
X28319D01*
X28329Y16040D01*
X30118D01*
X30157Y16048D01*
X30190Y16070D01*
X30262Y16142D01*
X30315D01*
X36220Y22047D01*
X38583D01*
X38976Y21654D01*
D02*
G37*
G36*
X24339Y16071D02*
X24350Y16061D01*
X24364Y16052D01*
X24378Y16046D01*
X24394Y16043D01*
X24409Y16041D01*
X27583D01*
X27607Y16027D01*
X27635Y15989D01*
X27656Y15945D01*
Y14784D01*
X27557Y14747D01*
X27514Y14796D01*
Y15143D01*
X27514Y15143D01*
X27520Y15160D01*
X27524Y15178D01*
X27525Y15197D01*
Y15511D01*
X27524Y15530D01*
X27520Y15548D01*
X27514Y15565D01*
X27506Y15581D01*
X27496Y15597D01*
X27484Y15610D01*
X27470Y15622D01*
X27455Y15632D01*
X27439Y15641D01*
X27421Y15646D01*
X27403Y15650D01*
X27385Y15651D01*
X27149D01*
X27131Y15650D01*
X27113Y15646D01*
X27096Y15641D01*
X27079Y15632D01*
X27064Y15622D01*
X27050Y15610D01*
X27038Y15597D01*
X27028Y15581D01*
X27020Y15565D01*
X27014Y15548D01*
X27010Y15530D01*
X27009Y15511D01*
Y15197D01*
X27010Y15178D01*
X27013Y15164D01*
Y14789D01*
X27008Y14784D01*
X26995Y14770D01*
X26985Y14755D01*
X26977Y14738D01*
X26971Y14721D01*
X26968Y14703D01*
X26967Y14685D01*
Y14449D01*
X26968Y14431D01*
X26971Y14413D01*
X26977Y14395D01*
X26985Y14379D01*
X26990Y14372D01*
X26979Y14325D01*
X26970Y14304D01*
X26946Y14274D01*
X24991D01*
X24974Y14281D01*
X24955Y14285D01*
X24935Y14287D01*
X24474D01*
X24455Y14285D01*
X24435Y14281D01*
X24418Y14274D01*
X24409D01*
X24394Y14272D01*
X24378Y14269D01*
X24364Y14263D01*
X24350Y14254D01*
X24339Y14244D01*
X24149Y14054D01*
X24111Y14058D01*
X24080Y14069D01*
X24050Y14089D01*
Y14150D01*
X24049Y14166D01*
X24045Y14181D01*
X24039Y14196D01*
X24031Y14209D01*
X24021Y14221D01*
X23871Y14371D01*
X23859Y14381D01*
X23846Y14389D01*
X23831Y14395D01*
X23816Y14399D01*
X23800Y14400D01*
X23348D01*
X23310Y14491D01*
X24084Y15265D01*
X24094Y15277D01*
X24103Y15290D01*
X24109Y15305D01*
X24112Y15320D01*
X24113Y15336D01*
Y16157D01*
X24212Y16197D01*
X24339Y16071D01*
D02*
G37*
G36*
X24013Y15336D02*
X21956Y13279D01*
Y13275D01*
X21297D01*
X21272Y13250D01*
X21248D01*
X21209Y13242D01*
X21176Y13220D01*
X21052Y13096D01*
X20053D01*
X20026Y13115D01*
X19978Y13124D01*
X19471D01*
X19449Y13171D01*
Y13207D01*
X19471Y13254D01*
X19978D01*
X20026Y13263D01*
X20032Y13267D01*
X20085D01*
X20136Y13278D01*
X20192D01*
X20193Y13276D01*
X21090Y14173D01*
X21850D01*
Y14427D01*
X21855Y14449D01*
Y14685D01*
X21850Y14707D01*
Y17323D01*
X22253Y17726D01*
X24013D01*
Y15336D01*
D02*
G37*
G36*
X23950Y14150D02*
Y12850D01*
X23689Y12589D01*
X21834D01*
X21813Y12620D01*
X21767Y12651D01*
X21713Y12662D01*
X21398D01*
X21343Y12651D01*
X21297Y12620D01*
X21288Y12607D01*
X20005D01*
X19978Y12612D01*
X19471D01*
X19449Y12659D01*
Y12696D01*
X19471Y12742D01*
X19978D01*
X20026Y12752D01*
X20058Y12773D01*
X20873D01*
X21248Y13148D01*
X21998D01*
X23150Y14300D01*
X23800D01*
X23950Y14150D01*
D02*
G37*
G36*
X34560Y11838D02*
Y9954D01*
X34026Y9420D01*
X24400D01*
X24311Y9475D01*
Y9571D01*
Y10735D01*
X24355D01*
X24560Y10860D01*
X27540D01*
X27760Y11080D01*
Y11740D01*
X28225Y12205D01*
X33353D01*
X34560Y11838D01*
D02*
G37*
G36*
X21430Y11050D02*
X23750D01*
X24101Y10699D01*
Y9551D01*
X23750Y9200D01*
X23050D01*
X21750Y10500D01*
X21300D01*
X20235Y11565D01*
X20047D01*
X20026Y11579D01*
X19978Y11589D01*
X19471D01*
X19449Y11635D01*
Y11672D01*
X19471Y11718D01*
X19978D01*
X20005Y11724D01*
X20756D01*
X21430Y11050D01*
D02*
G37*
G36*
X24189Y9426D02*
X24224Y9418D01*
X24225Y9417D01*
X24237Y9407D01*
X24240Y9404D01*
X24243Y9402D01*
X24246Y9399D01*
X24249Y9397D01*
X24252Y9394D01*
X24255Y9392D01*
X24258Y9390D01*
X24347Y9335D01*
X24351Y9333D01*
X24354Y9331D01*
X24358Y9329D01*
X24361Y9327D01*
X24365Y9326D01*
X24369Y9325D01*
X24373Y9324D01*
X24376Y9323D01*
X24380Y9322D01*
X24384Y9321D01*
X24388Y9321D01*
X24392Y9320D01*
X24396Y9320D01*
X24400Y9320D01*
X27548D01*
X27574Y9299D01*
X27574Y9299D01*
X27601Y9250D01*
X27605Y9241D01*
X27609Y9225D01*
X27608Y9221D01*
X27607Y9220D01*
X27607Y9218D01*
X27606Y9216D01*
X27606Y9210D01*
X27605Y9204D01*
X27605Y9202D01*
X27605Y9200D01*
Y8790D01*
X27518Y8735D01*
X27507Y8736D01*
X27502Y8744D01*
X27490Y8758D01*
X27476Y8770D01*
X27461Y8780D01*
X27444Y8788D01*
X27427Y8794D01*
X27409Y8797D01*
X27391Y8798D01*
X27155D01*
X27136Y8797D01*
X27118Y8794D01*
X27101Y8788D01*
X27085Y8780D01*
X27070Y8770D01*
X27056Y8758D01*
X27044Y8744D01*
X27034Y8729D01*
X27026Y8712D01*
X27020Y8695D01*
X27016Y8677D01*
X27015Y8659D01*
Y8344D01*
X27016Y8326D01*
X27020Y8308D01*
X27022Y8300D01*
Y8005D01*
X27021Y8005D01*
X27008Y7992D01*
X26995Y7979D01*
X26985Y7964D01*
X26977Y7947D01*
X26971Y7930D01*
X26968Y7912D01*
X26967Y7894D01*
Y7657D01*
X26909Y7595D01*
X26902Y7590D01*
X26881Y7580D01*
X24380D01*
X24364Y7579D01*
X24349Y7575D01*
X24334Y7569D01*
X24321Y7561D01*
X24309Y7551D01*
X24235Y7477D01*
X24200Y7480D01*
X24171Y7490D01*
X24137Y7512D01*
Y8014D01*
X24136Y8029D01*
X24132Y8044D01*
X24126Y8059D01*
X24118Y8072D01*
X24107Y8084D01*
X23183Y9009D01*
X23221Y9100D01*
X23750D01*
X23766Y9101D01*
X23781Y9105D01*
X23796Y9111D01*
X23809Y9119D01*
X23821Y9129D01*
X24119Y9427D01*
X24151Y9433D01*
X24189Y9426D01*
D02*
G37*
G36*
X38860Y11748D02*
Y10565D01*
X38860Y7121D01*
X37347Y5860D01*
X24440D01*
X24300Y6074D01*
Y7400D01*
X24380Y7480D01*
X27600D01*
X27705Y7615D01*
Y9200D01*
X27798Y9318D01*
X34026D01*
X34036Y9320D01*
X34280D01*
X34750Y9790D01*
Y11779D01*
X35180Y12209D01*
X38260D01*
X38860Y11748D01*
D02*
G37*
G36*
X21228Y10428D02*
X21257Y10409D01*
X21345Y10320D01*
X21730D01*
X24036Y8014D01*
Y5986D01*
X23700Y5650D01*
X22700D01*
X22350Y6000D01*
Y8322D01*
X21841Y9550D01*
X21300D01*
X21086Y9764D01*
Y10250D01*
X21071Y10321D01*
X21031Y10381D01*
X20395Y11017D01*
X20335Y11057D01*
X20264Y11071D01*
X20005D01*
X19978Y11077D01*
X19471D01*
X19449Y11123D01*
Y11160D01*
X19471Y11207D01*
X19978D01*
X20026Y11216D01*
X20040Y11226D01*
X20430D01*
X21228Y10428D01*
D02*
G37*
D11*
X25689Y18012D02*
G03*
X25546Y18071I-143J-143D01*
G01*
X17441Y21234D02*
G03*
X17480Y21329I-95J95D01*
G01*
X17520Y16752D02*
G03*
X17377Y16811I-143J-143D01*
G01*
X20295Y14724D02*
X20748D01*
X20276Y14744D02*
X20295Y14724D01*
X27264Y7776D02*
X27273Y7785D01*
X20374Y8602D02*
X20377Y8600D01*
Y8055D02*
X20380Y8052D01*
X20377Y8055D02*
Y8600D01*
X20374Y9350D02*
X20386Y9363D01*
Y9855D02*
X20399Y9867D01*
X20386Y9363D02*
Y9855D01*
X3996Y14620D02*
X4008Y14608D01*
X20472Y22146D02*
X20500Y22118D01*
X25551Y7883D02*
X25689Y7776D01*
X27165Y7874D02*
X27264Y7776D01*
D17*
X25689Y17421D02*
D03*
Y18012D02*
D03*
Y14567D02*
D03*
Y13976D02*
D03*
X13600Y13905D02*
D03*
Y14495D02*
D03*
X13800Y12305D02*
D03*
Y12895D02*
D03*
X13000Y12895D02*
D03*
Y12305D02*
D03*
X12900Y17105D02*
D03*
Y17695D02*
D03*
X27264Y17421D02*
D03*
Y18012D02*
D03*
Y14567D02*
D03*
Y13976D02*
D03*
X28150Y16476D02*
D03*
Y15886D02*
D03*
X27264Y10630D02*
D03*
Y11220D02*
D03*
Y7776D02*
D03*
Y7185D02*
D03*
X28248Y9646D02*
D03*
Y9055D02*
D03*
X21555Y14567D02*
D03*
Y13976D02*
D03*
X26476Y18012D02*
D03*
Y17421D02*
D03*
X21555Y12402D02*
D03*
Y12992D02*
D03*
X26476Y13976D02*
D03*
Y14567D02*
D03*
X21555Y11417D02*
D03*
Y10827D02*
D03*
X25689Y11220D02*
D03*
Y10630D02*
D03*
X26476Y11220D02*
D03*
Y10630D02*
D03*
X21555Y9252D02*
D03*
Y9843D02*
D03*
X25689Y7185D02*
D03*
Y7776D02*
D03*
X26476Y7185D02*
D03*
Y7776D02*
D03*
D18*
X18228Y11122D02*
D03*
Y12953D02*
D03*
D19*
Y12037D02*
D03*
D20*
X19724Y13957D02*
D03*
Y13701D02*
D03*
Y13445D02*
D03*
Y13189D02*
D03*
Y12933D02*
D03*
Y12677D02*
D03*
Y12421D02*
D03*
Y12165D02*
D03*
Y11909D02*
D03*
Y11654D02*
D03*
Y11398D02*
D03*
Y11142D02*
D03*
Y10886D02*
D03*
Y10630D02*
D03*
Y10374D02*
D03*
Y10118D02*
D03*
X16732Y13957D02*
D03*
Y13701D02*
D03*
Y13445D02*
D03*
Y13189D02*
D03*
Y12933D02*
D03*
Y12677D02*
D03*
Y12421D02*
D03*
Y12165D02*
D03*
Y11909D02*
D03*
Y11654D02*
D03*
Y11398D02*
D03*
Y11142D02*
D03*
Y10886D02*
D03*
Y10630D02*
D03*
Y10374D02*
D03*
Y10118D02*
D03*
D21*
X19302Y6600D02*
D03*
X17098D02*
D03*
Y16752D02*
D03*
X19302D02*
D03*
D22*
X17441Y21234D02*
D03*
Y19671D02*
D03*
D23*
X26677Y15354D02*
D03*
X27267D02*
D03*
X27253Y18723D02*
D03*
X26663D02*
D03*
X19075Y9350D02*
D03*
X18484D02*
D03*
X13895Y11400D02*
D03*
X13305D02*
D03*
X14600Y9800D02*
D03*
X15191D02*
D03*
X19783Y9350D02*
D03*
X20374D02*
D03*
X19783Y8602D02*
D03*
X20374D02*
D03*
X19075D02*
D03*
X18484D02*
D03*
X18976Y14744D02*
D03*
X18386D02*
D03*
X19685D02*
D03*
X20276D02*
D03*
X17495Y9400D02*
D03*
X16905D02*
D03*
X14800Y12200D02*
D03*
X15391D02*
D03*
X26655Y11900D02*
D03*
X27245D02*
D03*
X27273Y8501D02*
D03*
X26682D02*
D03*
D24*
X15157Y13878D02*
D03*
X14488D02*
D03*
X15335Y13000D02*
D03*
X14665D02*
D03*
X15335Y11400D02*
D03*
X14665D02*
D03*
X15335Y10650D02*
D03*
X14665D02*
D03*
D25*
X24705Y16929D02*
D03*
X23524D02*
D03*
Y13517D02*
D03*
X24705D02*
D03*
Y10105D02*
D03*
X23524D02*
D03*
Y6693D02*
D03*
X24705D02*
D03*
D40*
X14323Y12220D02*
G03*
X14370Y12200I48J48D01*
G01*
X16732Y13445D02*
Y13701D01*
X16200Y13850D02*
X16349Y13701D01*
X16732D01*
X12900Y17105D02*
X12939D01*
X16194Y13850D01*
X16200D01*
X12861Y17695D02*
X12900D01*
X14292Y11851D02*
X15902D01*
X14041Y12103D02*
Y12106D01*
X13835Y12309D02*
X13915Y12229D01*
X13007Y12311D02*
X13835D01*
X15902Y11851D02*
X16216Y12165D01*
X13917Y12229D02*
X14041Y12106D01*
X13915Y12229D02*
X13917D01*
X13835Y12309D02*
Y12311D01*
X13835Y12311D02*
X13835Y12311D01*
X14041Y12103D02*
X14292Y11851D01*
X16216Y12165D02*
X16721D01*
X13800Y12895D02*
X13875Y12820D01*
X13986D02*
X14185Y12621D01*
X13875Y12820D02*
X13986D01*
X14185Y12621D02*
X15009D01*
X16304Y10654D02*
Y11024D01*
X16407Y11126D02*
X16642D01*
X15950Y10300D02*
X16304Y10654D01*
Y11024D02*
X16407Y11126D01*
X15651Y10300D02*
X15950D01*
X15191Y9839D02*
X15651Y10300D01*
X15191Y9800D02*
Y9839D01*
X16236Y11391D02*
X16726D01*
X16732Y11398D01*
X16050Y11205D02*
X16236Y11391D01*
X16050Y10850D02*
Y11205D01*
X15335Y10650D02*
X15850D01*
X16050Y10850D01*
X13895Y11400D02*
X14665D01*
X13900Y10900D02*
Y11395D01*
X13895Y11400D02*
X13900Y11395D01*
X8996Y5996D02*
X13900Y10900D01*
X8996Y4778D02*
Y5996D01*
X16700Y13963D02*
X16707Y13957D01*
X16732D01*
X14370Y12200D02*
X14800D01*
X20264Y10886D02*
X20900Y10250D01*
X15628Y13958D02*
X16397Y13189D01*
X15237Y13958D02*
X15628D01*
X15157Y13878D02*
X15237Y13958D01*
X16397Y13189D02*
X16732D01*
X15894Y12933D02*
X16732D01*
X15335Y13000D02*
X15827D01*
X15894Y12933D01*
X15391Y12200D02*
X15892D01*
X16113Y12421D02*
X16732D01*
Y12677D01*
X15009Y12621D02*
X15391Y12239D01*
Y12200D02*
Y12239D01*
X15892Y12200D02*
X16113Y12421D01*
X15886Y11400D02*
X16139Y11654D01*
X15335Y11400D02*
X15886D01*
X16139Y11654D02*
X16732D01*
X19724Y13453D02*
X20085D01*
X21480Y14491D02*
X21555Y14567D01*
X21124Y14491D02*
X21480D01*
X20085Y13453D02*
X21124Y14491D01*
X19724Y13445D02*
Y13453D01*
X21535Y12421D02*
X21555Y12402D01*
X19724Y12421D02*
X21535D01*
X19724Y10886D02*
X20264D01*
X20900Y9589D02*
Y10250D01*
Y9589D02*
X21237Y9252D01*
X21555D01*
X12800Y11400D02*
X13305D01*
X8996Y14620D02*
X12845D01*
X13561Y13905D01*
X13600D01*
X13587Y13878D02*
X14488D01*
X14264Y13136D02*
X14530D01*
X14000Y13400D02*
X14264Y13136D01*
X13600Y14495D02*
X13624Y14519D01*
Y15027D01*
X13011Y12906D02*
Y13602D01*
X13000Y12895D02*
X13011Y12906D01*
X14530Y13136D02*
X14665Y13000D01*
X21024Y11909D02*
X21516Y11417D01*
X21555D01*
X19724Y11909D02*
X21024D01*
D41*
X26000Y23000D02*
D03*
X13976Y4921D02*
D03*
D42*
X27273Y7785D02*
Y8501D01*
X27245Y11861D02*
X27264Y11842D01*
X27245Y11861D02*
Y11900D01*
X27264Y14567D02*
Y15217D01*
X27261Y18622D02*
Y18716D01*
Y18622D02*
X27264Y18619D01*
Y18012D02*
Y18619D01*
X27253Y18723D02*
X27261Y18716D01*
D43*
X27264Y11220D02*
Y11842D01*
X17495Y9350D02*
X18484D01*
D44*
X37736Y4778D02*
D03*
Y11167D02*
D03*
X32736Y4778D02*
D03*
Y11167D02*
D03*
X8996Y14620D02*
D03*
Y21010D02*
D03*
X3996Y14620D02*
D03*
Y21010D02*
D03*
X8996Y4778D02*
D03*
Y11167D02*
D03*
X3996Y4778D02*
D03*
Y11167D02*
D03*
X32740Y21015D02*
D03*
Y14625D02*
D03*
X37740Y21015D02*
D03*
Y14625D02*
D03*
D45*
X1969Y23622D02*
D03*
Y1969D02*
D03*
X39764Y23622D02*
D03*
Y1969D02*
D03*
D46*
X18661Y20846D02*
D03*
D47*
X20472Y22146D02*
D03*
Y19744D02*
D03*
D48*
X15500Y17700D02*
D03*
Y19000D02*
D03*
X14100Y19050D02*
D03*
X15600Y20500D02*
D03*
X14050Y20550D02*
D03*
X15600Y21950D02*
D03*
X14150Y21850D02*
D03*
X15500Y6700D02*
D03*
X16250Y7550D02*
D03*
X16800Y8600D02*
D03*
X16000Y8750D02*
D03*
X24600Y19450D02*
D03*
X37150Y13450D02*
D03*
X33850Y13550D02*
D03*
X35433Y13583D02*
D03*
X34850Y1750D02*
D03*
X29850Y2100D02*
D03*
X27050Y4450D02*
D03*
X30050Y4100D02*
D03*
X32750Y2300D02*
D03*
X36450Y2800D02*
D03*
X35100Y5400D02*
D03*
X41100Y5100D02*
D03*
X40750Y6500D02*
D03*
X40850Y7550D02*
D03*
X40900Y8800D02*
D03*
X40650Y10200D02*
D03*
X40750Y11750D02*
D03*
X40800Y13100D02*
D03*
X40350Y16250D02*
D03*
X40500Y18250D02*
D03*
X40550Y19950D02*
D03*
X40250Y21750D02*
D03*
X26100Y21300D02*
D03*
X28750Y20800D02*
D03*
X35050Y23850D02*
D03*
X31250Y23000D02*
D03*
X28300Y22500D02*
D03*
X36250Y24950D02*
D03*
X33050Y24850D02*
D03*
X29950Y24750D02*
D03*
X27050Y24550D02*
D03*
X23700Y25200D02*
D03*
X20700Y25150D02*
D03*
X17000D02*
D03*
X13350Y25100D02*
D03*
X9550Y25050D02*
D03*
X24900Y4900D02*
D03*
X22150Y2150D02*
D03*
X20850Y2250D02*
D03*
X22150Y3500D02*
D03*
X20850Y3550D02*
D03*
X22150Y4900D02*
D03*
X20800D02*
D03*
X22100Y6200D02*
D03*
X20800Y6250D02*
D03*
X22100Y7500D02*
D03*
X20800D02*
D03*
X11150Y4250D02*
D03*
X16900D02*
D03*
X15500D02*
D03*
X14100D02*
D03*
X12550D02*
D03*
X14050Y5650D02*
D03*
X12550Y5700D02*
D03*
X14000Y7050D02*
D03*
X12550Y7100D02*
D03*
X13950Y8450D02*
D03*
X12550Y8500D02*
D03*
X11800Y10500D02*
D03*
Y11850D02*
D03*
X12500Y15450D02*
D03*
X11150D02*
D03*
X20300Y950D02*
D03*
X19000D02*
D03*
X17650D02*
D03*
X16250D02*
D03*
X15000D02*
D03*
X13650D02*
D03*
X12300D02*
D03*
X10900D02*
D03*
X9650D02*
D03*
X8350Y900D02*
D03*
X7050D02*
D03*
X5700D02*
D03*
X4300D02*
D03*
X8900Y7550D02*
D03*
X10850Y9400D02*
D03*
X8900Y9350D02*
D03*
X10850Y12850D02*
D03*
X8900D02*
D03*
X10850Y16350D02*
D03*
X8900Y16300D02*
D03*
X1450Y5200D02*
D03*
X2850Y6900D02*
D03*
X1400D02*
D03*
X2900Y8450D02*
D03*
X1400Y8500D02*
D03*
X3000Y10150D02*
D03*
X1450Y10100D02*
D03*
X2950Y13250D02*
D03*
X1450Y13300D02*
D03*
X1400Y14900D02*
D03*
X2850Y16350D02*
D03*
X1400Y16300D02*
D03*
X2850Y17500D02*
D03*
X1450Y17600D02*
D03*
X2850Y18800D02*
D03*
X1450Y18900D02*
D03*
X2850Y20150D02*
D03*
X1500Y20100D02*
D03*
X1550Y21150D02*
D03*
X8800Y22650D02*
D03*
X7500D02*
D03*
X6300Y22600D02*
D03*
X5050D02*
D03*
X8800Y23700D02*
D03*
X7500D02*
D03*
X6300D02*
D03*
X5000Y23650D02*
D03*
X16700Y14400D02*
D03*
X17350Y10800D02*
D03*
Y10450D02*
D03*
X17800Y8400D02*
D03*
X18800Y12600D02*
D03*
X18393Y11812D02*
D03*
X18800Y11400D02*
D03*
X17593Y11812D02*
D03*
X17993D02*
D03*
X17600Y11400D02*
D03*
X18000D02*
D03*
X18400D02*
D03*
X18793Y11812D02*
D03*
X17600Y12200D02*
D03*
X18000D02*
D03*
X18400Y12600D02*
D03*
X18000D02*
D03*
X17600D02*
D03*
X18400Y14200D02*
D03*
X20380Y8052D02*
D03*
X20399Y9867D02*
D03*
X26000Y18700D02*
D03*
X12800Y11400D02*
D03*
X14000Y13400D02*
D03*
X25600Y11900D02*
D03*
X13624Y15027D02*
D03*
X13011Y13602D02*
D03*
X25750Y15300D02*
D03*
X15800Y5750D02*
D03*
X15000Y7600D02*
D03*
X15050Y8950D02*
D03*
X17800Y8800D02*
D03*
X16400Y16400D02*
D03*
Y16800D02*
D03*
X17400Y22000D02*
D03*
X17000D02*
D03*
X14124Y10642D02*
D03*
X16200Y9400D02*
D03*
X16400Y17200D02*
D03*
X25900Y8700D02*
D03*
X26053Y15435D02*
D03*
X25800Y19000D02*
D03*
X25500Y8550D02*
D03*
X25900Y8350D02*
D03*
X25950Y12100D02*
D03*
Y11750D02*
D03*
X26050Y15150D02*
D03*
X25550Y18700D02*
D03*
X20748Y14724D02*
D03*
X14103Y9780D02*
D03*
X14323Y12220D02*
D03*
X17800Y22000D02*
D03*
M02*
