G04*
G04 #@! TF.GenerationSoftware,Altium Limited,Altium Designer,23.1.1 (15)*
G04*
G04 Layer_Physical_Order=2*
G04 Layer_Color=16711680*
%FSLAX24Y24*%
%MOIN*%
G70*
G04*
G04 #@! TF.SameCoordinates,52EA1FD8-E69D-4759-9217-C2292DA48D7E*
G04*
G04*
G04 #@! TF.FilePolarity,Positive*
G04*
G01*
G75*
%ADD44C,0.0984*%
%ADD45C,0.2362*%
%ADD46O,0.0787X0.1654*%
%ADD47O,0.1654X0.0787*%
%ADD48C,0.0200*%
G36*
X41480Y24060D02*
Y1300D01*
Y1280D01*
X40600Y300D01*
X1480Y280D01*
X204Y1556D01*
X204Y24103D01*
X1480Y25360D01*
X39980D01*
X41480Y24060D01*
D02*
G37*
%LPC*%
G36*
X39865Y24903D02*
X39663D01*
X39464Y24872D01*
X39272Y24809D01*
X39092Y24718D01*
X38929Y24599D01*
X38787Y24457D01*
X38668Y24293D01*
X38577Y24114D01*
X38514Y23922D01*
X38483Y23723D01*
Y23521D01*
X38514Y23322D01*
X38577Y23130D01*
X38668Y22951D01*
X38787Y22787D01*
X38929Y22645D01*
X39092Y22526D01*
X39272Y22435D01*
X39464Y22372D01*
X39663Y22341D01*
X39865D01*
X40064Y22372D01*
X40256Y22435D01*
X40435Y22526D01*
X40598Y22645D01*
X40741Y22787D01*
X40859Y22951D01*
X40951Y23130D01*
X41013Y23322D01*
X41045Y23521D01*
Y23723D01*
X41013Y23922D01*
X40951Y24114D01*
X40859Y24293D01*
X40741Y24457D01*
X40598Y24599D01*
X40435Y24718D01*
X40256Y24809D01*
X40064Y24872D01*
X39865Y24903D01*
D02*
G37*
G36*
X2069D02*
X1868D01*
X1669Y24872D01*
X1477Y24809D01*
X1297Y24718D01*
X1134Y24599D01*
X991Y24457D01*
X873Y24293D01*
X781Y24114D01*
X719Y23922D01*
X687Y23723D01*
Y23521D01*
X719Y23322D01*
X781Y23130D01*
X873Y22951D01*
X991Y22787D01*
X1134Y22645D01*
X1297Y22526D01*
X1477Y22435D01*
X1669Y22372D01*
X1868Y22341D01*
X2069D01*
X2269Y22372D01*
X2460Y22435D01*
X2640Y22526D01*
X2803Y22645D01*
X2946Y22787D01*
X3064Y22951D01*
X3156Y23130D01*
X3218Y23322D01*
X3250Y23521D01*
Y23723D01*
X3218Y23922D01*
X3156Y24114D01*
X3064Y24293D01*
X2946Y24457D01*
X2803Y24599D01*
X2640Y24718D01*
X2460Y24809D01*
X2269Y24872D01*
X2069Y24903D01*
D02*
G37*
G36*
X37798Y21607D02*
X37682D01*
X37567Y21584D01*
X37460Y21540D01*
X37363Y21475D01*
X37280Y21392D01*
X37215Y21295D01*
X37171Y21188D01*
X37148Y21073D01*
Y20957D01*
X37171Y20842D01*
X37215Y20734D01*
X37280Y20637D01*
X37363Y20555D01*
X37460Y20490D01*
X37567Y20446D01*
X37682Y20423D01*
X37798D01*
X37913Y20446D01*
X38020Y20490D01*
X38117Y20555D01*
X38200Y20637D01*
X38265Y20734D01*
X38309Y20842D01*
X38332Y20957D01*
Y21073D01*
X38309Y21188D01*
X38265Y21295D01*
X38200Y21392D01*
X38117Y21475D01*
X38020Y21540D01*
X37913Y21584D01*
X37798Y21607D01*
D02*
G37*
G36*
X32798D02*
X32682D01*
X32567Y21584D01*
X32460Y21540D01*
X32363Y21475D01*
X32280Y21392D01*
X32215Y21295D01*
X32171Y21188D01*
X32148Y21073D01*
Y20957D01*
X32171Y20842D01*
X32215Y20734D01*
X32280Y20637D01*
X32363Y20555D01*
X32460Y20490D01*
X32567Y20446D01*
X32682Y20423D01*
X32798D01*
X32913Y20446D01*
X33020Y20490D01*
X33117Y20555D01*
X33200Y20637D01*
X33265Y20734D01*
X33309Y20842D01*
X33332Y20957D01*
Y21073D01*
X33309Y21188D01*
X33265Y21295D01*
X33200Y21392D01*
X33117Y21475D01*
X33020Y21540D01*
X32913Y21584D01*
X32798Y21607D01*
D02*
G37*
G36*
X20906Y20242D02*
X20039D01*
X19910Y20225D01*
X19790Y20175D01*
X19687Y20096D01*
X19608Y19993D01*
X19558Y19873D01*
X19541Y19744D01*
X19558Y19615D01*
X19608Y19495D01*
X19687Y19392D01*
X19790Y19313D01*
X19910Y19263D01*
X20039Y19246D01*
X20906D01*
X21034Y19263D01*
X21154Y19313D01*
X21258Y19392D01*
X21337Y19495D01*
X21386Y19615D01*
X21403Y19744D01*
X21386Y19873D01*
X21337Y19993D01*
X21258Y20096D01*
X21154Y20175D01*
X21034Y20225D01*
X20906Y20242D01*
D02*
G37*
G36*
X37798Y15217D02*
X37682D01*
X37567Y15194D01*
X37460Y15150D01*
X37363Y15085D01*
X37280Y15003D01*
X37215Y14906D01*
X37171Y14798D01*
X37148Y14683D01*
Y14567D01*
X37171Y14452D01*
X37215Y14345D01*
X37280Y14248D01*
X37363Y14165D01*
X37460Y14100D01*
X37567Y14056D01*
X37682Y14033D01*
X37798D01*
X37913Y14056D01*
X38020Y14100D01*
X38117Y14165D01*
X38200Y14248D01*
X38265Y14345D01*
X38309Y14452D01*
X38332Y14567D01*
Y14683D01*
X38309Y14798D01*
X38265Y14906D01*
X38200Y15003D01*
X38117Y15085D01*
X38020Y15150D01*
X37913Y15194D01*
X37798Y15217D01*
D02*
G37*
G36*
X32798D02*
X32682D01*
X32567Y15194D01*
X32460Y15150D01*
X32363Y15085D01*
X32280Y15003D01*
X32215Y14906D01*
X32171Y14798D01*
X32148Y14683D01*
Y14567D01*
X32171Y14452D01*
X32215Y14345D01*
X32280Y14248D01*
X32363Y14165D01*
X32460Y14100D01*
X32567Y14056D01*
X32682Y14033D01*
X32798D01*
X32913Y14056D01*
X33020Y14100D01*
X33117Y14165D01*
X33200Y14248D01*
X33265Y14345D01*
X33309Y14452D01*
X33332Y14567D01*
Y14683D01*
X33309Y14798D01*
X33265Y14906D01*
X33200Y15003D01*
X33117Y15085D01*
X33020Y15150D01*
X32913Y15194D01*
X32798Y15217D01*
D02*
G37*
G36*
X9054Y15212D02*
X8938D01*
X8823Y15189D01*
X8716Y15145D01*
X8619Y15080D01*
X8536Y14998D01*
X8471Y14901D01*
X8427Y14793D01*
X8404Y14678D01*
Y14562D01*
X8427Y14447D01*
X8471Y14340D01*
X8536Y14243D01*
X8619Y14160D01*
X8716Y14095D01*
X8823Y14051D01*
X8938Y14028D01*
X9054D01*
X9169Y14051D01*
X9277Y14095D01*
X9374Y14160D01*
X9456Y14243D01*
X9521Y14340D01*
X9565Y14447D01*
X9588Y14562D01*
Y14678D01*
X9565Y14793D01*
X9521Y14901D01*
X9456Y14998D01*
X9374Y15080D01*
X9277Y15145D01*
X9169Y15189D01*
X9054Y15212D01*
D02*
G37*
G36*
X37795Y11759D02*
X37678D01*
X37564Y11737D01*
X37456Y11692D01*
X37359Y11627D01*
X37276Y11545D01*
X37211Y11448D01*
X37167Y11340D01*
X37144Y11226D01*
Y11109D01*
X37167Y10995D01*
X37211Y10887D01*
X37276Y10790D01*
X37359Y10707D01*
X37456Y10643D01*
X37564Y10598D01*
X37678Y10575D01*
X37795D01*
X37909Y10598D01*
X38017Y10643D01*
X38114Y10707D01*
X38196Y10790D01*
X38261Y10887D01*
X38306Y10995D01*
X38328Y11109D01*
Y11226D01*
X38306Y11340D01*
X38261Y11448D01*
X38196Y11545D01*
X38114Y11627D01*
X38017Y11692D01*
X37909Y11737D01*
X37795Y11759D01*
D02*
G37*
G36*
X32795D02*
X32678D01*
X32564Y11737D01*
X32456Y11692D01*
X32359Y11627D01*
X32276Y11545D01*
X32211Y11448D01*
X32167Y11340D01*
X32144Y11226D01*
Y11109D01*
X32167Y10995D01*
X32211Y10887D01*
X32276Y10790D01*
X32359Y10707D01*
X32456Y10643D01*
X32564Y10598D01*
X32678Y10575D01*
X32795D01*
X32909Y10598D01*
X33017Y10643D01*
X33114Y10707D01*
X33196Y10790D01*
X33261Y10887D01*
X33306Y10995D01*
X33328Y11109D01*
Y11226D01*
X33306Y11340D01*
X33261Y11448D01*
X33196Y11545D01*
X33114Y11627D01*
X33017Y11692D01*
X32909Y11737D01*
X32795Y11759D01*
D02*
G37*
G36*
X37795Y5370D02*
X37678D01*
X37564Y5347D01*
X37456Y5302D01*
X37359Y5237D01*
X37276Y5155D01*
X37211Y5058D01*
X37167Y4950D01*
X37144Y4836D01*
Y4719D01*
X37167Y4605D01*
X37211Y4497D01*
X37276Y4400D01*
X37359Y4318D01*
X37456Y4253D01*
X37564Y4208D01*
X37678Y4185D01*
X37795D01*
X37909Y4208D01*
X38017Y4253D01*
X38114Y4318D01*
X38196Y4400D01*
X38261Y4497D01*
X38306Y4605D01*
X38328Y4719D01*
Y4836D01*
X38306Y4950D01*
X38261Y5058D01*
X38196Y5155D01*
X38114Y5237D01*
X38017Y5302D01*
X37909Y5347D01*
X37795Y5370D01*
D02*
G37*
G36*
X32795D02*
X32678D01*
X32564Y5347D01*
X32456Y5302D01*
X32359Y5237D01*
X32276Y5155D01*
X32211Y5058D01*
X32167Y4950D01*
X32144Y4836D01*
Y4719D01*
X32167Y4605D01*
X32211Y4497D01*
X32276Y4400D01*
X32359Y4318D01*
X32456Y4253D01*
X32564Y4208D01*
X32678Y4185D01*
X32795D01*
X32909Y4208D01*
X33017Y4253D01*
X33114Y4318D01*
X33196Y4400D01*
X33261Y4497D01*
X33306Y4605D01*
X33328Y4719D01*
Y4836D01*
X33306Y4950D01*
X33261Y5058D01*
X33196Y5155D01*
X33114Y5237D01*
X33017Y5302D01*
X32909Y5347D01*
X32795Y5370D01*
D02*
G37*
G36*
X9054D02*
X8938D01*
X8823Y5347D01*
X8716Y5302D01*
X8619Y5237D01*
X8536Y5155D01*
X8471Y5058D01*
X8427Y4950D01*
X8404Y4836D01*
Y4719D01*
X8427Y4605D01*
X8471Y4497D01*
X8536Y4400D01*
X8619Y4318D01*
X8716Y4253D01*
X8823Y4208D01*
X8938Y4185D01*
X9054D01*
X9169Y4208D01*
X9277Y4253D01*
X9374Y4318D01*
X9456Y4400D01*
X9521Y4497D01*
X9565Y4605D01*
X9588Y4719D01*
Y4836D01*
X9565Y4950D01*
X9521Y5058D01*
X9456Y5155D01*
X9374Y5237D01*
X9277Y5302D01*
X9169Y5347D01*
X9054Y5370D01*
D02*
G37*
G36*
X39865Y3250D02*
X39663D01*
X39464Y3218D01*
X39272Y3156D01*
X39092Y3064D01*
X38929Y2946D01*
X38787Y2803D01*
X38668Y2640D01*
X38577Y2460D01*
X38514Y2269D01*
X38483Y2069D01*
Y1868D01*
X38514Y1669D01*
X38577Y1477D01*
X38668Y1297D01*
X38787Y1134D01*
X38929Y991D01*
X39092Y873D01*
X39272Y781D01*
X39464Y719D01*
X39663Y687D01*
X39865D01*
X40064Y719D01*
X40256Y781D01*
X40435Y873D01*
X40598Y991D01*
X40741Y1134D01*
X40859Y1297D01*
X40951Y1477D01*
X41013Y1669D01*
X41045Y1868D01*
Y2069D01*
X41013Y2269D01*
X40951Y2460D01*
X40859Y2640D01*
X40741Y2803D01*
X40598Y2946D01*
X40435Y3064D01*
X40256Y3156D01*
X40064Y3218D01*
X39865Y3250D01*
D02*
G37*
G36*
X2069D02*
X1868D01*
X1669Y3218D01*
X1477Y3156D01*
X1297Y3064D01*
X1134Y2946D01*
X991Y2803D01*
X873Y2640D01*
X781Y2460D01*
X719Y2269D01*
X687Y2069D01*
Y1868D01*
X719Y1669D01*
X781Y1477D01*
X873Y1297D01*
X991Y1134D01*
X1134Y991D01*
X1297Y873D01*
X1477Y781D01*
X1669Y719D01*
X1868Y687D01*
X2069D01*
X2269Y719D01*
X2460Y781D01*
X2640Y873D01*
X2803Y991D01*
X2946Y1134D01*
X3064Y1297D01*
X3156Y1477D01*
X3218Y1669D01*
X3250Y1868D01*
Y2069D01*
X3218Y2269D01*
X3156Y2460D01*
X3064Y2640D01*
X2946Y2803D01*
X2803Y2946D01*
X2640Y3064D01*
X2460Y3156D01*
X2269Y3218D01*
X2069Y3250D01*
D02*
G37*
%LPD*%
D44*
X37736Y4778D02*
D03*
Y11167D02*
D03*
X32736Y4778D02*
D03*
Y11167D02*
D03*
X8996Y14620D02*
D03*
Y21010D02*
D03*
X3996Y14620D02*
D03*
Y21010D02*
D03*
X8996Y4778D02*
D03*
Y11167D02*
D03*
X3996Y4778D02*
D03*
Y11167D02*
D03*
X32740Y21015D02*
D03*
Y14625D02*
D03*
X37740Y21015D02*
D03*
Y14625D02*
D03*
D45*
X1969Y23622D02*
D03*
Y1969D02*
D03*
X39764Y23622D02*
D03*
Y1969D02*
D03*
D46*
X18661Y20846D02*
D03*
D47*
X20472Y22146D02*
D03*
Y19744D02*
D03*
D48*
X15500Y17700D02*
D03*
Y19000D02*
D03*
X14100Y19050D02*
D03*
X15600Y20500D02*
D03*
X14050Y20550D02*
D03*
X15600Y21950D02*
D03*
X14150Y21850D02*
D03*
X15500Y6700D02*
D03*
X16250Y7550D02*
D03*
X16800Y8600D02*
D03*
X16000Y8750D02*
D03*
X24600Y19450D02*
D03*
X37150Y13450D02*
D03*
X33850Y13550D02*
D03*
X35433Y13583D02*
D03*
X34850Y1750D02*
D03*
X29850Y2100D02*
D03*
X27050Y4450D02*
D03*
X30050Y4100D02*
D03*
X32750Y2300D02*
D03*
X36450Y2800D02*
D03*
X35100Y5400D02*
D03*
X41100Y5100D02*
D03*
X40750Y6500D02*
D03*
X40850Y7550D02*
D03*
X40900Y8800D02*
D03*
X40650Y10200D02*
D03*
X40750Y11750D02*
D03*
X40800Y13100D02*
D03*
X40350Y16250D02*
D03*
X40500Y18250D02*
D03*
X40550Y19950D02*
D03*
X40250Y21750D02*
D03*
X26100Y21300D02*
D03*
X28750Y20800D02*
D03*
X35050Y23850D02*
D03*
X31250Y23000D02*
D03*
X28300Y22500D02*
D03*
X36250Y24950D02*
D03*
X33050Y24850D02*
D03*
X29950Y24750D02*
D03*
X27050Y24550D02*
D03*
X23700Y25200D02*
D03*
X20700Y25150D02*
D03*
X17000D02*
D03*
X13350Y25100D02*
D03*
X9550Y25050D02*
D03*
X24900Y4900D02*
D03*
X22150Y2150D02*
D03*
X20850Y2250D02*
D03*
X22150Y3500D02*
D03*
X20850Y3550D02*
D03*
X22150Y4900D02*
D03*
X20800D02*
D03*
X22100Y6200D02*
D03*
X20800Y6250D02*
D03*
X22100Y7500D02*
D03*
X20800D02*
D03*
X11150Y4250D02*
D03*
X16900D02*
D03*
X15500D02*
D03*
X14100D02*
D03*
X12550D02*
D03*
X14050Y5650D02*
D03*
X12550Y5700D02*
D03*
X14000Y7050D02*
D03*
X12550Y7100D02*
D03*
X13950Y8450D02*
D03*
X12550Y8500D02*
D03*
X11800Y10500D02*
D03*
Y11850D02*
D03*
X12500Y15450D02*
D03*
X11150D02*
D03*
X20300Y950D02*
D03*
X19000D02*
D03*
X17650D02*
D03*
X16250D02*
D03*
X15000D02*
D03*
X13650D02*
D03*
X12300D02*
D03*
X10900D02*
D03*
X9650D02*
D03*
X8350Y900D02*
D03*
X7050D02*
D03*
X5700D02*
D03*
X4300D02*
D03*
X8900Y7550D02*
D03*
X10850Y9400D02*
D03*
X8900Y9350D02*
D03*
X10850Y12850D02*
D03*
X8900D02*
D03*
X10850Y16350D02*
D03*
X8900Y16300D02*
D03*
X1450Y5200D02*
D03*
X2850Y6900D02*
D03*
X1400D02*
D03*
X2900Y8450D02*
D03*
X1400Y8500D02*
D03*
X3000Y10150D02*
D03*
X1450Y10100D02*
D03*
X2950Y13250D02*
D03*
X1450Y13300D02*
D03*
X1400Y14900D02*
D03*
X2850Y16350D02*
D03*
X1400Y16300D02*
D03*
X2850Y17500D02*
D03*
X1450Y17600D02*
D03*
X2850Y18800D02*
D03*
X1450Y18900D02*
D03*
X2850Y20150D02*
D03*
X1500Y20100D02*
D03*
X1550Y21150D02*
D03*
X8800Y22650D02*
D03*
X7500D02*
D03*
X6300Y22600D02*
D03*
X5050D02*
D03*
X8800Y23700D02*
D03*
X7500D02*
D03*
X6300D02*
D03*
X5000Y23650D02*
D03*
X16700Y14400D02*
D03*
X17350Y10800D02*
D03*
Y10450D02*
D03*
X17800Y8400D02*
D03*
X18800Y12600D02*
D03*
X18393Y11812D02*
D03*
X18800Y11400D02*
D03*
X17593Y11812D02*
D03*
X17993D02*
D03*
X17600Y11400D02*
D03*
X18000D02*
D03*
X18400D02*
D03*
X18793Y11812D02*
D03*
X17600Y12200D02*
D03*
X18000D02*
D03*
X18400Y12600D02*
D03*
X18000D02*
D03*
X17600D02*
D03*
X18400Y14200D02*
D03*
X20380Y8052D02*
D03*
X20399Y9867D02*
D03*
X26000Y18700D02*
D03*
X12800Y11400D02*
D03*
X14000Y13400D02*
D03*
X25600Y11900D02*
D03*
X13624Y15027D02*
D03*
X13011Y13602D02*
D03*
X25750Y15300D02*
D03*
X15800Y5750D02*
D03*
X15000Y7600D02*
D03*
X15050Y8950D02*
D03*
X17800Y8800D02*
D03*
X16400Y16400D02*
D03*
Y16800D02*
D03*
X17400Y22000D02*
D03*
X17000D02*
D03*
X14124Y10642D02*
D03*
X16200Y9400D02*
D03*
X16400Y17200D02*
D03*
X25900Y8700D02*
D03*
X26053Y15435D02*
D03*
X25800Y19000D02*
D03*
X25500Y8550D02*
D03*
X25900Y8350D02*
D03*
X25950Y12100D02*
D03*
Y11750D02*
D03*
X26050Y15150D02*
D03*
X25550Y18700D02*
D03*
X20748Y14724D02*
D03*
X14103Y9780D02*
D03*
X14323Y12220D02*
D03*
X17800Y22000D02*
D03*
M02*
