G04*
G04 #@! TF.GenerationSoftware,Altium Limited,Altium Designer,23.1.1 (15)*
G04*
G04 Layer_Color=65535*
%FSLAX24Y24*%
%MOIN*%
G70*
G04*
G04 #@! TF.SameCoordinates,52EA1FD8-E69D-4759-9217-C2292DA48D7E*
G04*
G04*
G04 #@! TF.FilePolarity,Positive*
G04*
G01*
G75*
%ADD10C,0.0098*%
%ADD11C,0.0100*%
%ADD12C,0.0118*%
%ADD13C,0.0079*%
%ADD14C,0.0069*%
%ADD15C,0.0049*%
%ADD16C,0.0059*%
D10*
X16772Y14262D02*
G03*
X16772Y14262I-39J0D01*
G01*
D11*
X3367Y23622D02*
G03*
X3367Y23622I-1399J0D01*
G01*
Y1969D02*
G03*
X3367Y1969I-1399J0D01*
G01*
X41163Y23622D02*
G03*
X41163Y23622I-1399J0D01*
G01*
Y1969D02*
G03*
X41163Y1969I-1399J0D01*
G01*
X5300Y23900D02*
Y24300D01*
X5500Y24500D01*
X5700Y24300D01*
Y23900D01*
Y24200D01*
X5300D01*
X5900Y24300D02*
Y23900D01*
Y24100D01*
X6000Y24200D01*
X6100Y24300D01*
X6200D01*
X6500Y24500D02*
Y24100D01*
X6700Y23900D01*
X6899Y24100D01*
Y24500D01*
X7099Y23900D02*
X7299D01*
X7199D01*
Y24300D01*
X7099D01*
X16150Y14850D02*
Y14600D01*
X16200Y14550D01*
X16300D01*
X16350Y14600D01*
Y14850D01*
X16650Y14550D02*
X16450D01*
X16650Y14750D01*
Y14800D01*
X16600Y14850D01*
X16500D01*
X16450Y14800D01*
X29350Y9025D02*
X29050D01*
Y9175D01*
X29100Y9225D01*
X29200D01*
X29250Y9175D01*
Y9025D01*
Y9125D02*
X29350Y9225D01*
Y9325D02*
Y9425D01*
Y9375D01*
X29050D01*
X29100Y9325D01*
Y9575D02*
X29050Y9625D01*
Y9725D01*
X29100Y9775D01*
X29150D01*
X29200Y9725D01*
Y9675D01*
Y9725D01*
X29250Y9775D01*
X29300D01*
X29350Y9725D01*
Y9625D01*
X29300Y9575D01*
X27433Y5688D02*
X27134D01*
Y5838D01*
X27183Y5888D01*
X27283D01*
X27333Y5838D01*
Y5688D01*
Y5788D02*
X27433Y5888D01*
Y5988D02*
Y6088D01*
Y6038D01*
X27134D01*
X27183Y5988D01*
X27433Y6438D02*
Y6238D01*
X27233Y6438D01*
X27183D01*
X27134Y6388D01*
Y6288D01*
X27183Y6238D01*
X27550Y9275D02*
X27250D01*
Y9425D01*
X27300Y9475D01*
X27400D01*
X27450Y9425D01*
Y9275D01*
Y9375D02*
X27550Y9475D01*
Y9575D02*
Y9675D01*
Y9625D01*
X27250D01*
X27300Y9575D01*
X27550Y9825D02*
Y9925D01*
Y9875D01*
X27250D01*
X27300Y9825D01*
X29150Y15825D02*
X28850D01*
Y15975D01*
X28900Y16025D01*
X29000D01*
X29050Y15975D01*
Y15825D01*
Y15925D02*
X29150Y16025D01*
Y16125D02*
Y16225D01*
Y16175D01*
X28850D01*
X28900Y16125D01*
Y16375D02*
X28850Y16425D01*
Y16525D01*
X28900Y16575D01*
X29100D01*
X29150Y16525D01*
Y16425D01*
X29100Y16375D01*
X28900D01*
X27433Y12782D02*
X27134D01*
Y12932D01*
X27183Y12982D01*
X27283D01*
X27333Y12932D01*
Y12782D01*
Y12882D02*
X27433Y12982D01*
X27383Y13081D02*
X27433Y13131D01*
Y13231D01*
X27383Y13281D01*
X27183D01*
X27134Y13231D01*
Y13131D01*
X27183Y13081D01*
X27233D01*
X27283Y13131D01*
Y13281D01*
X28350Y17550D02*
X28050D01*
Y17700D01*
X28100Y17750D01*
X28200D01*
X28250Y17700D01*
Y17550D01*
Y17650D02*
X28350Y17750D01*
X28100Y17850D02*
X28050Y17900D01*
Y18000D01*
X28100Y18050D01*
X28150D01*
X28200Y18000D01*
X28250Y18050D01*
X28300D01*
X28350Y18000D01*
Y17900D01*
X28300Y17850D01*
X28250D01*
X28200Y17900D01*
X28150Y17850D01*
X28100D01*
X28200Y17900D02*
Y18000D01*
X13550Y9700D02*
Y10000D01*
X13700D01*
X13750Y9950D01*
Y9850D01*
X13700Y9800D01*
X13550D01*
X13650D02*
X13750Y9700D01*
X13850Y10000D02*
X14050D01*
Y9950D01*
X13850Y9750D01*
Y9700D01*
X12680Y16284D02*
Y16584D01*
X12830D01*
X12880Y16534D01*
Y16434D01*
X12830Y16384D01*
X12680D01*
X12780D02*
X12880Y16284D01*
X13180Y16584D02*
X13080Y16534D01*
X12980Y16434D01*
Y16334D01*
X13030Y16284D01*
X13130D01*
X13180Y16334D01*
Y16384D01*
X13130Y16434D01*
X12980D01*
X11550Y13100D02*
X11850D01*
Y12950D01*
X11800Y12900D01*
X11700D01*
X11650Y12950D01*
Y13100D01*
Y13000D02*
X11550Y12900D01*
X11850Y12600D02*
Y12800D01*
X11700D01*
X11750Y12700D01*
Y12650D01*
X11700Y12600D01*
X11600D01*
X11550Y12650D01*
Y12750D01*
X11600Y12800D01*
X12050Y13100D02*
X12350D01*
Y12950D01*
X12300Y12900D01*
X12200D01*
X12150Y12950D01*
Y13100D01*
Y13000D02*
X12050Y12900D01*
Y12650D02*
X12350D01*
X12200Y12800D01*
Y12600D01*
X12250Y11250D02*
Y11550D01*
X12400D01*
X12450Y11500D01*
Y11400D01*
X12400Y11350D01*
X12250D01*
X12350D02*
X12450Y11250D01*
X12550Y11500D02*
X12600Y11550D01*
X12700D01*
X12750Y11500D01*
Y11450D01*
X12700Y11400D01*
X12650D01*
X12700D01*
X12750Y11350D01*
Y11300D01*
X12700Y11250D01*
X12600D01*
X12550Y11300D01*
X13400Y15050D02*
Y15350D01*
X13550D01*
X13600Y15300D01*
Y15200D01*
X13550Y15150D01*
X13400D01*
X13500D02*
X13600Y15050D01*
X13900D02*
X13700D01*
X13900Y15250D01*
Y15300D01*
X13850Y15350D01*
X13750D01*
X13700Y15300D01*
X21000Y6450D02*
Y6750D01*
X21150D01*
X21200Y6700D01*
Y6600D01*
X21150Y6550D01*
X21000D01*
X21100D02*
X21200Y6450D01*
X21300D02*
X21400D01*
X21350D01*
Y6750D01*
X21300Y6700D01*
X38063Y1451D02*
X37763D01*
X37863Y1550D01*
X37763Y1650D01*
X38063D01*
X37763Y1750D02*
X38063D01*
X37913D01*
Y1950D01*
X37763D01*
X38063D01*
Y2200D02*
X37763D01*
X37913Y2050D01*
Y2250D01*
X37985Y23340D02*
X37685D01*
X37785Y23440D01*
X37685Y23540D01*
X37985D01*
X37685Y23640D02*
X37985D01*
X37835D01*
Y23840D01*
X37685D01*
X37985D01*
X37735Y23940D02*
X37685Y23990D01*
Y24090D01*
X37735Y24140D01*
X37785D01*
X37835Y24090D01*
Y24040D01*
Y24090D01*
X37885Y24140D01*
X37935D01*
X37985Y24090D01*
Y23990D01*
X37935Y23940D01*
X3905Y2408D02*
X4205D01*
X4105Y2308D01*
X4205Y2208D01*
X3905D01*
X4205Y2108D02*
X3905D01*
X4055D01*
Y1908D01*
X4205D01*
X3905D01*
Y1608D02*
Y1808D01*
X4105Y1608D01*
X4155D01*
X4205Y1658D01*
Y1758D01*
X4155Y1808D01*
X3866Y24011D02*
X4166D01*
X4066Y23911D01*
X4166Y23811D01*
X3866D01*
X4166Y23711D02*
X3866D01*
X4016D01*
Y23511D01*
X4166D01*
X3866D01*
Y23412D02*
Y23312D01*
Y23362D01*
X4166D01*
X4116Y23412D01*
X23766Y8142D02*
Y7842D01*
X23966D01*
X24216D02*
Y8142D01*
X24066Y7992D01*
X24266D01*
X23805Y11607D02*
Y11307D01*
X24005D01*
X24105Y11557D02*
X24155Y11607D01*
X24255D01*
X24305Y11557D01*
Y11507D01*
X24255Y11457D01*
X24205D01*
X24255D01*
X24305Y11407D01*
Y11357D01*
X24255Y11307D01*
X24155D01*
X24105Y11357D01*
X23805Y14992D02*
Y14693D01*
X24005D01*
X24305D02*
X24105D01*
X24305Y14892D01*
Y14942D01*
X24255Y14992D01*
X24155D01*
X24105Y14942D01*
X23855Y18339D02*
Y18039D01*
X24055D01*
X24155D02*
X24255D01*
X24205D01*
Y18339D01*
X24155Y18289D01*
X34950Y12750D02*
X34850D01*
X34900D01*
Y12500D01*
X34850Y12450D01*
X34800D01*
X34750Y12500D01*
X35250Y12750D02*
X35050D01*
Y12600D01*
X35150Y12650D01*
X35200D01*
X35250Y12600D01*
Y12500D01*
X35200Y12450D01*
X35100D01*
X35050Y12500D01*
X34954Y22555D02*
X34854D01*
X34904D01*
Y22305D01*
X34854Y22255D01*
X34804D01*
X34754Y22305D01*
X35204Y22255D02*
Y22555D01*
X35054Y22405D01*
X35254D01*
X6750Y12750D02*
X6650D01*
X6700D01*
Y12500D01*
X6650Y12450D01*
X6600D01*
X6550Y12500D01*
X6850Y12700D02*
X6900Y12750D01*
X7000D01*
X7050Y12700D01*
Y12650D01*
X7000Y12600D01*
X6950D01*
X7000D01*
X7050Y12550D01*
Y12500D01*
X7000Y12450D01*
X6900D01*
X6850Y12500D01*
X6750Y22750D02*
X6650D01*
X6700D01*
Y22500D01*
X6650Y22450D01*
X6600D01*
X6550Y22500D01*
X7050Y22450D02*
X6850D01*
X7050Y22650D01*
Y22700D01*
X7000Y22750D01*
X6900D01*
X6850Y22700D01*
X17600Y24150D02*
X17500D01*
X17550D01*
Y23900D01*
X17500Y23850D01*
X17450D01*
X17400Y23900D01*
X17700Y23850D02*
X17800D01*
X17750D01*
Y24150D01*
X17700Y24100D01*
X13690Y6110D02*
X13490D01*
Y5960D01*
X13590D01*
X13490D01*
Y5810D01*
X13790Y6110D02*
Y5810D01*
X13940D01*
X13990Y5860D01*
Y6060D01*
X13940Y6110D01*
X13790D01*
X14290Y5810D02*
X14090D01*
X14290Y6010D01*
Y6060D01*
X14240Y6110D01*
X14140D01*
X14090Y6060D01*
X25885Y24078D02*
X25685D01*
Y23928D01*
X25785D01*
X25685D01*
Y23778D01*
X25985Y24078D02*
Y23778D01*
X26135D01*
X26185Y23828D01*
Y24028D01*
X26135Y24078D01*
X25985D01*
X26285Y23778D02*
X26385D01*
X26335D01*
Y24078D01*
X26285Y24028D01*
X17200Y22550D02*
Y22250D01*
X17350D01*
X17400Y22300D01*
Y22500D01*
X17350Y22550D01*
X17200D01*
X17500Y22250D02*
X17600D01*
X17550D01*
Y22550D01*
X17500Y22500D01*
X28300Y8400D02*
X28250Y8450D01*
X28150D01*
X28100Y8400D01*
Y8200D01*
X28150Y8150D01*
X28250D01*
X28300Y8200D01*
X28400Y8400D02*
X28450Y8450D01*
X28550D01*
X28600Y8400D01*
Y8350D01*
X28550Y8300D01*
X28500D01*
X28550D01*
X28600Y8250D01*
Y8200D01*
X28550Y8150D01*
X28450D01*
X28400Y8200D01*
X28700Y8400D02*
X28750Y8450D01*
X28850D01*
X28900Y8400D01*
Y8200D01*
X28850Y8150D01*
X28750D01*
X28700Y8200D01*
Y8400D01*
X26396Y5824D02*
X26346Y5774D01*
Y5674D01*
X26396Y5624D01*
X26596D01*
X26646Y5674D01*
Y5774D01*
X26596Y5824D01*
X26646Y6124D02*
Y5924D01*
X26446Y6124D01*
X26396D01*
X26346Y6074D01*
Y5974D01*
X26396Y5924D01*
X26596Y6224D02*
X26646Y6274D01*
Y6374D01*
X26596Y6423D01*
X26396D01*
X26346Y6374D01*
Y6274D01*
X26396Y6224D01*
X26446D01*
X26496Y6274D01*
Y6423D01*
X25609Y5863D02*
X25559Y5813D01*
Y5713D01*
X25609Y5663D01*
X25809D01*
X25859Y5713D01*
Y5813D01*
X25809Y5863D01*
X25859Y6163D02*
Y5963D01*
X25659Y6163D01*
X25609D01*
X25559Y6113D01*
Y6013D01*
X25609Y5963D01*
Y6263D02*
X25559Y6313D01*
Y6413D01*
X25609Y6463D01*
X25659D01*
X25709Y6413D01*
X25759Y6463D01*
X25809D01*
X25859Y6413D01*
Y6313D01*
X25809Y6263D01*
X25759D01*
X25709Y6313D01*
X25659Y6263D01*
X25609D01*
X25709Y6313D02*
Y6413D01*
X22500Y9400D02*
X22450Y9350D01*
Y9250D01*
X22500Y9200D01*
X22700D01*
X22750Y9250D01*
Y9350D01*
X22700Y9400D01*
X22750Y9700D02*
Y9500D01*
X22550Y9700D01*
X22500D01*
X22450Y9650D01*
Y9550D01*
X22500Y9500D01*
X22450Y9800D02*
Y10000D01*
X22500D01*
X22700Y9800D01*
X22750D01*
X28266Y12020D02*
X28216Y12070D01*
X28116D01*
X28066Y12020D01*
Y11820D01*
X28116Y11770D01*
X28216D01*
X28266Y11820D01*
X28566Y11770D02*
X28366D01*
X28566Y11970D01*
Y12020D01*
X28516Y12070D01*
X28416D01*
X28366Y12020D01*
X28866Y12070D02*
X28766Y12020D01*
X28666Y11920D01*
Y11820D01*
X28716Y11770D01*
X28816D01*
X28866Y11820D01*
Y11870D01*
X28816Y11920D01*
X28666D01*
X26396Y9328D02*
X26346Y9278D01*
Y9178D01*
X26396Y9128D01*
X26596D01*
X26646Y9178D01*
Y9278D01*
X26596Y9328D01*
X26646Y9628D02*
Y9428D01*
X26446Y9628D01*
X26396D01*
X26346Y9578D01*
Y9478D01*
X26396Y9428D01*
X26346Y9927D02*
Y9728D01*
X26496D01*
X26446Y9827D01*
Y9877D01*
X26496Y9927D01*
X26596D01*
X26646Y9877D01*
Y9777D01*
X26596Y9728D01*
X25569Y9328D02*
X25519Y9278D01*
Y9178D01*
X25569Y9128D01*
X25769D01*
X25819Y9178D01*
Y9278D01*
X25769Y9328D01*
X25819Y9628D02*
Y9428D01*
X25619Y9628D01*
X25569D01*
X25519Y9578D01*
Y9478D01*
X25569Y9428D01*
X25819Y9877D02*
X25519D01*
X25669Y9728D01*
Y9927D01*
X22500Y11000D02*
X22450Y10950D01*
Y10850D01*
X22500Y10800D01*
X22700D01*
X22750Y10850D01*
Y10950D01*
X22700Y11000D01*
X22750Y11300D02*
Y11100D01*
X22550Y11300D01*
X22500D01*
X22450Y11250D01*
Y11150D01*
X22500Y11100D01*
Y11400D02*
X22450Y11450D01*
Y11550D01*
X22500Y11600D01*
X22550D01*
X22600Y11550D01*
Y11500D01*
Y11550D01*
X22650Y11600D01*
X22700D01*
X22750Y11550D01*
Y11450D01*
X22700Y11400D01*
X25502Y15900D02*
X25452Y15950D01*
X25352D01*
X25302Y15900D01*
Y15700D01*
X25352Y15650D01*
X25452D01*
X25502Y15700D01*
X25802Y15650D02*
X25602D01*
X25802Y15850D01*
Y15900D01*
X25752Y15950D01*
X25652D01*
X25602Y15900D01*
X26102Y15650D02*
X25902D01*
X26102Y15850D01*
Y15900D01*
X26052Y15950D01*
X25952D01*
X25902Y15900D01*
X26357Y12803D02*
X26307Y12753D01*
Y12653D01*
X26357Y12603D01*
X26557D01*
X26607Y12653D01*
Y12753D01*
X26557Y12803D01*
X26607Y13103D02*
Y12903D01*
X26407Y13103D01*
X26357D01*
X26307Y13053D01*
Y12953D01*
X26357Y12903D01*
X26607Y13203D02*
Y13303D01*
Y13253D01*
X26307D01*
X26357Y13203D01*
X25600Y12700D02*
X25550Y12650D01*
Y12550D01*
X25600Y12500D01*
X25800D01*
X25850Y12550D01*
Y12650D01*
X25800Y12700D01*
X25850Y13000D02*
Y12800D01*
X25650Y13000D01*
X25600D01*
X25550Y12950D01*
Y12850D01*
X25600Y12800D01*
Y13100D02*
X25550Y13150D01*
Y13250D01*
X25600Y13300D01*
X25800D01*
X25850Y13250D01*
Y13150D01*
X25800Y13100D01*
X25600D01*
X22500Y12425D02*
X22450Y12375D01*
Y12275D01*
X22500Y12225D01*
X22700D01*
X22750Y12275D01*
Y12375D01*
X22700Y12425D01*
X22750Y12525D02*
Y12625D01*
Y12575D01*
X22450D01*
X22500Y12525D01*
X22700Y12775D02*
X22750Y12825D01*
Y12925D01*
X22700Y12975D01*
X22500D01*
X22450Y12925D01*
Y12825D01*
X22500Y12775D01*
X22550D01*
X22600Y12825D01*
Y12975D01*
X26513Y19923D02*
X26463Y19973D01*
X26363D01*
X26313Y19923D01*
Y19723D01*
X26363Y19673D01*
X26463D01*
X26513Y19723D01*
X26613Y19673D02*
X26713D01*
X26663D01*
Y19973D01*
X26613Y19923D01*
X26863D02*
X26913Y19973D01*
X27013D01*
X27063Y19923D01*
Y19873D01*
X27013Y19823D01*
X27063Y19773D01*
Y19723D01*
X27013Y19673D01*
X26913D01*
X26863Y19723D01*
Y19773D01*
X26913Y19823D01*
X26863Y19873D01*
Y19923D01*
X26913Y19823D02*
X27013D01*
X26425Y16700D02*
X26375Y16750D01*
X26275D01*
X26225Y16700D01*
Y16500D01*
X26275Y16450D01*
X26375D01*
X26425Y16500D01*
X26525Y16450D02*
X26625D01*
X26575D01*
Y16750D01*
X26525Y16700D01*
X26775Y16750D02*
X26975D01*
Y16700D01*
X26775Y16500D01*
Y16450D01*
X24650Y18175D02*
X24600Y18125D01*
Y18025D01*
X24650Y17975D01*
X24850D01*
X24900Y18025D01*
Y18125D01*
X24850Y18175D01*
X24900Y18275D02*
Y18375D01*
Y18325D01*
X24600D01*
X24650Y18275D01*
X24600Y18725D02*
X24650Y18625D01*
X24750Y18525D01*
X24850D01*
X24900Y18575D01*
Y18675D01*
X24850Y18725D01*
X24800D01*
X24750Y18675D01*
Y18525D01*
X22500Y14225D02*
X22450Y14175D01*
Y14075D01*
X22500Y14025D01*
X22700D01*
X22750Y14075D01*
Y14175D01*
X22700Y14225D01*
X22750Y14325D02*
Y14425D01*
Y14375D01*
X22450D01*
X22500Y14325D01*
X22450Y14775D02*
Y14575D01*
X22600D01*
X22550Y14675D01*
Y14725D01*
X22600Y14775D01*
X22700D01*
X22750Y14725D01*
Y14625D01*
X22700Y14575D01*
X14425Y17500D02*
X14375Y17550D01*
X14275D01*
X14225Y17500D01*
Y17300D01*
X14275Y17250D01*
X14375D01*
X14425Y17300D01*
X14525Y17250D02*
X14625D01*
X14575D01*
Y17550D01*
X14525Y17500D01*
X14775D02*
X14825Y17550D01*
X14925D01*
X14975Y17500D01*
Y17450D01*
X14925Y17400D01*
X14875D01*
X14925D01*
X14975Y17350D01*
Y17300D01*
X14925Y17250D01*
X14825D01*
X14775Y17300D01*
X13525Y10750D02*
X13475Y10800D01*
X13375D01*
X13325Y10750D01*
Y10550D01*
X13375Y10500D01*
X13475D01*
X13525Y10550D01*
X13625Y10500D02*
X13725D01*
X13675D01*
Y10800D01*
X13625Y10750D01*
X14075Y10500D02*
X13875D01*
X14075Y10700D01*
Y10750D01*
X14025Y10800D01*
X13925D01*
X13875Y10750D01*
X14475Y16700D02*
X14425Y16750D01*
X14325D01*
X14275Y16700D01*
Y16500D01*
X14325Y16450D01*
X14425D01*
X14475Y16500D01*
X14575Y16450D02*
X14675D01*
X14625D01*
Y16750D01*
X14575Y16700D01*
X14825Y16450D02*
X14925D01*
X14875D01*
Y16750D01*
X14825Y16700D01*
X14425Y18300D02*
X14375Y18350D01*
X14275D01*
X14225Y18300D01*
Y18100D01*
X14275Y18050D01*
X14375D01*
X14425Y18100D01*
X14525Y18050D02*
X14625D01*
X14575D01*
Y18350D01*
X14525Y18300D01*
X14775D02*
X14825Y18350D01*
X14925D01*
X14975Y18300D01*
Y18100D01*
X14925Y18050D01*
X14825D01*
X14775Y18100D01*
Y18300D01*
X14550Y19100D02*
X14500Y19150D01*
X14400D01*
X14350Y19100D01*
Y18900D01*
X14400Y18850D01*
X14500D01*
X14550Y18900D01*
X14650D02*
X14700Y18850D01*
X14800D01*
X14850Y18900D01*
Y19100D01*
X14800Y19150D01*
X14700D01*
X14650Y19100D01*
Y19050D01*
X14700Y19000D01*
X14850D01*
X15550Y9150D02*
X15500Y9200D01*
X15400D01*
X15350Y9150D01*
Y8950D01*
X15400Y8900D01*
X15500D01*
X15550Y8950D01*
X15650Y9150D02*
X15700Y9200D01*
X15800D01*
X15850Y9150D01*
Y9100D01*
X15800Y9050D01*
X15850Y9000D01*
Y8950D01*
X15800Y8900D01*
X15700D01*
X15650Y8950D01*
Y9000D01*
X15700Y9050D01*
X15650Y9100D01*
Y9150D01*
X15700Y9050D02*
X15800D01*
X20750Y15700D02*
X20700Y15750D01*
X20600D01*
X20550Y15700D01*
Y15500D01*
X20600Y15450D01*
X20700D01*
X20750Y15500D01*
X20850Y15750D02*
X21050D01*
Y15700D01*
X20850Y15500D01*
Y15450D01*
X17550Y14850D02*
X17500Y14900D01*
X17400D01*
X17350Y14850D01*
Y14650D01*
X17400Y14600D01*
X17500D01*
X17550Y14650D01*
X17850Y14900D02*
X17750Y14850D01*
X17650Y14750D01*
Y14650D01*
X17700Y14600D01*
X17800D01*
X17850Y14650D01*
Y14700D01*
X17800Y14750D01*
X17650D01*
X17150Y8700D02*
X17100Y8750D01*
X17000D01*
X16950Y8700D01*
Y8500D01*
X17000Y8450D01*
X17100D01*
X17150Y8500D01*
X17450Y8750D02*
X17250D01*
Y8600D01*
X17350Y8650D01*
X17400D01*
X17450Y8600D01*
Y8500D01*
X17400Y8450D01*
X17300D01*
X17250Y8500D01*
X21950Y5900D02*
X21900Y5950D01*
X21800D01*
X21750Y5900D01*
Y5700D01*
X21800Y5650D01*
X21900D01*
X21950Y5700D01*
X22200Y5650D02*
Y5950D01*
X22050Y5800D01*
X22250D01*
X21950Y6700D02*
X21900Y6750D01*
X21800D01*
X21750Y6700D01*
Y6500D01*
X21800Y6450D01*
X21900D01*
X21950Y6500D01*
X22050Y6700D02*
X22100Y6750D01*
X22200D01*
X22250Y6700D01*
Y6650D01*
X22200Y6600D01*
X22150D01*
X22200D01*
X22250Y6550D01*
Y6500D01*
X22200Y6450D01*
X22100D01*
X22050Y6500D01*
X17961Y4705D02*
X17911Y4755D01*
X17811D01*
X17761Y4705D01*
Y4506D01*
X17811Y4456D01*
X17911D01*
X17961Y4506D01*
X18261Y4456D02*
X18061D01*
X18261Y4656D01*
Y4705D01*
X18211Y4755D01*
X18111D01*
X18061Y4705D01*
X20178Y18100D02*
X20128Y18150D01*
X20028D01*
X19978Y18100D01*
Y17900D01*
X20028Y17850D01*
X20128D01*
X20178Y17900D01*
X20278Y17850D02*
X20378D01*
X20328D01*
Y18150D01*
X20278Y18100D01*
D12*
X38622Y7697D02*
X38858Y7933D01*
X38622Y8169D02*
X38858Y7933D01*
X37874D02*
X38858D01*
X31142Y4350D02*
Y6201D01*
Y9744D02*
Y11594D01*
X31102Y9744D02*
X31142D01*
X30000Y6201D02*
X31142D01*
X30000D02*
Y9744D01*
X31102D01*
X31142Y4350D02*
X32205D01*
X33268Y4350D02*
X37205D01*
X38268D02*
X39252D01*
X31142Y11594D02*
X32205D01*
X33268Y11594D02*
X37205D01*
X38268D02*
X39252D01*
X18504Y19399D02*
Y19783D01*
Y19399D02*
X19390D01*
X21555Y19409D02*
X22343D01*
Y24705D01*
X18504Y21850D02*
Y24705D01*
X2480Y14193D02*
X3465D01*
X4528D02*
X8465D01*
X9528Y14193D02*
X10591D01*
X2480Y21437D02*
X3465D01*
X4528D02*
X8465D01*
X9528Y21437D02*
X10591D01*
X10630Y16043D02*
X11732D01*
Y19587D01*
X10591D02*
X11732D01*
X10591Y16043D02*
X10630D01*
X10591Y14193D02*
Y16043D01*
Y19587D02*
Y21437D01*
X2874Y17854D02*
X3858D01*
X2874D02*
X3110Y17618D01*
X2874Y17854D02*
X3110Y18091D01*
X2480Y4350D02*
X3465D01*
X4528D02*
X8465D01*
X9528Y4350D02*
X10591D01*
X2480Y11594D02*
X3465D01*
X4528D02*
X8465D01*
X9528Y11594D02*
X10591D01*
X10630Y6201D02*
X11732D01*
Y9744D01*
X10591D02*
X11732D01*
X10591Y6201D02*
X10630D01*
X10591Y4350D02*
Y6201D01*
Y9744D02*
Y11594D01*
X2874Y8012D02*
X3858D01*
X2874D02*
X3110Y7776D01*
X2874Y8012D02*
X3110Y8248D01*
X38272Y21442D02*
X39256D01*
X33272D02*
X37208D01*
X31146Y21442D02*
X32208D01*
X38272Y14198D02*
X39256D01*
X33272D02*
X37208D01*
X31146Y14198D02*
X32208D01*
X30004Y19592D02*
X31106D01*
X30004Y16048D02*
Y19592D01*
Y16048D02*
X31146D01*
X31106Y19592D02*
X31146D01*
Y21442D01*
Y14198D02*
Y16048D01*
X37878Y17781D02*
X38862D01*
X38626Y18017D02*
X38862Y17781D01*
X38626Y17544D02*
X38862Y17781D01*
D13*
X38858Y7933D02*
Y7933D01*
X38858D01*
X19291Y9970D02*
Y14104D01*
X17165Y9970D02*
X19291D01*
X17382Y14104D02*
X19291D01*
X17165Y13888D02*
X17382Y14104D01*
X17165Y9970D02*
Y13888D01*
X19617Y5813D02*
Y6128D01*
X18987Y5183D02*
X19617Y5813D01*
X16783Y5183D02*
X18987D01*
X16783D02*
Y6128D01*
X19617Y7072D02*
Y7387D01*
X18987Y8017D02*
X19617Y7387D01*
X16783Y8017D02*
X18987D01*
X16783Y7072D02*
Y8017D01*
X17205Y20374D02*
X17441Y20138D01*
X17441D02*
X17677Y20374D01*
X17441Y20138D02*
Y20138D01*
Y20138D02*
Y20768D01*
X18032Y19272D02*
Y21634D01*
X16850Y19272D02*
X18032D01*
X16850D02*
Y21634D01*
X18032D01*
X16783Y17224D02*
Y18169D01*
X18987D01*
X19617Y17539D01*
Y17224D02*
Y17539D01*
X16783Y15335D02*
Y16280D01*
Y15335D02*
X18987D01*
X19617Y15965D01*
Y16280D01*
X14134Y14173D02*
X15512D01*
X14134Y13583D02*
Y14173D01*
Y13583D02*
X15512D01*
Y14173D01*
X14311Y13295D02*
X15689D01*
X14311Y12705D02*
Y13295D01*
Y12705D02*
X15689D01*
Y13295D01*
X14311Y11695D02*
X15689D01*
X14311Y11105D02*
Y11695D01*
Y11105D02*
X15689D01*
Y11695D01*
X14311Y10945D02*
X15689D01*
X14311Y10355D02*
Y10945D01*
Y10355D02*
X15689D01*
Y10945D01*
X23917Y17559D02*
X24311D01*
Y16299D02*
Y17559D01*
X23917Y16299D02*
X24311D01*
X23917D02*
Y17559D01*
Y12887D02*
Y14147D01*
Y12887D02*
X24311D01*
Y14147D01*
X23917D02*
X24311D01*
X23917Y10735D02*
X24311D01*
Y9475D02*
Y10735D01*
X23917Y9475D02*
X24311D01*
X23917D02*
Y10735D01*
Y6063D02*
Y7323D01*
Y6063D02*
X24311D01*
Y7323D01*
X23917D02*
X24311D01*
X2874Y17854D02*
X2874D01*
Y17854D01*
X2874Y8012D02*
X2874D01*
Y8012D01*
X38862Y17781D02*
X38862D01*
X38862Y17781D02*
Y17781D01*
D14*
X25364Y17126D02*
X26014D01*
X25364D02*
Y18307D01*
X26014Y17126D02*
Y18307D01*
X25364D02*
X26014D01*
X25364Y14862D02*
X26014D01*
Y13681D02*
Y14862D01*
X25364Y13681D02*
Y14862D01*
Y13681D02*
X26014D01*
X26381Y15029D02*
Y15679D01*
X27562D01*
X26381Y15029D02*
X27562D01*
Y15679D01*
X27549Y18399D02*
Y19048D01*
X26368Y18399D02*
X27549D01*
X26368Y19048D02*
X27549D01*
X26368Y18399D02*
Y19048D01*
X19488Y9026D02*
Y9675D01*
X20669D01*
X19488Y9026D02*
X20669D01*
Y9675D01*
X19488Y8278D02*
Y8927D01*
X20669D01*
X19488Y8278D02*
X20669D01*
Y8927D01*
X19370Y8278D02*
Y8927D01*
X18189Y8278D02*
X19370D01*
X18189Y8927D02*
X19370D01*
X18189Y8278D02*
Y8927D01*
X19272Y14419D02*
Y15069D01*
X18091Y14419D02*
X19272D01*
X18091Y15069D02*
X19272D01*
X18091Y14419D02*
Y15069D01*
X19390Y14419D02*
Y15069D01*
X20571D01*
X19390Y14419D02*
X20571D01*
Y15069D01*
X17791Y9075D02*
Y9725D01*
X16609Y9075D02*
X17791D01*
X16609Y9725D02*
X17791D01*
X16609Y9075D02*
Y9725D01*
X14505Y11875D02*
Y12525D01*
X15686D01*
X14505Y11875D02*
X15686D01*
Y12525D01*
X21230Y14862D02*
X21880D01*
Y13681D02*
Y14862D01*
X21230Y13681D02*
Y14862D01*
Y13681D02*
X21880D01*
X26152Y18307D02*
X26801D01*
Y17126D02*
Y18307D01*
X26152Y17126D02*
Y18307D01*
Y17126D02*
X26801D01*
X21230Y12106D02*
X21880D01*
X21230D02*
Y13287D01*
X21880Y12106D02*
Y13287D01*
X21230D02*
X21880D01*
X26152Y13681D02*
X26801D01*
X26152D02*
Y14862D01*
X26801Y13681D02*
Y14862D01*
X26152D02*
X26801D01*
X21230Y11713D02*
X21880D01*
Y10531D02*
Y11713D01*
X21230Y10531D02*
Y11713D01*
Y10531D02*
X21880D01*
X25364Y11516D02*
X26014D01*
Y10335D02*
Y11516D01*
X25364Y10335D02*
Y11516D01*
Y10335D02*
X26014D01*
X26152Y11516D02*
X26801D01*
Y10335D02*
Y11516D01*
X26152Y10335D02*
Y11516D01*
Y10335D02*
X26801D01*
X26359Y11575D02*
Y12225D01*
X27541D01*
X26359Y11575D02*
X27541D01*
Y12225D01*
X21230Y8957D02*
X21880D01*
X21230D02*
Y10138D01*
X21880Y8957D02*
Y10138D01*
X21230D02*
X21880D01*
X25364Y6890D02*
X26014D01*
X25364D02*
Y8071D01*
X26014Y6890D02*
Y8071D01*
X25364D02*
X26014D01*
X26152Y6890D02*
X26801D01*
X26152D02*
Y8071D01*
X26801Y6890D02*
Y8071D01*
X26152D02*
X26801D01*
X27568Y8176D02*
Y8826D01*
X26387Y8176D02*
X27568D01*
X26387Y8826D02*
X27568D01*
X26387Y8176D02*
Y8826D01*
D15*
X13800Y16000D02*
Y19400D01*
Y16000D02*
X15400D01*
Y19400D01*
X13800D02*
X15400D01*
X21200Y7200D02*
X21400D01*
Y7400D01*
X20800Y8000D02*
X21400Y7200D01*
X20600Y6200D02*
Y7000D01*
Y6200D02*
X21400D01*
Y5400D02*
Y6200D01*
Y5400D02*
X22600D01*
Y7000D01*
X20600D02*
X22600D01*
X18189Y9055D02*
X18583D01*
X18189D02*
Y9646D01*
X18583D01*
X18976Y9055D02*
X19370D01*
Y9646D01*
X18976D02*
X19370D01*
X13305Y14397D02*
Y14791D01*
X13895D01*
Y14397D02*
Y14791D01*
X13305Y13609D02*
Y14003D01*
Y13609D02*
X13895D01*
Y14003D01*
X13009Y11105D02*
X13403D01*
X13009D02*
Y11695D01*
X13403D01*
X13797Y11105D02*
X14191D01*
Y11695D01*
X13797D02*
X14191D01*
X13505Y12797D02*
Y13191D01*
X14095D01*
Y12797D02*
Y13191D01*
X13505Y12009D02*
Y12403D01*
Y12009D02*
X14095D01*
Y12403D01*
X13295Y12009D02*
Y12403D01*
X12705Y12009D02*
X13295D01*
X12705D02*
Y12403D01*
X13295Y12797D02*
Y13191D01*
X12705D02*
X13295D01*
X12705Y12797D02*
Y13191D01*
X12605Y17597D02*
Y17991D01*
X13195D01*
Y17597D02*
Y17991D01*
X12605Y16809D02*
Y17203D01*
Y16809D02*
X13195D01*
Y17203D01*
X15092Y10095D02*
X15486D01*
Y9505D02*
Y10095D01*
X15092Y9505D02*
X15486D01*
X14305Y10095D02*
X14698D01*
X14305Y9505D02*
Y10095D01*
Y9505D02*
X14698D01*
X26969Y17913D02*
Y18307D01*
X27559D01*
Y17913D02*
Y18307D01*
X26969Y17126D02*
Y17520D01*
Y17126D02*
X27559D01*
Y17520D01*
Y13681D02*
Y14075D01*
X26969Y13681D02*
X27559D01*
X26969D02*
Y14075D01*
X27559Y14468D02*
Y14862D01*
X26969D02*
X27559D01*
X26969Y14468D02*
Y14862D01*
X28445Y15591D02*
Y15984D01*
X27854Y15591D02*
X28445D01*
X27854D02*
Y15984D01*
X28445Y16378D02*
Y16772D01*
X27854D02*
X28445D01*
X27854Y16378D02*
Y16772D01*
X26969Y11122D02*
Y11516D01*
X27559D01*
Y11122D02*
Y11516D01*
X26969Y10335D02*
Y10728D01*
Y10335D02*
X27559D01*
Y10728D01*
Y6890D02*
Y7283D01*
X26969Y6890D02*
X27559D01*
X26969D02*
Y7283D01*
X27559Y7677D02*
Y8071D01*
X26969D02*
X27559D01*
X26969Y7677D02*
Y8071D01*
X28543Y8760D02*
Y9154D01*
X27953Y8760D02*
X28543D01*
X27953D02*
Y9154D01*
X28543Y9547D02*
Y9941D01*
X27953D02*
X28543D01*
X27953Y9547D02*
Y9941D01*
D16*
X19731Y5300D02*
X19469D01*
X19600Y5169D02*
Y5431D01*
X19731Y15452D02*
X19469D01*
X19600Y15321D02*
Y15583D01*
X16054Y13878D02*
X15792D01*
X15923Y13747D02*
Y14009D01*
X16231Y13000D02*
X15969D01*
X16100Y12869D02*
Y13131D01*
X16231Y11400D02*
X15969D01*
X16100Y11269D02*
Y11531D01*
X16231Y10650D02*
X15969D01*
X16100Y10519D02*
Y10781D01*
M02*
