G04*
G04 #@! TF.GenerationSoftware,Altium Limited,Altium Designer,23.1.1 (15)*
G04*
G04 Layer_Color=128*
%FSLAX24Y24*%
%MOIN*%
G70*
G04*
G04 #@! TF.SameCoordinates,52EA1FD8-E69D-4759-9217-C2292DA48D7E*
G04*
G04*
G04 #@! TF.FilePolarity,Positive*
G04*
G01*
G75*
%ADD53C,0.0050*%
D53*
X37461Y4778D02*
X38012D01*
X37736Y4502D02*
Y5053D01*
X37461Y11167D02*
X38012D01*
X37736Y10892D02*
Y11443D01*
X32461Y4778D02*
X33012D01*
X32736Y4502D02*
Y5053D01*
X32461Y11167D02*
X33012D01*
X32736Y10892D02*
Y11443D01*
X1339Y23622D02*
X2598D01*
X1969Y22992D02*
Y24252D01*
X1339Y1969D02*
X2598D01*
X1969Y1339D02*
Y2598D01*
X39134Y23622D02*
X40394D01*
X39764Y22992D02*
Y24252D01*
X39134Y1969D02*
X40394D01*
X39764Y1339D02*
Y2598D01*
X18504Y20846D02*
X18819D01*
X18661Y20689D02*
Y21004D01*
X20315Y22146D02*
X20630D01*
X20472Y21988D02*
Y22303D01*
X20315Y19744D02*
X20630D01*
X20472Y19587D02*
Y19902D01*
X8720Y14620D02*
X9272D01*
X8996Y14344D02*
Y14896D01*
X8720Y21010D02*
X9272D01*
X8996Y20734D02*
Y21285D01*
X3720Y14620D02*
X4272D01*
X3996Y14344D02*
Y14896D01*
X3720Y21010D02*
X4272D01*
X3996Y20734D02*
Y21285D01*
X8720Y4778D02*
X9272D01*
X8996Y4502D02*
Y5053D01*
X8720Y11167D02*
X9272D01*
X8996Y10892D02*
Y11443D01*
X3720Y4778D02*
X4272D01*
X3996Y4502D02*
Y5053D01*
X3720Y11167D02*
X4272D01*
X3996Y10892D02*
Y11443D01*
X32464Y21015D02*
X33016D01*
X32740Y20739D02*
Y21290D01*
X32464Y14625D02*
X33016D01*
X32740Y14350D02*
Y14901D01*
X37464Y21015D02*
X38016D01*
X37740Y20739D02*
Y21290D01*
X37464Y14625D02*
X38016D01*
X37740Y14350D02*
Y14901D01*
X15450Y17700D02*
X15550D01*
X15500Y17650D02*
Y17750D01*
X15450Y19000D02*
X15550D01*
X15500Y18950D02*
Y19050D01*
X14050D02*
X14150D01*
X14100Y19000D02*
Y19100D01*
X15550Y20500D02*
X15650D01*
X15600Y20450D02*
Y20550D01*
X14000D02*
X14100D01*
X14050Y20500D02*
Y20600D01*
X15550Y21950D02*
X15650D01*
X15600Y21900D02*
Y22000D01*
X14100Y21850D02*
X14200D01*
X14150Y21800D02*
Y21900D01*
X15450Y6700D02*
X15550D01*
X15500Y6650D02*
Y6750D01*
X16200Y7550D02*
X16300D01*
X16250Y7500D02*
Y7600D01*
X16750Y8600D02*
X16850D01*
X16800Y8550D02*
Y8650D01*
X15950Y8750D02*
X16050D01*
X16000Y8700D02*
Y8800D01*
X24550Y19450D02*
X24650D01*
X24600Y19400D02*
Y19500D01*
X37100Y13450D02*
X37200D01*
X37150Y13400D02*
Y13500D01*
X33800Y13550D02*
X33900D01*
X33850Y13500D02*
Y13600D01*
X35383Y13583D02*
X35483D01*
X35433Y13533D02*
Y13633D01*
X34800Y1750D02*
X34900D01*
X34850Y1700D02*
Y1800D01*
X29800Y2100D02*
X29900D01*
X29850Y2050D02*
Y2150D01*
X27000Y4450D02*
X27100D01*
X27050Y4400D02*
Y4500D01*
X30000Y4100D02*
X30100D01*
X30050Y4050D02*
Y4150D01*
X32700Y2300D02*
X32800D01*
X32750Y2250D02*
Y2350D01*
X36400Y2800D02*
X36500D01*
X36450Y2750D02*
Y2850D01*
X35050Y5400D02*
X35150D01*
X35100Y5350D02*
Y5450D01*
X41050Y5100D02*
X41150D01*
X41100Y5050D02*
Y5150D01*
X40700Y6500D02*
X40800D01*
X40750Y6450D02*
Y6550D01*
X40800Y7550D02*
X40900D01*
X40850Y7500D02*
Y7600D01*
Y8800D02*
X40950D01*
X40900Y8750D02*
Y8850D01*
X40600Y10200D02*
X40700D01*
X40650Y10150D02*
Y10250D01*
X40700Y11750D02*
X40800D01*
X40750Y11700D02*
Y11800D01*
Y13100D02*
X40850D01*
X40800Y13050D02*
Y13150D01*
X40300Y16250D02*
X40400D01*
X40350Y16200D02*
Y16300D01*
X40450Y18250D02*
X40550D01*
X40500Y18200D02*
Y18300D01*
Y19950D02*
X40600D01*
X40550Y19900D02*
Y20000D01*
X40200Y21750D02*
X40300D01*
X40250Y21700D02*
Y21800D01*
X26050Y21300D02*
X26150D01*
X26100Y21250D02*
Y21350D01*
X28700Y20800D02*
X28800D01*
X28750Y20750D02*
Y20850D01*
X35000Y23850D02*
X35100D01*
X35050Y23800D02*
Y23900D01*
X31200Y23000D02*
X31300D01*
X31250Y22950D02*
Y23050D01*
X28250Y22500D02*
X28350D01*
X28300Y22450D02*
Y22550D01*
X36200Y24950D02*
X36300D01*
X36250Y24900D02*
Y25000D01*
X33000Y24850D02*
X33100D01*
X33050Y24800D02*
Y24900D01*
X29900Y24750D02*
X30000D01*
X29950Y24700D02*
Y24800D01*
X27000Y24550D02*
X27100D01*
X27050Y24500D02*
Y24600D01*
X23650Y25200D02*
X23750D01*
X23700Y25150D02*
Y25250D01*
X20650Y25150D02*
X20750D01*
X20700Y25100D02*
Y25200D01*
X16950Y25150D02*
X17050D01*
X17000Y25100D02*
Y25200D01*
X13300Y25100D02*
X13400D01*
X13350Y25050D02*
Y25150D01*
X9500Y25050D02*
X9600D01*
X9550Y25000D02*
Y25100D01*
X24850Y4900D02*
X24950D01*
X24900Y4850D02*
Y4950D01*
X22100Y2150D02*
X22200D01*
X22150Y2100D02*
Y2200D01*
X20800Y2250D02*
X20900D01*
X20850Y2200D02*
Y2300D01*
X22100Y3500D02*
X22200D01*
X22150Y3450D02*
Y3550D01*
X20800D02*
X20900D01*
X20850Y3500D02*
Y3600D01*
X22100Y4900D02*
X22200D01*
X22150Y4850D02*
Y4950D01*
X20750Y4900D02*
X20850D01*
X20800Y4850D02*
Y4950D01*
X22050Y6200D02*
X22150D01*
X22100Y6150D02*
Y6250D01*
X20750D02*
X20850D01*
X20800Y6200D02*
Y6300D01*
X22050Y7500D02*
X22150D01*
X22100Y7450D02*
Y7550D01*
X20750Y7500D02*
X20850D01*
X20800Y7450D02*
Y7550D01*
X11100Y4250D02*
X11200D01*
X11150Y4200D02*
Y4300D01*
X16850Y4250D02*
X16950D01*
X16900Y4200D02*
Y4300D01*
X15450Y4250D02*
X15550D01*
X15500Y4200D02*
Y4300D01*
X14050Y4250D02*
X14150D01*
X14100Y4200D02*
Y4300D01*
X12500Y4250D02*
X12600D01*
X12550Y4200D02*
Y4300D01*
X14000Y5650D02*
X14100D01*
X14050Y5600D02*
Y5700D01*
X12500D02*
X12600D01*
X12550Y5650D02*
Y5750D01*
X13950Y7050D02*
X14050D01*
X14000Y7000D02*
Y7100D01*
X12500D02*
X12600D01*
X12550Y7050D02*
Y7150D01*
X13900Y8450D02*
X14000D01*
X13950Y8400D02*
Y8500D01*
X12500D02*
X12600D01*
X12550Y8450D02*
Y8550D01*
X11750Y10500D02*
X11850D01*
X11800Y10450D02*
Y10550D01*
X11750Y11850D02*
X11850D01*
X11800Y11800D02*
Y11900D01*
X12450Y15450D02*
X12550D01*
X12500Y15400D02*
Y15500D01*
X11100Y15450D02*
X11200D01*
X11150Y15400D02*
Y15500D01*
X20250Y950D02*
X20350D01*
X20300Y900D02*
Y1000D01*
X18950Y950D02*
X19050D01*
X19000Y900D02*
Y1000D01*
X17600Y950D02*
X17700D01*
X17650Y900D02*
Y1000D01*
X16200Y950D02*
X16300D01*
X16250Y900D02*
Y1000D01*
X14950Y950D02*
X15050D01*
X15000Y900D02*
Y1000D01*
X13600Y950D02*
X13700D01*
X13650Y900D02*
Y1000D01*
X12250Y950D02*
X12350D01*
X12300Y900D02*
Y1000D01*
X10850Y950D02*
X10950D01*
X10900Y900D02*
Y1000D01*
X9600Y950D02*
X9700D01*
X9650Y900D02*
Y1000D01*
X8300Y900D02*
X8400D01*
X8350Y850D02*
Y950D01*
X7000Y900D02*
X7100D01*
X7050Y850D02*
Y950D01*
X5650Y900D02*
X5750D01*
X5700Y850D02*
Y950D01*
X4250Y900D02*
X4350D01*
X4300Y850D02*
Y950D01*
X8850Y7550D02*
X8950D01*
X8900Y7500D02*
Y7600D01*
X10800Y9400D02*
X10900D01*
X10850Y9350D02*
Y9450D01*
X8850Y9350D02*
X8950D01*
X8900Y9300D02*
Y9400D01*
X10800Y12850D02*
X10900D01*
X10850Y12800D02*
Y12900D01*
X8850Y12850D02*
X8950D01*
X8900Y12800D02*
Y12900D01*
X10800Y16350D02*
X10900D01*
X10850Y16300D02*
Y16400D01*
X8850Y16300D02*
X8950D01*
X8900Y16250D02*
Y16350D01*
X1400Y5200D02*
X1500D01*
X1450Y5150D02*
Y5250D01*
X2800Y6900D02*
X2900D01*
X2850Y6850D02*
Y6950D01*
X1350Y6900D02*
X1450D01*
X1400Y6850D02*
Y6950D01*
X2850Y8450D02*
X2950D01*
X2900Y8400D02*
Y8500D01*
X1350D02*
X1450D01*
X1400Y8450D02*
Y8550D01*
X2950Y10150D02*
X3050D01*
X3000Y10100D02*
Y10200D01*
X1400Y10100D02*
X1500D01*
X1450Y10050D02*
Y10150D01*
X2900Y13250D02*
X3000D01*
X2950Y13200D02*
Y13300D01*
X1400D02*
X1500D01*
X1450Y13250D02*
Y13350D01*
X1350Y14900D02*
X1450D01*
X1400Y14850D02*
Y14950D01*
X2800Y16350D02*
X2900D01*
X2850Y16300D02*
Y16400D01*
X1350Y16300D02*
X1450D01*
X1400Y16250D02*
Y16350D01*
X2800Y17500D02*
X2900D01*
X2850Y17450D02*
Y17550D01*
X1400Y17600D02*
X1500D01*
X1450Y17550D02*
Y17650D01*
X2800Y18800D02*
X2900D01*
X2850Y18750D02*
Y18850D01*
X1400Y18900D02*
X1500D01*
X1450Y18850D02*
Y18950D01*
X2800Y20150D02*
X2900D01*
X2850Y20100D02*
Y20200D01*
X1450Y20100D02*
X1550D01*
X1500Y20050D02*
Y20150D01*
Y21150D02*
X1600D01*
X1550Y21100D02*
Y21200D01*
X8750Y22650D02*
X8850D01*
X8800Y22600D02*
Y22700D01*
X7450Y22650D02*
X7550D01*
X7500Y22600D02*
Y22700D01*
X6250Y22600D02*
X6350D01*
X6300Y22550D02*
Y22650D01*
X5000Y22600D02*
X5100D01*
X5050Y22550D02*
Y22650D01*
X8750Y23700D02*
X8850D01*
X8800Y23650D02*
Y23750D01*
X7450Y23700D02*
X7550D01*
X7500Y23650D02*
Y23750D01*
X6250Y23700D02*
X6350D01*
X6300Y23650D02*
Y23750D01*
X4950Y23650D02*
X5050D01*
X5000Y23600D02*
Y23700D01*
X16650Y14400D02*
X16750D01*
X16700Y14350D02*
Y14450D01*
X17300Y10800D02*
X17400D01*
X17350Y10750D02*
Y10850D01*
X17300Y10450D02*
X17400D01*
X17350Y10400D02*
Y10500D01*
X17750Y8400D02*
X17850D01*
X17800Y8350D02*
Y8450D01*
X18750Y12600D02*
X18850D01*
X18800Y12550D02*
Y12650D01*
X18343Y11812D02*
X18443D01*
X18393Y11762D02*
Y11862D01*
X18750Y11400D02*
X18850D01*
X18800Y11350D02*
Y11450D01*
X17543Y11812D02*
X17643D01*
X17593Y11762D02*
Y11862D01*
X17943Y11812D02*
X18043D01*
X17993Y11762D02*
Y11862D01*
X17550Y11400D02*
X17650D01*
X17600Y11350D02*
Y11450D01*
X17950Y11400D02*
X18050D01*
X18000Y11350D02*
Y11450D01*
X18350Y11400D02*
X18450D01*
X18400Y11350D02*
Y11450D01*
X18743Y11812D02*
X18843D01*
X18793Y11762D02*
Y11862D01*
X17550Y12200D02*
X17650D01*
X17600Y12150D02*
Y12250D01*
X17950Y12200D02*
X18050D01*
X18000Y12150D02*
Y12250D01*
X18350Y12600D02*
X18450D01*
X18400Y12550D02*
Y12650D01*
X17950Y12600D02*
X18050D01*
X18000Y12550D02*
Y12650D01*
X17550Y12600D02*
X17650D01*
X17600Y12550D02*
Y12650D01*
X18350Y14200D02*
X18450D01*
X18400Y14150D02*
Y14250D01*
X20330Y8052D02*
X20430D01*
X20380Y8002D02*
Y8102D01*
X20349Y9867D02*
X20449D01*
X20399Y9817D02*
Y9917D01*
X25950Y18700D02*
X26050D01*
X26000Y18650D02*
Y18750D01*
X12750Y11400D02*
X12850D01*
X12800Y11350D02*
Y11450D01*
X13950Y13400D02*
X14050D01*
X14000Y13350D02*
Y13450D01*
X25550Y11900D02*
X25650D01*
X25600Y11850D02*
Y11950D01*
X13574Y15027D02*
X13674D01*
X13624Y14977D02*
Y15077D01*
X12961Y13602D02*
X13061D01*
X13011Y13552D02*
Y13652D01*
X25700Y15300D02*
X25800D01*
X25750Y15250D02*
Y15350D01*
X15750Y5750D02*
X15850D01*
X15800Y5700D02*
Y5800D01*
X14950Y7600D02*
X15050D01*
X15000Y7550D02*
Y7650D01*
Y8950D02*
X15100D01*
X15050Y8900D02*
Y9000D01*
X17750Y8800D02*
X17850D01*
X17800Y8750D02*
Y8850D01*
X16350Y16400D02*
X16450D01*
X16400Y16350D02*
Y16450D01*
X16350Y16800D02*
X16450D01*
X16400Y16750D02*
Y16850D01*
X17350Y22000D02*
X17450D01*
X17400Y21950D02*
Y22050D01*
X16950Y22000D02*
X17050D01*
X17000Y21950D02*
Y22050D01*
X14074Y10642D02*
X14174D01*
X14124Y10592D02*
Y10692D01*
X16150Y9400D02*
X16250D01*
X16200Y9350D02*
Y9450D01*
X16350Y17200D02*
X16450D01*
X16400Y17150D02*
Y17250D01*
X25850Y8700D02*
X25950D01*
X25900Y8650D02*
Y8750D01*
X26003Y15435D02*
X26103D01*
X26053Y15385D02*
Y15485D01*
X25750Y19000D02*
X25850D01*
X25800Y18950D02*
Y19050D01*
X25450Y8550D02*
X25550D01*
X25500Y8500D02*
Y8600D01*
X25850Y8350D02*
X25950D01*
X25900Y8300D02*
Y8400D01*
Y12100D02*
X26000D01*
X25950Y12050D02*
Y12150D01*
X25900Y11750D02*
X26000D01*
X25950Y11700D02*
Y11800D01*
X26000Y15150D02*
X26100D01*
X26050Y15100D02*
Y15200D01*
X25500Y18700D02*
X25600D01*
X25550Y18650D02*
Y18750D01*
X20698Y14724D02*
X20798D01*
X20748Y14674D02*
Y14774D01*
X14053Y9780D02*
X14153D01*
X14103Y9730D02*
Y9830D01*
X14273Y12220D02*
X14373D01*
X14323Y12170D02*
Y12270D01*
X17750Y22000D02*
X17850D01*
X17800Y21950D02*
Y22050D01*
M02*
