G04*
G04 #@! TF.GenerationSoftware,Altium Limited,Altium Designer,23.1.1 (15)*
G04*
G04 Layer_Color=2752767*
%FSLAX24Y24*%
%MOIN*%
G70*
G04*
G04 #@! TF.SameCoordinates,52EA1FD8-E69D-4759-9217-C2292DA48D7E*
G04*
G04*
G04 #@! TF.FilePolarity,Positive*
G04*
G01*
G75*
%ADD11C,0.0100*%
%ADD51C,0.0150*%
%ADD53C,0.0050*%
%ADD54C,0.0160*%
%ADD55C,0.0140*%
D11*
X51374Y8665D02*
G03*
X51374Y8665I-333J0D01*
G01*
X51041Y9832D02*
X51374Y10499D01*
X50707D02*
X51374D01*
X50707D02*
X51041Y9832D01*
X50707Y6832D02*
X51374D01*
Y7499D01*
X50707D02*
X51374D01*
X50707Y6832D02*
Y7499D01*
X50874Y5499D02*
X51041Y5332D01*
X50707Y5499D02*
X50874D01*
X50707D02*
X50874Y5665D01*
X50707Y5832D02*
X50874Y5665D01*
X50707Y5832D02*
X50874D01*
X51041Y5999D01*
X51207Y5832D01*
X51374D01*
X51207Y5665D02*
X51374Y5832D01*
X51207Y5665D02*
X51374Y5499D01*
X51207D02*
X51374D01*
X51041Y5332D02*
X51207Y5499D01*
X113612Y10232D02*
Y9832D01*
Y10032D01*
X113712Y10132D01*
X113812Y10232D01*
X113912D01*
X114512Y9832D02*
Y10432D01*
X114212Y10132D01*
X114612D01*
X115212Y9832D02*
X114812D01*
X115212Y10232D01*
Y10332D01*
X115112Y10432D01*
X114912D01*
X114812Y10332D01*
X115412D02*
X115512Y10432D01*
X115712D01*
X115812Y10332D01*
Y9932D01*
X115712Y9832D01*
X115512D01*
X115412Y9932D01*
Y10332D01*
X116012Y9732D02*
X116411D01*
X117011Y9832D02*
X116611D01*
X117011Y10232D01*
Y10332D01*
X116911Y10432D01*
X116711D01*
X116611Y10332D01*
X117211D02*
X117311Y10432D01*
X117511D01*
X117611Y10332D01*
Y9932D01*
X117511Y9832D01*
X117311D01*
X117211Y9932D01*
Y10332D01*
X117811D02*
X117911Y10432D01*
X118111D01*
X118211Y10332D01*
Y9932D01*
X118111Y9832D01*
X117911D01*
X117811Y9932D01*
Y10332D01*
X118411Y10432D02*
Y9832D01*
Y10132D01*
X118511Y10232D01*
X118711D01*
X118811Y10132D01*
Y9832D01*
X119011Y10332D02*
X119111Y10432D01*
X119311D01*
X119410Y10332D01*
Y10232D01*
X119311Y10132D01*
X119410Y10032D01*
Y9932D01*
X119311Y9832D01*
X119111D01*
X119011Y9932D01*
Y10032D01*
X119111Y10132D01*
X119011Y10232D01*
Y10332D01*
X119111Y10132D02*
X119311D01*
X119610Y10332D02*
X119710Y10432D01*
X119910D01*
X120010Y10332D01*
Y9932D01*
X119910Y9832D01*
X119710D01*
X119610Y9932D01*
Y10332D01*
X120210Y9732D02*
X120610D01*
X120810Y10332D02*
X120910Y10432D01*
X121110D01*
X121210Y10332D01*
Y10232D01*
X121110Y10132D01*
X121010D01*
X121110D01*
X121210Y10032D01*
Y9932D01*
X121110Y9832D01*
X120910D01*
X120810Y9932D01*
X121410Y10332D02*
X121510Y10432D01*
X121710D01*
X121810Y10332D01*
Y9932D01*
X121710Y9832D01*
X121510D01*
X121410Y9932D01*
Y10332D01*
X122010D02*
X122110Y10432D01*
X122310D01*
X122410Y10332D01*
Y9932D01*
X122310Y9832D01*
X122110D01*
X122010Y9932D01*
Y10332D01*
X122609Y10232D02*
Y9832D01*
Y10032D01*
X122709Y10132D01*
X122809Y10232D01*
X122909D01*
X123209Y9832D02*
X123409D01*
X123309D01*
Y10432D01*
X123209Y10332D01*
X123709D02*
X123809Y10432D01*
X124009D01*
X124109Y10332D01*
Y9932D01*
X124009Y9832D01*
X123809D01*
X123709Y9932D01*
Y10332D01*
X124309D02*
X124409Y10432D01*
X124609D01*
X124709Y10332D01*
Y9932D01*
X124609Y9832D01*
X124409D01*
X124309Y9932D01*
Y10332D01*
X124909Y9832D02*
Y10232D01*
X125009D01*
X125109Y10132D01*
Y9832D01*
Y10132D01*
X125209Y10232D01*
X125309Y10132D01*
Y9832D01*
X125509Y10332D02*
X125608Y10432D01*
X125808D01*
X125908Y10332D01*
Y9932D01*
X125808Y9832D01*
X125608D01*
X125509Y9932D01*
Y10332D01*
X126108Y9832D02*
Y10232D01*
X126208D01*
X126308Y10132D01*
Y9832D01*
Y10132D01*
X126408Y10232D01*
X126508Y10132D01*
Y9832D01*
X126708Y10232D02*
X127108Y9832D01*
X126908Y10032D01*
X127108Y10232D01*
X126708Y9832D01*
X127308Y10332D02*
X127408Y10432D01*
X127608D01*
X127708Y10332D01*
Y9932D01*
X127608Y9832D01*
X127408D01*
X127308Y9932D01*
Y10332D01*
X114012Y8732D02*
X113712D01*
X113612Y8632D01*
Y8432D01*
X113712Y8332D01*
X114012D01*
X114612Y8932D02*
X114412Y8832D01*
X114212Y8632D01*
Y8432D01*
X114312Y8332D01*
X114512D01*
X114612Y8432D01*
Y8532D01*
X114512Y8632D01*
X114212D01*
X114812Y8832D02*
X114912Y8932D01*
X115112D01*
X115212Y8832D01*
Y8432D01*
X115112Y8332D01*
X114912D01*
X114812Y8432D01*
Y8832D01*
X115412D02*
X115512Y8932D01*
X115712D01*
X115812Y8832D01*
Y8432D01*
X115712Y8332D01*
X115512D01*
X115412Y8432D01*
Y8832D01*
X116012Y8932D02*
Y8332D01*
Y8632D01*
X116112Y8732D01*
X116311D01*
X116411Y8632D01*
Y8332D01*
X116611Y8832D02*
X116711Y8932D01*
X116911D01*
X117011Y8832D01*
Y8732D01*
X116911Y8632D01*
X116811D01*
X116911D01*
X117011Y8532D01*
Y8432D01*
X116911Y8332D01*
X116711D01*
X116611Y8432D01*
X117611Y8332D02*
X117211D01*
X117611Y8732D01*
Y8832D01*
X117511Y8932D01*
X117311D01*
X117211Y8832D01*
X117811D02*
X117911Y8932D01*
X118111D01*
X118211Y8832D01*
Y8432D01*
X118111Y8332D01*
X117911D01*
X117811Y8432D01*
Y8832D01*
X118411Y8332D02*
Y8732D01*
X118511D01*
X118611Y8632D01*
Y8332D01*
Y8632D01*
X118711Y8732D01*
X118811Y8632D01*
Y8332D01*
X119011Y8832D02*
X119111Y8932D01*
X119311D01*
X119410Y8832D01*
Y8432D01*
X119311Y8332D01*
X119111D01*
X119011Y8432D01*
Y8832D01*
X119610Y8332D02*
Y8732D01*
X119710D01*
X119810Y8632D01*
Y8332D01*
Y8632D01*
X119910Y8732D01*
X120010Y8632D01*
Y8332D01*
X120210Y8732D02*
X120610Y8332D01*
X120410Y8532D01*
X120610Y8732D01*
X120210Y8332D01*
X120810Y8832D02*
X120910Y8932D01*
X121110D01*
X121210Y8832D01*
Y8432D01*
X121110Y8332D01*
X120910D01*
X120810Y8432D01*
Y8832D01*
X121410Y8232D02*
X121810D01*
X122410Y8332D02*
X122010D01*
X122410Y8732D01*
Y8832D01*
X122310Y8932D01*
X122110D01*
X122010Y8832D01*
X123009Y8932D02*
X122809Y8832D01*
X122609Y8632D01*
Y8432D01*
X122709Y8332D01*
X122909D01*
X123009Y8432D01*
Y8532D01*
X122909Y8632D01*
X122609D01*
X123209Y8932D02*
X123609D01*
Y8832D01*
X123209Y8432D01*
Y8332D01*
X123809Y8832D02*
X123909Y8932D01*
X124109D01*
X124209Y8832D01*
Y8432D01*
X124109Y8332D01*
X123909D01*
X123809Y8432D01*
Y8832D01*
X124409D02*
X124509Y8932D01*
X124709D01*
X124809Y8832D01*
Y8432D01*
X124709Y8332D01*
X124509D01*
X124409Y8432D01*
Y8832D01*
X125009D02*
X125109Y8932D01*
X125309D01*
X125409Y8832D01*
Y8732D01*
X125309Y8632D01*
X125209D01*
X125309D01*
X125409Y8532D01*
Y8432D01*
X125309Y8332D01*
X125109D01*
X125009Y8432D01*
X125908Y8332D02*
Y8932D01*
X125608Y8632D01*
X126008D01*
X126208Y8832D02*
X126308Y8932D01*
X126508D01*
X126608Y8832D01*
Y8432D01*
X126508Y8332D01*
X126308D01*
X126208Y8432D01*
Y8832D01*
X126808Y8932D02*
X127208D01*
Y8832D01*
X126808Y8432D01*
Y8332D01*
X127408D02*
X127608D01*
X127508D01*
Y8932D01*
X127408Y8832D01*
X114012Y7232D02*
X113712D01*
X113612Y7132D01*
Y6932D01*
X113712Y6832D01*
X114012D01*
X114612D02*
X114212D01*
X114612Y7232D01*
Y7332D01*
X114512Y7432D01*
X114312D01*
X114212Y7332D01*
X115212Y7432D02*
X114812D01*
Y7132D01*
X115012Y7232D01*
X115112D01*
X115212Y7132D01*
Y6932D01*
X115112Y6832D01*
X114912D01*
X114812Y6932D01*
X115412Y7332D02*
X115512Y7432D01*
X115712D01*
X115812Y7332D01*
Y6932D01*
X115712Y6832D01*
X115512D01*
X115412Y6932D01*
Y7332D01*
X116012Y7432D02*
Y6832D01*
Y7132D01*
X116112Y7232D01*
X116311D01*
X116411Y7132D01*
Y6832D01*
X116611D02*
X116811D01*
X116711D01*
Y7432D01*
X116611Y7332D01*
X117411Y6832D02*
Y7432D01*
X117111Y7132D01*
X117511D01*
X117711Y7332D02*
X117811Y7432D01*
X118011D01*
X118111Y7332D01*
Y6932D01*
X118011Y6832D01*
X117811D01*
X117711Y6932D01*
Y7332D01*
X118311Y6832D02*
Y7232D01*
X118411D01*
X118511Y7132D01*
Y6832D01*
Y7132D01*
X118611Y7232D01*
X118711Y7132D01*
Y6832D01*
X118911Y7332D02*
X119011Y7432D01*
X119211D01*
X119311Y7332D01*
Y6932D01*
X119211Y6832D01*
X119011D01*
X118911Y6932D01*
Y7332D01*
X119510Y6832D02*
Y7232D01*
X119610D01*
X119710Y7132D01*
Y6832D01*
Y7132D01*
X119810Y7232D01*
X119910Y7132D01*
Y6832D01*
X120110Y7232D02*
X120510Y6832D01*
X120310Y7032D01*
X120510Y7232D01*
X120110Y6832D01*
X120710Y7332D02*
X120810Y7432D01*
X121010D01*
X121110Y7332D01*
Y6932D01*
X121010Y6832D01*
X120810D01*
X120710Y6932D01*
Y7332D01*
X113612Y5732D02*
X113812Y5332D01*
X114012Y5732D01*
X114612Y5932D02*
X114212D01*
Y5632D01*
X114412Y5732D01*
X114512D01*
X114612Y5632D01*
Y5432D01*
X114512Y5332D01*
X114312D01*
X114212Y5432D01*
X114812Y5332D02*
X115012D01*
X114912D01*
Y5932D01*
X114812Y5832D01*
X115312Y5932D02*
Y5332D01*
Y5632D01*
X115412Y5732D01*
X115612D01*
X115712Y5632D01*
Y5332D01*
X116311D02*
X115912D01*
X116311Y5732D01*
Y5832D01*
X116212Y5932D01*
X116012D01*
X115912Y5832D01*
X116911Y5932D02*
X116511D01*
Y5632D01*
X116711Y5732D01*
X116811D01*
X116911Y5632D01*
Y5432D01*
X116811Y5332D01*
X116611D01*
X116511Y5432D01*
X117111Y5332D02*
Y5732D01*
X117211D01*
X117311Y5632D01*
Y5332D01*
Y5632D01*
X117411Y5732D01*
X117511Y5632D01*
Y5332D01*
X117711Y5832D02*
X117811Y5932D01*
X118011D01*
X118111Y5832D01*
Y5432D01*
X118011Y5332D01*
X117811D01*
X117711Y5432D01*
Y5832D01*
X118311Y5332D02*
Y5732D01*
X118411D01*
X118511Y5632D01*
Y5332D01*
Y5632D01*
X118611Y5732D01*
X118711Y5632D01*
Y5332D01*
X118911Y5732D02*
X119311Y5332D01*
X119111Y5532D01*
X119311Y5732D01*
X118911Y5332D01*
X119510Y5832D02*
X119610Y5932D01*
X119810D01*
X119910Y5832D01*
Y5432D01*
X119810Y5332D01*
X119610D01*
X119510Y5432D01*
Y5832D01*
X106154Y9832D02*
Y10432D01*
X106454D01*
X106554Y10332D01*
Y10132D01*
X106454Y10032D01*
X106154D01*
X106354D02*
X106554Y9832D01*
X106854D02*
X107054D01*
X107154Y9932D01*
Y10132D01*
X107054Y10232D01*
X106854D01*
X106754Y10132D01*
Y9932D01*
X106854Y9832D01*
X107354Y10232D02*
Y9932D01*
X107454Y9832D01*
X107754D01*
Y10232D01*
X107954Y9832D02*
Y10232D01*
X108254D01*
X108354Y10132D01*
Y9832D01*
X108953Y10432D02*
Y9832D01*
X108654D01*
X108554Y9932D01*
Y10132D01*
X108654Y10232D01*
X108953D01*
X109453Y9832D02*
X109253D01*
X109153Y9932D01*
Y10132D01*
X109253Y10232D01*
X109453D01*
X109553Y10132D01*
Y10032D01*
X109153D01*
X110153Y10432D02*
Y9832D01*
X109853D01*
X109753Y9932D01*
Y10132D01*
X109853Y10232D01*
X110153D01*
X106154Y8332D02*
Y8932D01*
X106454D01*
X106554Y8832D01*
Y8632D01*
X106454Y8532D01*
X106154D01*
X106354D02*
X106554Y8332D01*
X106854D02*
X107054D01*
X107154Y8432D01*
Y8632D01*
X107054Y8732D01*
X106854D01*
X106754Y8632D01*
Y8432D01*
X106854Y8332D01*
X107354Y8732D02*
Y8432D01*
X107454Y8332D01*
X107754D01*
Y8732D01*
X107954Y8332D02*
Y8732D01*
X108254D01*
X108354Y8632D01*
Y8332D01*
X108953Y8932D02*
Y8332D01*
X108654D01*
X108554Y8432D01*
Y8632D01*
X108654Y8732D01*
X108953D01*
X109453Y8332D02*
X109253D01*
X109153Y8432D01*
Y8632D01*
X109253Y8732D01*
X109453D01*
X109553Y8632D01*
Y8532D01*
X109153D01*
X110153Y8932D02*
Y8332D01*
X109853D01*
X109753Y8432D01*
Y8632D01*
X109853Y8732D01*
X110153D01*
X106154Y6832D02*
Y7432D01*
X106454D01*
X106554Y7332D01*
Y7132D01*
X106454Y7032D01*
X106154D01*
X106354D02*
X106554Y6832D01*
X106854D02*
X107054D01*
X107154Y6932D01*
Y7132D01*
X107054Y7232D01*
X106854D01*
X106754Y7132D01*
Y6932D01*
X106854Y6832D01*
X107354Y7232D02*
Y6932D01*
X107454Y6832D01*
X107754D01*
Y7232D01*
X107954Y6832D02*
Y7232D01*
X108254D01*
X108354Y7132D01*
Y6832D01*
X108953Y7432D02*
Y6832D01*
X108654D01*
X108554Y6932D01*
Y7132D01*
X108654Y7232D01*
X108953D01*
X109453Y6832D02*
X109253D01*
X109153Y6932D01*
Y7132D01*
X109253Y7232D01*
X109453D01*
X109553Y7132D01*
Y7032D01*
X109153D01*
X110153Y7432D02*
Y6832D01*
X109853D01*
X109753Y6932D01*
Y7132D01*
X109853Y7232D01*
X110153D01*
X106154Y5332D02*
Y5932D01*
X106454D01*
X106554Y5832D01*
Y5632D01*
X106454Y5532D01*
X106154D01*
X106354D02*
X106554Y5332D01*
X106854D02*
X107054D01*
X107154Y5432D01*
Y5632D01*
X107054Y5732D01*
X106854D01*
X106754Y5632D01*
Y5432D01*
X106854Y5332D01*
X107354Y5732D02*
Y5432D01*
X107454Y5332D01*
X107754D01*
Y5732D01*
X107954Y5332D02*
Y5732D01*
X108254D01*
X108354Y5632D01*
Y5332D01*
X108953Y5932D02*
Y5332D01*
X108654D01*
X108554Y5432D01*
Y5632D01*
X108654Y5732D01*
X108953D01*
X109453Y5332D02*
X109253D01*
X109153Y5432D01*
Y5632D01*
X109253Y5732D01*
X109453D01*
X109553Y5632D01*
Y5532D01*
X109153D01*
X110153Y5932D02*
Y5332D01*
X109853D01*
X109753Y5432D01*
Y5632D01*
X109853Y5732D01*
X110153D01*
X100256Y9832D02*
Y10432D01*
X100556D01*
X100656Y10332D01*
Y10132D01*
X100556Y10032D01*
X100256D01*
X100956Y10232D02*
X101156D01*
X101256Y10132D01*
Y9832D01*
X100956D01*
X100856Y9932D01*
X100956Y10032D01*
X101256D01*
X101855Y10432D02*
Y9832D01*
X101555D01*
X101455Y9932D01*
Y10132D01*
X101555Y10232D01*
X101855D01*
X100256Y8332D02*
Y8932D01*
X100556D01*
X100656Y8832D01*
Y8632D01*
X100556Y8532D01*
X100256D01*
X100956Y8732D02*
X101156D01*
X101256Y8632D01*
Y8332D01*
X100956D01*
X100856Y8432D01*
X100956Y8532D01*
X101256D01*
X101855Y8932D02*
Y8332D01*
X101555D01*
X101455Y8432D01*
Y8632D01*
X101555Y8732D01*
X101855D01*
X100256Y6832D02*
Y7432D01*
X100556D01*
X100656Y7332D01*
Y7132D01*
X100556Y7032D01*
X100256D01*
X100956Y7232D02*
X101156D01*
X101256Y7132D01*
Y6832D01*
X100956D01*
X100856Y6932D01*
X100956Y7032D01*
X101256D01*
X101855Y7432D02*
Y6832D01*
X101555D01*
X101455Y6932D01*
Y7132D01*
X101555Y7232D01*
X101855D01*
X100256Y5932D02*
Y5532D01*
X100456Y5332D01*
X100656Y5532D01*
Y5932D01*
X100856Y5332D02*
X101056D01*
X100956D01*
Y5732D01*
X100856D01*
X101455D02*
X101655D01*
X101755Y5632D01*
Y5332D01*
X101455D01*
X101356Y5432D01*
X101455Y5532D01*
X101755D01*
X85260Y10432D02*
X85660D01*
X85460D01*
Y9832D01*
X85960D02*
X86160D01*
X86260Y9932D01*
Y10132D01*
X86160Y10232D01*
X85960D01*
X85860Y10132D01*
Y9932D01*
X85960Y9832D01*
X86460Y9632D02*
Y10232D01*
X86760D01*
X86860Y10132D01*
Y9932D01*
X86760Y9832D01*
X86460D01*
X87660Y10432D02*
Y9832D01*
X88059D01*
X88359Y10232D02*
X88559D01*
X88659Y10132D01*
Y9832D01*
X88359D01*
X88259Y9932D01*
X88359Y10032D01*
X88659D01*
X88859Y10232D02*
Y9932D01*
X88959Y9832D01*
X89259D01*
Y9732D01*
X89159Y9632D01*
X89059D01*
X89259Y9832D02*
Y10232D01*
X89759Y9832D02*
X89559D01*
X89459Y9932D01*
Y10132D01*
X89559Y10232D01*
X89759D01*
X89859Y10132D01*
Y10032D01*
X89459D01*
X90059Y10232D02*
Y9832D01*
Y10032D01*
X90159Y10132D01*
X90259Y10232D01*
X90359D01*
X91258Y10132D02*
X91658D01*
X92458Y10432D02*
Y9832D01*
X92758D01*
X92858Y9932D01*
Y10032D01*
X92758Y10132D01*
X92458D01*
X92758D01*
X92858Y10232D01*
Y10332D01*
X92758Y10432D01*
X92458D01*
X93158Y9832D02*
X93358D01*
X93458Y9932D01*
Y10132D01*
X93358Y10232D01*
X93158D01*
X93058Y10132D01*
Y9932D01*
X93158Y9832D01*
X93758Y10332D02*
Y10232D01*
X93658D01*
X93858D01*
X93758D01*
Y9932D01*
X93858Y9832D01*
X94257Y10332D02*
Y10232D01*
X94158D01*
X94357D01*
X94257D01*
Y9932D01*
X94357Y9832D01*
X94757D02*
X94957D01*
X95057Y9932D01*
Y10132D01*
X94957Y10232D01*
X94757D01*
X94657Y10132D01*
Y9932D01*
X94757Y9832D01*
X95257D02*
Y10232D01*
X95357D01*
X95457Y10132D01*
Y9832D01*
Y10132D01*
X95557Y10232D01*
X95657Y10132D01*
Y9832D01*
X96457Y10432D02*
Y9832D01*
X96857D01*
X97157Y10232D02*
X97356D01*
X97456Y10132D01*
Y9832D01*
X97157D01*
X97057Y9932D01*
X97157Y10032D01*
X97456D01*
X97656Y10232D02*
Y9932D01*
X97756Y9832D01*
X98056D01*
Y9732D01*
X97956Y9632D01*
X97856D01*
X98056Y9832D02*
Y10232D01*
X98556Y9832D02*
X98356D01*
X98256Y9932D01*
Y10132D01*
X98356Y10232D01*
X98556D01*
X98656Y10132D01*
Y10032D01*
X98256D01*
X98856Y10232D02*
Y9832D01*
Y10032D01*
X98956Y10132D01*
X99056Y10232D01*
X99156D01*
X85260Y8932D02*
X85660D01*
X85460D01*
Y8332D01*
X85960D02*
X86160D01*
X86260Y8432D01*
Y8632D01*
X86160Y8732D01*
X85960D01*
X85860Y8632D01*
Y8432D01*
X85960Y8332D01*
X86460Y8132D02*
Y8732D01*
X86760D01*
X86860Y8632D01*
Y8432D01*
X86760Y8332D01*
X86460D01*
X87660Y8932D02*
Y8332D01*
X88059D01*
X88359Y8732D02*
X88559D01*
X88659Y8632D01*
Y8332D01*
X88359D01*
X88259Y8432D01*
X88359Y8532D01*
X88659D01*
X88859Y8732D02*
Y8432D01*
X88959Y8332D01*
X89259D01*
Y8232D01*
X89159Y8132D01*
X89059D01*
X89259Y8332D02*
Y8732D01*
X89759Y8332D02*
X89559D01*
X89459Y8432D01*
Y8632D01*
X89559Y8732D01*
X89759D01*
X89859Y8632D01*
Y8532D01*
X89459D01*
X90059Y8732D02*
Y8332D01*
Y8532D01*
X90159Y8632D01*
X90259Y8732D01*
X90359D01*
X91258Y8632D02*
X91658D01*
X92458Y8932D02*
Y8332D01*
X92758D01*
X92858Y8432D01*
Y8532D01*
X92758Y8632D01*
X92458D01*
X92758D01*
X92858Y8732D01*
Y8832D01*
X92758Y8932D01*
X92458D01*
X93158Y8332D02*
X93358D01*
X93458Y8432D01*
Y8632D01*
X93358Y8732D01*
X93158D01*
X93058Y8632D01*
Y8432D01*
X93158Y8332D01*
X93758Y8832D02*
Y8732D01*
X93658D01*
X93858D01*
X93758D01*
Y8432D01*
X93858Y8332D01*
X94257Y8832D02*
Y8732D01*
X94158D01*
X94357D01*
X94257D01*
Y8432D01*
X94357Y8332D01*
X94757D02*
X94957D01*
X95057Y8432D01*
Y8632D01*
X94957Y8732D01*
X94757D01*
X94657Y8632D01*
Y8432D01*
X94757Y8332D01*
X95257D02*
Y8732D01*
X95357D01*
X95457Y8632D01*
Y8332D01*
Y8632D01*
X95557Y8732D01*
X95657Y8632D01*
Y8332D01*
X96457Y8932D02*
Y8332D01*
X96857D01*
X97157Y8732D02*
X97356D01*
X97456Y8632D01*
Y8332D01*
X97157D01*
X97057Y8432D01*
X97157Y8532D01*
X97456D01*
X97656Y8732D02*
Y8432D01*
X97756Y8332D01*
X98056D01*
Y8232D01*
X97956Y8132D01*
X97856D01*
X98056Y8332D02*
Y8732D01*
X98556Y8332D02*
X98356D01*
X98256Y8432D01*
Y8632D01*
X98356Y8732D01*
X98556D01*
X98656Y8632D01*
Y8532D01*
X98256D01*
X98856Y8732D02*
Y8332D01*
Y8532D01*
X98956Y8632D01*
X99056Y8732D01*
X99156D01*
X85260Y7432D02*
X85660D01*
X85460D01*
Y6832D01*
X85960D02*
X86160D01*
X86260Y6932D01*
Y7132D01*
X86160Y7232D01*
X85960D01*
X85860Y7132D01*
Y6932D01*
X85960Y6832D01*
X86460Y6632D02*
Y7232D01*
X86760D01*
X86860Y7132D01*
Y6932D01*
X86760Y6832D01*
X86460D01*
X87660Y7432D02*
Y6832D01*
X88059D01*
X88359Y7232D02*
X88559D01*
X88659Y7132D01*
Y6832D01*
X88359D01*
X88259Y6932D01*
X88359Y7032D01*
X88659D01*
X88859Y7232D02*
Y6932D01*
X88959Y6832D01*
X89259D01*
Y6732D01*
X89159Y6632D01*
X89059D01*
X89259Y6832D02*
Y7232D01*
X89759Y6832D02*
X89559D01*
X89459Y6932D01*
Y7132D01*
X89559Y7232D01*
X89759D01*
X89859Y7132D01*
Y7032D01*
X89459D01*
X90059Y7232D02*
Y6832D01*
Y7032D01*
X90159Y7132D01*
X90259Y7232D01*
X90359D01*
X91258Y7132D02*
X91658D01*
X92458Y7432D02*
Y6832D01*
X92758D01*
X92858Y6932D01*
Y7032D01*
X92758Y7132D01*
X92458D01*
X92758D01*
X92858Y7232D01*
Y7332D01*
X92758Y7432D01*
X92458D01*
X93158Y6832D02*
X93358D01*
X93458Y6932D01*
Y7132D01*
X93358Y7232D01*
X93158D01*
X93058Y7132D01*
Y6932D01*
X93158Y6832D01*
X93758Y7332D02*
Y7232D01*
X93658D01*
X93858D01*
X93758D01*
Y6932D01*
X93858Y6832D01*
X94257Y7332D02*
Y7232D01*
X94158D01*
X94357D01*
X94257D01*
Y6932D01*
X94357Y6832D01*
X94757D02*
X94957D01*
X95057Y6932D01*
Y7132D01*
X94957Y7232D01*
X94757D01*
X94657Y7132D01*
Y6932D01*
X94757Y6832D01*
X95257D02*
Y7232D01*
X95357D01*
X95457Y7132D01*
Y6832D01*
Y7132D01*
X95557Y7232D01*
X95657Y7132D01*
Y6832D01*
X96457Y7432D02*
Y6832D01*
X96857D01*
X97157Y7232D02*
X97356D01*
X97456Y7132D01*
Y6832D01*
X97157D01*
X97057Y6932D01*
X97157Y7032D01*
X97456D01*
X97656Y7232D02*
Y6932D01*
X97756Y6832D01*
X98056D01*
Y6732D01*
X97956Y6632D01*
X97856D01*
X98056Y6832D02*
Y7232D01*
X98556Y6832D02*
X98356D01*
X98256Y6932D01*
Y7132D01*
X98356Y7232D01*
X98556D01*
X98656Y7132D01*
Y7032D01*
X98256D01*
X98856Y7232D02*
Y6832D01*
Y7032D01*
X98956Y7132D01*
X99056Y7232D01*
X99156D01*
X85260Y5932D02*
X85660D01*
X85460D01*
Y5332D01*
X85960D02*
X86160D01*
X86260Y5432D01*
Y5632D01*
X86160Y5732D01*
X85960D01*
X85860Y5632D01*
Y5432D01*
X85960Y5332D01*
X86460Y5132D02*
Y5732D01*
X86760D01*
X86860Y5632D01*
Y5432D01*
X86760Y5332D01*
X86460D01*
X87660Y5932D02*
Y5332D01*
X88059D01*
X88359Y5732D02*
X88559D01*
X88659Y5632D01*
Y5332D01*
X88359D01*
X88259Y5432D01*
X88359Y5532D01*
X88659D01*
X88859Y5732D02*
Y5432D01*
X88959Y5332D01*
X89259D01*
Y5232D01*
X89159Y5132D01*
X89059D01*
X89259Y5332D02*
Y5732D01*
X89759Y5332D02*
X89559D01*
X89459Y5432D01*
Y5632D01*
X89559Y5732D01*
X89759D01*
X89859Y5632D01*
Y5532D01*
X89459D01*
X90059Y5732D02*
Y5332D01*
Y5532D01*
X90159Y5632D01*
X90259Y5732D01*
X90359D01*
X91258Y5632D02*
X91658D01*
X92458Y5932D02*
Y5332D01*
X92758D01*
X92858Y5432D01*
Y5532D01*
X92758Y5632D01*
X92458D01*
X92758D01*
X92858Y5732D01*
Y5832D01*
X92758Y5932D01*
X92458D01*
X93158Y5332D02*
X93358D01*
X93458Y5432D01*
Y5632D01*
X93358Y5732D01*
X93158D01*
X93058Y5632D01*
Y5432D01*
X93158Y5332D01*
X93758Y5832D02*
Y5732D01*
X93658D01*
X93858D01*
X93758D01*
Y5432D01*
X93858Y5332D01*
X94257Y5832D02*
Y5732D01*
X94158D01*
X94357D01*
X94257D01*
Y5432D01*
X94357Y5332D01*
X94757D02*
X94957D01*
X95057Y5432D01*
Y5632D01*
X94957Y5732D01*
X94757D01*
X94657Y5632D01*
Y5432D01*
X94757Y5332D01*
X95257D02*
Y5732D01*
X95357D01*
X95457Y5632D01*
Y5332D01*
Y5632D01*
X95557Y5732D01*
X95657Y5632D01*
Y5332D01*
X96457Y5932D02*
Y5332D01*
X96857D01*
X97157Y5732D02*
X97356D01*
X97456Y5632D01*
Y5332D01*
X97157D01*
X97057Y5432D01*
X97157Y5532D01*
X97456D01*
X97656Y5732D02*
Y5432D01*
X97756Y5332D01*
X98056D01*
Y5232D01*
X97956Y5132D01*
X97856D01*
X98056Y5332D02*
Y5732D01*
X98556Y5332D02*
X98356D01*
X98256Y5432D01*
Y5632D01*
X98356Y5732D01*
X98556D01*
X98656Y5632D01*
Y5532D01*
X98256D01*
X98856Y5732D02*
Y5332D01*
Y5532D01*
X98956Y5632D01*
X99056Y5732D01*
X99156D01*
X78322Y10332D02*
X78222Y10432D01*
X78022D01*
X77922Y10332D01*
Y10232D01*
X78022Y10132D01*
X78222D01*
X78322Y10032D01*
Y9932D01*
X78222Y9832D01*
X78022D01*
X77922Y9932D01*
X78522Y9832D02*
X78722D01*
X78622D01*
Y10432D01*
X78522D01*
X79122Y9832D02*
X79322D01*
X79422Y9932D01*
Y10132D01*
X79322Y10232D01*
X79122D01*
X79022Y10132D01*
Y9932D01*
X79122Y9832D01*
X79722Y10332D02*
Y10232D01*
X79622D01*
X79822D01*
X79722D01*
Y9932D01*
X79822Y9832D01*
X77922Y8332D02*
Y8932D01*
X78222D01*
X78322Y8832D01*
Y8632D01*
X78222Y8532D01*
X77922D01*
X78122D02*
X78322Y8332D01*
X78622D02*
X78822D01*
X78922Y8432D01*
Y8632D01*
X78822Y8732D01*
X78622D01*
X78522Y8632D01*
Y8432D01*
X78622Y8332D01*
X79122Y8732D02*
Y8432D01*
X79222Y8332D01*
X79522D01*
Y8732D01*
X79722Y8332D02*
Y8732D01*
X80022D01*
X80122Y8632D01*
Y8332D01*
X80721Y8932D02*
Y8332D01*
X80422D01*
X80322Y8432D01*
Y8632D01*
X80422Y8732D01*
X80721D01*
X77922Y6832D02*
Y7432D01*
X78222D01*
X78322Y7332D01*
Y7132D01*
X78222Y7032D01*
X77922D01*
X78122D02*
X78322Y6832D01*
X78622D02*
X78822D01*
X78922Y6932D01*
Y7132D01*
X78822Y7232D01*
X78622D01*
X78522Y7132D01*
Y6932D01*
X78622Y6832D01*
X79122Y7232D02*
Y6932D01*
X79222Y6832D01*
X79522D01*
Y7232D01*
X79722Y6832D02*
Y7232D01*
X80022D01*
X80122Y7132D01*
Y6832D01*
X80721Y7432D02*
Y6832D01*
X80422D01*
X80322Y6932D01*
Y7132D01*
X80422Y7232D01*
X80721D01*
X77922Y5332D02*
Y5932D01*
X78222D01*
X78322Y5832D01*
Y5632D01*
X78222Y5532D01*
X77922D01*
X78122D02*
X78322Y5332D01*
X78622D02*
X78822D01*
X78922Y5432D01*
Y5632D01*
X78822Y5732D01*
X78622D01*
X78522Y5632D01*
Y5432D01*
X78622Y5332D01*
X79122Y5732D02*
Y5432D01*
X79222Y5332D01*
X79522D01*
Y5732D01*
X79722Y5332D02*
Y5732D01*
X80022D01*
X80122Y5632D01*
Y5332D01*
X80721Y5932D02*
Y5332D01*
X80422D01*
X80322Y5432D01*
Y5632D01*
X80422Y5732D01*
X80721D01*
X72864Y9832D02*
Y10432D01*
X73164D01*
X73263Y10332D01*
Y10132D01*
X73164Y10032D01*
X72864D01*
X73463Y10432D02*
X73863D01*
X73663D01*
Y9832D01*
X74063Y10432D02*
Y9832D01*
Y10132D01*
X74463D01*
Y10432D01*
Y9832D01*
X72864Y8332D02*
Y8932D01*
X73164D01*
X73263Y8832D01*
Y8632D01*
X73164Y8532D01*
X72864D01*
X73463Y8932D02*
X73863D01*
X73663D01*
Y8332D01*
X74063Y8932D02*
Y8332D01*
Y8632D01*
X74463D01*
Y8932D01*
Y8332D01*
X72864Y6832D02*
Y7432D01*
X73164D01*
X73263Y7332D01*
Y7132D01*
X73164Y7032D01*
X72864D01*
X73463Y7432D02*
X73863D01*
X73663D01*
Y6832D01*
X74063Y7432D02*
Y6832D01*
Y7132D01*
X74463D01*
Y7432D01*
Y6832D01*
X72864Y5332D02*
Y5932D01*
X73164D01*
X73263Y5832D01*
Y5632D01*
X73164Y5532D01*
X72864D01*
X73463Y5932D02*
X73863D01*
X73663D01*
Y5332D01*
X74063Y5932D02*
Y5332D01*
Y5632D01*
X74463D01*
Y5932D01*
Y5332D01*
X61967Y10332D02*
X62067Y10432D01*
X62267D01*
X62367Y10332D01*
Y10232D01*
X62267Y10132D01*
X62167D01*
X62267D01*
X62367Y10032D01*
Y9932D01*
X62267Y9832D01*
X62067D01*
X61967Y9932D01*
X62567Y9832D02*
X62767D01*
X62667D01*
Y10432D01*
X62567Y10332D01*
X63066Y9832D02*
Y9932D01*
X63166D01*
Y9832D01*
X63066D01*
X63966Y10432D02*
X63566D01*
Y10132D01*
X63766Y10232D01*
X63866D01*
X63966Y10132D01*
Y9932D01*
X63866Y9832D01*
X63666D01*
X63566Y9932D01*
X64166Y10332D02*
X64266Y10432D01*
X64466D01*
X64566Y10332D01*
Y9932D01*
X64466Y9832D01*
X64266D01*
X64166Y9932D01*
Y10332D01*
X64766Y9832D02*
Y10232D01*
X64866D01*
X64966Y10132D01*
Y9832D01*
Y10132D01*
X65066Y10232D01*
X65166Y10132D01*
Y9832D01*
X65366D02*
X65566D01*
X65466D01*
Y10232D01*
X65366D01*
X65866Y9832D02*
X66065D01*
X65965D01*
Y10432D01*
X65866D01*
X67165Y9832D02*
X66965Y10032D01*
Y10232D01*
X67165Y10432D01*
X67465Y10332D02*
X67565Y10432D01*
X67765D01*
X67865Y10332D01*
Y9932D01*
X67765Y9832D01*
X67565D01*
X67465Y9932D01*
Y10332D01*
X68065Y9832D02*
Y9932D01*
X68165D01*
Y9832D01*
X68065D01*
X68565Y10332D02*
X68665Y10432D01*
X68865D01*
X68965Y10332D01*
Y10232D01*
X68865Y10132D01*
X68965Y10032D01*
Y9932D01*
X68865Y9832D01*
X68665D01*
X68565Y9932D01*
Y10032D01*
X68665Y10132D01*
X68565Y10232D01*
Y10332D01*
X68665Y10132D02*
X68865D01*
X69164Y10332D02*
X69264Y10432D01*
X69464D01*
X69564Y10332D01*
Y9932D01*
X69464Y9832D01*
X69264D01*
X69164Y9932D01*
Y10332D01*
X69764Y9832D02*
Y10232D01*
X69864D01*
X69964Y10132D01*
Y9832D01*
Y10132D01*
X70064Y10232D01*
X70164Y10132D01*
Y9832D01*
X70364D02*
Y10232D01*
X70464D01*
X70564Y10132D01*
Y9832D01*
Y10132D01*
X70664Y10232D01*
X70764Y10132D01*
Y9832D01*
X70964D02*
X71164Y10032D01*
Y10232D01*
X70964Y10432D01*
X61967Y8332D02*
X62167D01*
X62067D01*
Y8932D01*
X61967Y8832D01*
X62866Y8332D02*
X62467D01*
X62866Y8732D01*
Y8832D01*
X62767Y8932D01*
X62567D01*
X62467Y8832D01*
X63466Y8932D02*
X63066D01*
Y8632D01*
X63266Y8732D01*
X63366D01*
X63466Y8632D01*
Y8432D01*
X63366Y8332D01*
X63166D01*
X63066Y8432D01*
X63666Y8332D02*
Y8432D01*
X63766D01*
Y8332D01*
X63666D01*
X64166Y8432D02*
X64266Y8332D01*
X64466D01*
X64566Y8432D01*
Y8832D01*
X64466Y8932D01*
X64266D01*
X64166Y8832D01*
Y8732D01*
X64266Y8632D01*
X64566D01*
X64766Y8832D02*
X64866Y8932D01*
X65066D01*
X65166Y8832D01*
Y8732D01*
X65066Y8632D01*
X65166Y8532D01*
Y8432D01*
X65066Y8332D01*
X64866D01*
X64766Y8432D01*
Y8532D01*
X64866Y8632D01*
X64766Y8732D01*
Y8832D01*
X64866Y8632D02*
X65066D01*
X65366Y8332D02*
Y8732D01*
X65466D01*
X65566Y8632D01*
Y8332D01*
Y8632D01*
X65666Y8732D01*
X65766Y8632D01*
Y8332D01*
X65965D02*
X66165D01*
X66065D01*
Y8732D01*
X65965D01*
X66465Y8332D02*
X66665D01*
X66565D01*
Y8932D01*
X66465D01*
X67765Y8332D02*
X67565Y8532D01*
Y8732D01*
X67765Y8932D01*
X68065Y8832D02*
X68165Y8932D01*
X68365D01*
X68465Y8832D01*
Y8732D01*
X68365Y8632D01*
X68265D01*
X68365D01*
X68465Y8532D01*
Y8432D01*
X68365Y8332D01*
X68165D01*
X68065Y8432D01*
X68665Y8332D02*
Y8432D01*
X68765D01*
Y8332D01*
X68665D01*
X69564D02*
X69164D01*
X69564Y8732D01*
Y8832D01*
X69464Y8932D01*
X69264D01*
X69164Y8832D01*
X69764D02*
X69864Y8932D01*
X70064D01*
X70164Y8832D01*
Y8432D01*
X70064Y8332D01*
X69864D01*
X69764Y8432D01*
Y8832D01*
X70364Y8332D02*
Y8732D01*
X70464D01*
X70564Y8632D01*
Y8332D01*
Y8632D01*
X70664Y8732D01*
X70764Y8632D01*
Y8332D01*
X70964D02*
Y8732D01*
X71064D01*
X71164Y8632D01*
Y8332D01*
Y8632D01*
X71264Y8732D01*
X71364Y8632D01*
Y8332D01*
X71564D02*
X71764Y8532D01*
Y8732D01*
X71564Y8932D01*
X62367Y7432D02*
X61967D01*
Y7132D01*
X62167Y7232D01*
X62267D01*
X62367Y7132D01*
Y6932D01*
X62267Y6832D01*
X62067D01*
X61967Y6932D01*
X62966Y7432D02*
X62567D01*
Y7132D01*
X62767Y7232D01*
X62866D01*
X62966Y7132D01*
Y6932D01*
X62866Y6832D01*
X62667D01*
X62567Y6932D01*
X63166Y6832D02*
Y6932D01*
X63266D01*
Y6832D01*
X63166D01*
X63666D02*
X63866D01*
X63766D01*
Y7432D01*
X63666Y7332D01*
X64566Y6832D02*
X64166D01*
X64566Y7232D01*
Y7332D01*
X64466Y7432D01*
X64266D01*
X64166Y7332D01*
X64766Y6832D02*
Y7232D01*
X64866D01*
X64966Y7132D01*
Y6832D01*
Y7132D01*
X65066Y7232D01*
X65166Y7132D01*
Y6832D01*
X65366D02*
X65566D01*
X65466D01*
Y7232D01*
X65366D01*
X65866Y6832D02*
X66065D01*
X65965D01*
Y7432D01*
X65866D01*
X67165Y6832D02*
X66965Y7032D01*
Y7232D01*
X67165Y7432D01*
X67465Y6832D02*
X67665D01*
X67565D01*
Y7432D01*
X67465Y7332D01*
X67965Y6832D02*
Y6932D01*
X68065D01*
Y6832D01*
X67965D01*
X68765D02*
Y7432D01*
X68465Y7132D01*
X68865D01*
X69064Y7332D02*
X69164Y7432D01*
X69364D01*
X69464Y7332D01*
Y6932D01*
X69364Y6832D01*
X69164D01*
X69064Y6932D01*
Y7332D01*
X69664Y6832D02*
Y7232D01*
X69764D01*
X69864Y7132D01*
Y6832D01*
Y7132D01*
X69964Y7232D01*
X70064Y7132D01*
Y6832D01*
X70264D02*
Y7232D01*
X70364D01*
X70464Y7132D01*
Y6832D01*
Y7132D01*
X70564Y7232D01*
X70664Y7132D01*
Y6832D01*
X70864D02*
X71064Y7032D01*
Y7232D01*
X70864Y7432D01*
X61967Y5332D02*
X62167D01*
X62067D01*
Y5932D01*
X61967Y5832D01*
X62467D02*
X62567Y5932D01*
X62767D01*
X62866Y5832D01*
Y5432D01*
X62767Y5332D01*
X62567D01*
X62467Y5432D01*
Y5832D01*
X63066Y5332D02*
Y5432D01*
X63166D01*
Y5332D01*
X63066D01*
X63566Y5832D02*
X63666Y5932D01*
X63866D01*
X63966Y5832D01*
Y5432D01*
X63866Y5332D01*
X63666D01*
X63566Y5432D01*
Y5832D01*
X64166D02*
X64266Y5932D01*
X64466D01*
X64566Y5832D01*
Y5432D01*
X64466Y5332D01*
X64266D01*
X64166Y5432D01*
Y5832D01*
X64766Y5332D02*
Y5732D01*
X64866D01*
X64966Y5632D01*
Y5332D01*
Y5632D01*
X65066Y5732D01*
X65166Y5632D01*
Y5332D01*
X65366D02*
X65566D01*
X65466D01*
Y5732D01*
X65366D01*
X65866Y5332D02*
X66065D01*
X65965D01*
Y5932D01*
X65866D01*
X67165Y5332D02*
X66965Y5532D01*
Y5732D01*
X67165Y5932D01*
X67465Y5832D02*
X67565Y5932D01*
X67765D01*
X67865Y5832D01*
Y5432D01*
X67765Y5332D01*
X67565D01*
X67465Y5432D01*
Y5832D01*
X68065Y5332D02*
Y5432D01*
X68165D01*
Y5332D01*
X68065D01*
X68965D02*
X68565D01*
X68965Y5732D01*
Y5832D01*
X68865Y5932D01*
X68665D01*
X68565Y5832D01*
X69564Y5932D02*
X69164D01*
Y5632D01*
X69364Y5732D01*
X69464D01*
X69564Y5632D01*
Y5432D01*
X69464Y5332D01*
X69264D01*
X69164Y5432D01*
X69764Y5332D02*
Y5732D01*
X69864D01*
X69964Y5632D01*
Y5332D01*
Y5632D01*
X70064Y5732D01*
X70164Y5632D01*
Y5332D01*
X70364D02*
Y5732D01*
X70464D01*
X70564Y5632D01*
Y5332D01*
Y5632D01*
X70664Y5732D01*
X70764Y5632D01*
Y5332D01*
X70964D02*
X71164Y5532D01*
Y5732D01*
X70964Y5932D01*
X56068Y3832D02*
X56268D01*
X56168D01*
Y4432D01*
X56068Y4332D01*
X56568Y3932D02*
X56668Y3832D01*
X56868D01*
X56968Y3932D01*
Y4332D01*
X56868Y4432D01*
X56668D01*
X56568Y4332D01*
Y4232D01*
X56668Y4132D01*
X56968D01*
X57568Y4432D02*
X57168D01*
Y4132D01*
X57368Y4232D01*
X57468D01*
X57568Y4132D01*
Y3932D01*
X57468Y3832D01*
X57268D01*
X57168Y3932D01*
X58368Y4432D02*
X58767D01*
X58568D01*
Y3832D01*
X59067D02*
X59267D01*
X59367Y3932D01*
Y4132D01*
X59267Y4232D01*
X59067D01*
X58967Y4132D01*
Y3932D01*
X59067Y3832D01*
X59667Y4332D02*
Y4232D01*
X59567D01*
X59767D01*
X59667D01*
Y3932D01*
X59767Y3832D01*
X60167Y4232D02*
X60367D01*
X60467Y4132D01*
Y3832D01*
X60167D01*
X60067Y3932D01*
X60167Y4032D01*
X60467D01*
X60667Y3832D02*
X60867D01*
X60767D01*
Y4432D01*
X60667D01*
X56068Y10332D02*
X56168Y10432D01*
X56368D01*
X56468Y10332D01*
Y10232D01*
X56368Y10132D01*
X56268D01*
X56368D01*
X56468Y10032D01*
Y9932D01*
X56368Y9832D01*
X56168D01*
X56068Y9932D01*
X56368Y8332D02*
Y8932D01*
X56068Y8632D01*
X56468D01*
X56068Y6832D02*
X56268D01*
X56168D01*
Y7432D01*
X56068Y7332D01*
X56968Y7432D02*
X56768Y7332D01*
X56568Y7132D01*
Y6932D01*
X56668Y6832D01*
X56868D01*
X56968Y6932D01*
Y7032D01*
X56868Y7132D01*
X56568D01*
X56068Y5332D02*
X56268D01*
X56168D01*
Y5932D01*
X56068Y5832D01*
X56568Y5932D02*
X56968D01*
Y5832D01*
X56568Y5432D01*
Y5332D01*
X57568D02*
X57168D01*
X57568Y5732D01*
Y5832D01*
X57468Y5932D01*
X57268D01*
X57168Y5832D01*
X68864Y1583D02*
X69264D01*
X68864Y1783D02*
X69264D01*
X70064Y1383D02*
Y1982D01*
X70364D01*
X70464Y1883D01*
Y1683D01*
X70364Y1583D01*
X70064D01*
X70264D02*
X70464Y1383D01*
X70764D02*
X70964D01*
X71064Y1483D01*
Y1683D01*
X70964Y1783D01*
X70764D01*
X70664Y1683D01*
Y1483D01*
X70764Y1383D01*
X71263Y1783D02*
Y1483D01*
X71363Y1383D01*
X71663D01*
Y1783D01*
X71963Y1883D02*
Y1783D01*
X71863D01*
X72063D01*
X71963D01*
Y1483D01*
X72063Y1383D01*
X72663D02*
X72463D01*
X72363Y1483D01*
Y1683D01*
X72463Y1783D01*
X72663D01*
X72763Y1683D01*
Y1583D01*
X72363D01*
X73363Y1982D02*
Y1383D01*
X73063D01*
X72963Y1483D01*
Y1683D01*
X73063Y1783D01*
X73363D01*
X74163Y1383D02*
Y1982D01*
X74462D01*
X74562Y1883D01*
Y1683D01*
X74462Y1583D01*
X74163D01*
X74862Y1783D02*
X75062D01*
X75162Y1683D01*
Y1383D01*
X74862D01*
X74762Y1483D01*
X74862Y1583D01*
X75162D01*
X75462Y1883D02*
Y1783D01*
X75362D01*
X75562D01*
X75462D01*
Y1483D01*
X75562Y1383D01*
X75862Y1982D02*
Y1383D01*
Y1683D01*
X75962Y1783D01*
X76162D01*
X76262Y1683D01*
Y1383D01*
X77062Y1982D02*
Y1383D01*
X77461D01*
X77961D02*
X77761D01*
X77661Y1483D01*
Y1683D01*
X77761Y1783D01*
X77961D01*
X78061Y1683D01*
Y1583D01*
X77661D01*
X78261Y1383D02*
Y1783D01*
X78561D01*
X78661Y1683D01*
Y1383D01*
X79061Y1183D02*
X79161D01*
X79261Y1283D01*
Y1783D01*
X78961D01*
X78861Y1683D01*
Y1483D01*
X78961Y1383D01*
X79261D01*
X79561Y1883D02*
Y1783D01*
X79461D01*
X79661D01*
X79561D01*
Y1483D01*
X79661Y1383D01*
X79961Y1982D02*
Y1383D01*
Y1683D01*
X80061Y1783D01*
X80261D01*
X80361Y1683D01*
Y1383D01*
X81160Y1683D02*
X81560D01*
X81360Y1883D02*
Y1483D01*
X82360Y1982D02*
X82760D01*
X82560D01*
Y1383D01*
X83060D02*
X83260D01*
X83360Y1483D01*
Y1683D01*
X83260Y1783D01*
X83060D01*
X82960Y1683D01*
Y1483D01*
X83060Y1383D01*
X83659D02*
X83859D01*
X83959Y1483D01*
Y1683D01*
X83859Y1783D01*
X83659D01*
X83560Y1683D01*
Y1483D01*
X83659Y1383D01*
X84159D02*
X84359D01*
X84259D01*
Y1982D01*
X84159D01*
X85659Y1883D02*
X85559Y1982D01*
X85359D01*
X85259Y1883D01*
Y1783D01*
X85359Y1683D01*
X85559D01*
X85659Y1583D01*
Y1483D01*
X85559Y1383D01*
X85359D01*
X85259Y1483D01*
X85859Y1383D02*
X86059D01*
X85959D01*
Y1783D01*
X85859D01*
X86359D02*
X86758D01*
X86359Y1383D01*
X86758D01*
X87258D02*
X87058D01*
X86958Y1483D01*
Y1683D01*
X87058Y1783D01*
X87258D01*
X87358Y1683D01*
Y1583D01*
X86958D01*
X88158D02*
X88558D01*
X88158Y1783D02*
X88558D01*
X89758Y1883D02*
X89658Y1982D01*
X89458D01*
X89358Y1883D01*
Y1783D01*
X89458Y1683D01*
X89658D01*
X89758Y1583D01*
Y1483D01*
X89658Y1383D01*
X89458D01*
X89358Y1483D01*
X89957Y1383D02*
X90157D01*
X90057D01*
Y1982D01*
X89957D01*
X90557Y1383D02*
X90757D01*
X90857Y1483D01*
Y1683D01*
X90757Y1783D01*
X90557D01*
X90457Y1683D01*
Y1483D01*
X90557Y1383D01*
X91157Y1883D02*
Y1783D01*
X91057D01*
X91257D01*
X91157D01*
Y1483D01*
X91257Y1383D01*
X92157D02*
X92357D01*
X92257D01*
Y1982D01*
X92157D01*
X92956Y1383D02*
X92757D01*
X92657Y1483D01*
Y1683D01*
X92757Y1783D01*
X92956D01*
X93056Y1683D01*
Y1583D01*
X92657D01*
X93256Y1383D02*
Y1783D01*
X93556D01*
X93656Y1683D01*
Y1383D01*
X94056Y1183D02*
X94156D01*
X94256Y1283D01*
Y1783D01*
X93956D01*
X93856Y1683D01*
Y1483D01*
X93956Y1383D01*
X94256D01*
X94556Y1883D02*
Y1783D01*
X94456D01*
X94656D01*
X94556D01*
Y1483D01*
X94656Y1383D01*
X94956Y1982D02*
Y1383D01*
Y1683D01*
X95056Y1783D01*
X95256D01*
X95356Y1683D01*
Y1383D01*
X96255Y1783D02*
X96455D01*
X96555Y1683D01*
Y1383D01*
X96255D01*
X96155Y1483D01*
X96255Y1583D01*
X96555D01*
X96755Y1383D02*
X97055D01*
X97155Y1483D01*
X97055Y1583D01*
X96855D01*
X96755Y1683D01*
X96855Y1783D01*
X97155D01*
X98355Y1982D02*
Y1383D01*
X98055D01*
X97955Y1483D01*
Y1683D01*
X98055Y1783D01*
X98355D01*
X98855Y1383D02*
X98655D01*
X98555Y1483D01*
Y1683D01*
X98655Y1783D01*
X98855D01*
X98955Y1683D01*
Y1583D01*
X98555D01*
X99254Y1383D02*
Y1883D01*
Y1683D01*
X99154D01*
X99354D01*
X99254D01*
Y1883D01*
X99354Y1982D01*
X99654Y1383D02*
X99854D01*
X99754D01*
Y1783D01*
X99654D01*
X100154Y1383D02*
Y1783D01*
X100454D01*
X100554Y1683D01*
Y1383D01*
X101054D02*
X100854D01*
X100754Y1483D01*
Y1683D01*
X100854Y1783D01*
X101054D01*
X101154Y1683D01*
Y1583D01*
X100754D01*
X101754Y1982D02*
Y1383D01*
X101454D01*
X101354Y1483D01*
Y1683D01*
X101454Y1783D01*
X101754D01*
X102553Y1383D02*
X102753D01*
X102653D01*
Y1783D01*
X102553D01*
X103053Y1383D02*
Y1783D01*
X103353D01*
X103453Y1683D01*
Y1383D01*
X104353Y1883D02*
Y1783D01*
X104253D01*
X104453D01*
X104353D01*
Y1483D01*
X104453Y1383D01*
X104753Y1982D02*
Y1383D01*
Y1683D01*
X104853Y1783D01*
X105053D01*
X105153Y1683D01*
Y1383D01*
X105652D02*
X105452D01*
X105352Y1483D01*
Y1683D01*
X105452Y1783D01*
X105652D01*
X105752Y1683D01*
Y1583D01*
X105352D01*
X106552Y1383D02*
Y1982D01*
X106852D01*
X106952Y1883D01*
Y1683D01*
X106852Y1583D01*
X106552D01*
X107552Y1883D02*
X107452Y1982D01*
X107252D01*
X107152Y1883D01*
Y1483D01*
X107252Y1383D01*
X107452D01*
X107552Y1483D01*
X107752Y1982D02*
Y1383D01*
X108052D01*
X108152Y1483D01*
Y1583D01*
X108052Y1683D01*
X107752D01*
X108052D01*
X108152Y1783D01*
Y1883D01*
X108052Y1982D01*
X107752D01*
X108951Y1383D02*
X109151D01*
X109051D01*
Y1982D01*
X108951D01*
X109551Y1783D02*
X109751D01*
X109851Y1683D01*
Y1383D01*
X109551D01*
X109451Y1483D01*
X109551Y1583D01*
X109851D01*
X110051Y1783D02*
Y1483D01*
X110151Y1383D01*
X110451D01*
Y1283D01*
X110351Y1183D01*
X110251D01*
X110451Y1383D02*
Y1783D01*
X110751Y1383D02*
X110951D01*
X111051Y1483D01*
Y1683D01*
X110951Y1783D01*
X110751D01*
X110651Y1683D01*
Y1483D01*
X110751Y1383D01*
X111251Y1783D02*
Y1483D01*
X111351Y1383D01*
X111650D01*
Y1783D01*
X111950Y1883D02*
Y1783D01*
X111850D01*
X112050D01*
X111950D01*
Y1483D01*
X112050Y1383D01*
X72363Y2582D02*
X72763D01*
X72363Y2782D02*
X72763D01*
X73963Y2882D02*
X73863Y2982D01*
X73663D01*
X73563Y2882D01*
Y2482D01*
X73663Y2382D01*
X73863D01*
X73963Y2482D01*
X74263Y2782D02*
X74462D01*
X74562Y2682D01*
Y2382D01*
X74263D01*
X74163Y2482D01*
X74263Y2582D01*
X74562D01*
X74762Y2382D02*
X74962D01*
X74862D01*
Y2982D01*
X74762D01*
X75662Y2782D02*
X75362D01*
X75262Y2682D01*
Y2482D01*
X75362Y2382D01*
X75662D01*
X75862Y2782D02*
Y2482D01*
X75962Y2382D01*
X76262D01*
Y2782D01*
X76462Y2382D02*
X76662D01*
X76562D01*
Y2982D01*
X76462D01*
X77062Y2782D02*
X77262D01*
X77362Y2682D01*
Y2382D01*
X77062D01*
X76962Y2482D01*
X77062Y2582D01*
X77362D01*
X77661Y2882D02*
Y2782D01*
X77561D01*
X77761D01*
X77661D01*
Y2482D01*
X77761Y2382D01*
X78361D02*
X78161D01*
X78061Y2482D01*
Y2682D01*
X78161Y2782D01*
X78361D01*
X78461Y2682D01*
Y2582D01*
X78061D01*
X79061Y2982D02*
Y2382D01*
X78761D01*
X78661Y2482D01*
Y2682D01*
X78761Y2782D01*
X79061D01*
X79961Y2382D02*
Y2882D01*
Y2682D01*
X79861D01*
X80061D01*
X79961D01*
Y2882D01*
X80061Y2982D01*
X80361Y2782D02*
Y2382D01*
Y2582D01*
X80461Y2682D01*
X80560Y2782D01*
X80660D01*
X81060Y2382D02*
X81260D01*
X81360Y2482D01*
Y2682D01*
X81260Y2782D01*
X81060D01*
X80960Y2682D01*
Y2482D01*
X81060Y2382D01*
X81560D02*
Y2782D01*
X81660D01*
X81760Y2682D01*
Y2382D01*
Y2682D01*
X81860Y2782D01*
X81960Y2682D01*
Y2382D01*
X82860Y2882D02*
Y2782D01*
X82760D01*
X82960D01*
X82860D01*
Y2482D01*
X82960Y2382D01*
X83360D02*
X83560D01*
X83659Y2482D01*
Y2682D01*
X83560Y2782D01*
X83360D01*
X83260Y2682D01*
Y2482D01*
X83360Y2382D01*
X83959D02*
X84159D01*
X84259Y2482D01*
Y2682D01*
X84159Y2782D01*
X83959D01*
X83859Y2682D01*
Y2482D01*
X83959Y2382D01*
X84459D02*
X84659D01*
X84559D01*
Y2982D01*
X84459D01*
X85559Y2382D02*
X85859D01*
X85959Y2482D01*
X85859Y2582D01*
X85659D01*
X85559Y2682D01*
X85659Y2782D01*
X85959D01*
X86259Y2882D02*
Y2782D01*
X86159D01*
X86359D01*
X86259D01*
Y2482D01*
X86359Y2382D01*
X86758Y2782D02*
X86958D01*
X87058Y2682D01*
Y2382D01*
X86758D01*
X86659Y2482D01*
X86758Y2582D01*
X87058D01*
X87258Y2782D02*
Y2382D01*
Y2582D01*
X87358Y2682D01*
X87458Y2782D01*
X87558D01*
X87958Y2882D02*
Y2782D01*
X87858D01*
X88058D01*
X87958D01*
Y2482D01*
X88058Y2382D01*
X89358Y2782D02*
X89058D01*
X88958Y2682D01*
Y2482D01*
X89058Y2382D01*
X89358D01*
X89857D02*
X89658D01*
X89558Y2482D01*
Y2682D01*
X89658Y2782D01*
X89857D01*
X89957Y2682D01*
Y2582D01*
X89558D01*
X90157Y2382D02*
Y2782D01*
X90457D01*
X90557Y2682D01*
Y2382D01*
X90857Y2882D02*
Y2782D01*
X90757D01*
X90957D01*
X90857D01*
Y2482D01*
X90957Y2382D01*
X91257Y2782D02*
Y2382D01*
Y2582D01*
X91357Y2682D01*
X91457Y2782D01*
X91557D01*
X92157Y2382D02*
X91957D01*
X91857Y2482D01*
Y2682D01*
X91957Y2782D01*
X92157D01*
X92257Y2682D01*
Y2582D01*
X91857D01*
X93056Y2182D02*
Y2782D01*
X93356D01*
X93456Y2682D01*
Y2482D01*
X93356Y2382D01*
X93056D01*
X93756D02*
X93956D01*
X94056Y2482D01*
Y2682D01*
X93956Y2782D01*
X93756D01*
X93656Y2682D01*
Y2482D01*
X93756Y2382D01*
X94256D02*
X94556D01*
X94656Y2482D01*
X94556Y2582D01*
X94356D01*
X94256Y2682D01*
X94356Y2782D01*
X94656D01*
X94856Y2382D02*
X95056D01*
X94956D01*
Y2782D01*
X94856D01*
X95456Y2882D02*
Y2782D01*
X95356D01*
X95556D01*
X95456D01*
Y2482D01*
X95556Y2382D01*
X95856D02*
X96055D01*
X95955D01*
Y2782D01*
X95856D01*
X96455Y2382D02*
X96655D01*
X96755Y2482D01*
Y2682D01*
X96655Y2782D01*
X96455D01*
X96355Y2682D01*
Y2482D01*
X96455Y2382D01*
X96955D02*
Y2782D01*
X97255D01*
X97355Y2682D01*
Y2382D01*
X98255Y2882D02*
Y2782D01*
X98155D01*
X98355D01*
X98255D01*
Y2482D01*
X98355Y2382D01*
X98755D02*
X98955D01*
X99054Y2482D01*
Y2682D01*
X98955Y2782D01*
X98755D01*
X98655Y2682D01*
Y2482D01*
X98755Y2382D01*
X99954Y2882D02*
Y2782D01*
X99854D01*
X100054D01*
X99954D01*
Y2482D01*
X100054Y2382D01*
X100454D02*
X100654D01*
X100754Y2482D01*
Y2682D01*
X100654Y2782D01*
X100454D01*
X100354Y2682D01*
Y2482D01*
X100454Y2382D01*
X101054D02*
X101254D01*
X101354Y2482D01*
Y2682D01*
X101254Y2782D01*
X101054D01*
X100954Y2682D01*
Y2482D01*
X101054Y2382D01*
X101554D02*
X101754D01*
X101654D01*
Y2982D01*
X101554D01*
X102953Y2382D02*
X102753D01*
X102653Y2482D01*
Y2682D01*
X102753Y2782D01*
X102953D01*
X103053Y2682D01*
Y2582D01*
X102653D01*
X103253Y2382D02*
Y2782D01*
X103553D01*
X103653Y2682D01*
Y2382D01*
X104253Y2982D02*
Y2382D01*
X103953D01*
X103853Y2482D01*
Y2682D01*
X103953Y2782D01*
X104253D01*
X105452D02*
X105153D01*
X105053Y2682D01*
Y2482D01*
X105153Y2382D01*
X105452D01*
X105952D02*
X105752D01*
X105652Y2482D01*
Y2682D01*
X105752Y2782D01*
X105952D01*
X106052Y2682D01*
Y2582D01*
X105652D01*
X106252Y2382D02*
Y2782D01*
X106552D01*
X106652Y2682D01*
Y2382D01*
X106952Y2882D02*
Y2782D01*
X106852D01*
X107052D01*
X106952D01*
Y2482D01*
X107052Y2382D01*
X107352Y2782D02*
Y2382D01*
Y2582D01*
X107452Y2682D01*
X107552Y2782D01*
X107652D01*
X108252Y2382D02*
X108052D01*
X107952Y2482D01*
Y2682D01*
X108052Y2782D01*
X108252D01*
X108351Y2682D01*
Y2582D01*
X107952D01*
X109151Y2182D02*
Y2782D01*
X109451D01*
X109551Y2682D01*
Y2482D01*
X109451Y2382D01*
X109151D01*
X109851D02*
X110051D01*
X110151Y2482D01*
Y2682D01*
X110051Y2782D01*
X109851D01*
X109751Y2682D01*
Y2482D01*
X109851Y2382D01*
X110351D02*
X110651D01*
X110751Y2482D01*
X110651Y2582D01*
X110451D01*
X110351Y2682D01*
X110451Y2782D01*
X110751D01*
X110951Y2382D02*
X111151D01*
X111051D01*
Y2782D01*
X110951D01*
X111550Y2882D02*
Y2782D01*
X111450D01*
X111650D01*
X111550D01*
Y2482D01*
X111650Y2382D01*
X111950D02*
X112150D01*
X112050D01*
Y2782D01*
X111950D01*
X112550Y2382D02*
X112750D01*
X112850Y2482D01*
Y2682D01*
X112750Y2782D01*
X112550D01*
X112450Y2682D01*
Y2482D01*
X112550Y2382D01*
X113050D02*
Y2782D01*
X113350D01*
X113450Y2682D01*
Y2382D01*
X113650D02*
Y2482D01*
X113750D01*
Y2382D01*
X113650D01*
D51*
X50110Y10882D02*
X164018D01*
X50110Y4882D02*
X164018D01*
X50110Y3382D02*
X164018D01*
Y12382D01*
X50110D02*
X164018D01*
X50110Y3382D02*
Y12382D01*
X150232Y3382D02*
Y12382D01*
X136895Y3382D02*
Y12382D01*
X128358Y3382D02*
Y12382D01*
X113162Y3382D02*
Y12382D01*
X105704Y3382D02*
Y12382D01*
X99806Y3382D02*
Y12382D01*
X84810Y3382D02*
Y12382D01*
X77472Y3382D02*
Y12382D01*
X72414Y3382D02*
Y12382D01*
X61517Y3382D02*
Y12382D01*
X55618Y3382D02*
Y12382D01*
D53*
X40014Y1969D02*
G03*
X40014Y1969I-250J0D01*
G01*
Y23622D02*
G03*
X40014Y23622I-250J0D01*
G01*
X2218Y1969D02*
G03*
X2218Y1969I-250J0D01*
G01*
Y23622D02*
G03*
X2218Y23622I-250J0D01*
G01*
X17675Y21875D02*
X17800Y21750D01*
X17550Y21875D02*
X17675D01*
X17550D02*
X17675Y22000D01*
X17550Y22125D02*
X17675Y22000D01*
X17550Y22125D02*
X17675D01*
X17800Y22250D01*
X17925Y22125D01*
X18050D01*
X17925Y22000D02*
X18050Y22125D01*
X17925Y22000D02*
X18050Y21875D01*
X17925D02*
X18050D01*
X17800Y21750D02*
X17925Y21875D01*
X14198Y12095D02*
X14323Y11970D01*
X14073Y12095D02*
X14198D01*
X14073D02*
X14198Y12220D01*
X14073Y12345D02*
X14198Y12220D01*
X14073Y12345D02*
X14198D01*
X14323Y12470D01*
X14448Y12345D01*
X14573D01*
X14448Y12220D02*
X14573Y12345D01*
X14448Y12220D02*
X14573Y12095D01*
X14448D02*
X14573D01*
X14323Y11970D02*
X14448Y12095D01*
X13978Y9655D02*
X14103Y9530D01*
X13853Y9655D02*
X13978D01*
X13853D02*
X13978Y9780D01*
X13853Y9905D02*
X13978Y9780D01*
X13853Y9905D02*
X13978D01*
X14103Y10030D01*
X14228Y9905D01*
X14353D01*
X14228Y9780D02*
X14353Y9905D01*
X14228Y9780D02*
X14353Y9655D01*
X14228D02*
X14353D01*
X14103Y9530D02*
X14228Y9655D01*
X20623Y14599D02*
X20748Y14474D01*
X20498Y14599D02*
X20623D01*
X20498D02*
X20623Y14724D01*
X20498Y14849D02*
X20623Y14724D01*
X20498Y14849D02*
X20623D01*
X20748Y14974D01*
X20873Y14849D01*
X20998D01*
X20873Y14724D02*
X20998Y14849D01*
X20873Y14724D02*
X20998Y14599D01*
X20873D02*
X20998D01*
X20748Y14474D02*
X20873Y14599D01*
X25425Y18575D02*
X25550Y18450D01*
X25300Y18575D02*
X25425D01*
X25300D02*
X25425Y18700D01*
X25300Y18825D02*
X25425Y18700D01*
X25300Y18825D02*
X25425D01*
X25550Y18950D01*
X25675Y18825D01*
X25800D01*
X25675Y18700D02*
X25800Y18825D01*
X25675Y18700D02*
X25800Y18575D01*
X25675D02*
X25800D01*
X25550Y18450D02*
X25675Y18575D01*
X25925Y15025D02*
X26050Y14900D01*
X25800Y15025D02*
X25925D01*
X25800D02*
X25925Y15150D01*
X25800Y15275D02*
X25925Y15150D01*
X25800Y15275D02*
X25925D01*
X26050Y15400D01*
X26175Y15275D01*
X26300D01*
X26175Y15150D02*
X26300Y15275D01*
X26175Y15150D02*
X26300Y15025D01*
X26175D02*
X26300D01*
X26050Y14900D02*
X26175Y15025D01*
X25825Y11625D02*
X25950Y11500D01*
X25700Y11625D02*
X25825D01*
X25700D02*
X25825Y11750D01*
X25700Y11875D02*
X25825Y11750D01*
X25700Y11875D02*
X25825D01*
X25950Y12000D01*
X26075Y11875D01*
X26200D01*
X26075Y11750D02*
X26200Y11875D01*
X26075Y11750D02*
X26200Y11625D01*
X26075D02*
X26200D01*
X25950Y11500D02*
X26075Y11625D01*
X25825Y11975D02*
X25950Y11850D01*
X25700Y11975D02*
X25825D01*
X25700D02*
X25825Y12100D01*
X25700Y12225D02*
X25825Y12100D01*
X25700Y12225D02*
X25825D01*
X25950Y12350D01*
X26075Y12225D01*
X26200D01*
X26075Y12100D02*
X26200Y12225D01*
X26075Y12100D02*
X26200Y11975D01*
X26075D02*
X26200D01*
X25950Y11850D02*
X26075Y11975D01*
X25775Y8225D02*
X25900Y8100D01*
X25650Y8225D02*
X25775D01*
X25650D02*
X25775Y8350D01*
X25650Y8475D02*
X25775Y8350D01*
X25650Y8475D02*
X25775D01*
X25900Y8600D01*
X26025Y8475D01*
X26150D01*
X26025Y8350D02*
X26150Y8475D01*
X26025Y8350D02*
X26150Y8225D01*
X26025D02*
X26150D01*
X25900Y8100D02*
X26025Y8225D01*
X25375Y8425D02*
X25500Y8300D01*
X25250Y8425D02*
X25375D01*
X25250D02*
X25375Y8550D01*
X25250Y8675D02*
X25375Y8550D01*
X25250Y8675D02*
X25375D01*
X25500Y8800D01*
X25625Y8675D01*
X25750D01*
X25625Y8550D02*
X25750Y8675D01*
X25625Y8550D02*
X25750Y8425D01*
X25625D02*
X25750D01*
X25500Y8300D02*
X25625Y8425D01*
X25675Y18875D02*
X25800Y18750D01*
X25550Y18875D02*
X25675D01*
X25550D02*
X25675Y19000D01*
X25550Y19125D02*
X25675Y19000D01*
X25550Y19125D02*
X25675D01*
X25800Y19250D01*
X25925Y19125D01*
X26050D01*
X25925Y19000D02*
X26050Y19125D01*
X25925Y19000D02*
X26050Y18875D01*
X25925D02*
X26050D01*
X25800Y18750D02*
X25925Y18875D01*
X25928Y15310D02*
X26053Y15185D01*
X25803Y15310D02*
X25928D01*
X25803D02*
X25928Y15435D01*
X25803Y15560D02*
X25928Y15435D01*
X25803Y15560D02*
X25928D01*
X26053Y15685D01*
X26178Y15560D01*
X26303D01*
X26178Y15435D02*
X26303Y15560D01*
X26178Y15435D02*
X26303Y15310D01*
X26178D02*
X26303D01*
X26053Y15185D02*
X26178Y15310D01*
X25775Y8575D02*
X25900Y8450D01*
X25650Y8575D02*
X25775D01*
X25650D02*
X25775Y8700D01*
X25650Y8825D02*
X25775Y8700D01*
X25650Y8825D02*
X25775D01*
X25900Y8950D01*
X26025Y8825D01*
X26150D01*
X26025Y8700D02*
X26150Y8825D01*
X26025Y8700D02*
X26150Y8575D01*
X26025D02*
X26150D01*
X25900Y8450D02*
X26025Y8575D01*
X16275Y17075D02*
X16400Y16950D01*
X16150Y17075D02*
X16275D01*
X16150D02*
X16275Y17200D01*
X16150Y17325D02*
X16275Y17200D01*
X16150Y17325D02*
X16275D01*
X16400Y17450D01*
X16525Y17325D01*
X16650D01*
X16525Y17200D02*
X16650Y17325D01*
X16525Y17200D02*
X16650Y17075D01*
X16525D02*
X16650D01*
X16400Y16950D02*
X16525Y17075D01*
X16075Y9275D02*
X16200Y9150D01*
X15950Y9275D02*
X16075D01*
X15950D02*
X16075Y9400D01*
X15950Y9525D02*
X16075Y9400D01*
X15950Y9525D02*
X16075D01*
X16200Y9650D01*
X16325Y9525D01*
X16450D01*
X16325Y9400D02*
X16450Y9525D01*
X16325Y9400D02*
X16450Y9275D01*
X16325D02*
X16450D01*
X16200Y9150D02*
X16325Y9275D01*
X13999Y10517D02*
X14124Y10392D01*
X13874Y10517D02*
X13999D01*
X13874D02*
X13999Y10642D01*
X13874Y10767D02*
X13999Y10642D01*
X13874Y10767D02*
X13999D01*
X14124Y10892D01*
X14249Y10767D01*
X14374D01*
X14249Y10642D02*
X14374Y10767D01*
X14249Y10642D02*
X14374Y10517D01*
X14249D02*
X14374D01*
X14124Y10392D02*
X14249Y10517D01*
X16875Y21875D02*
X17000Y21750D01*
X16750Y21875D02*
X16875D01*
X16750D02*
X16875Y22000D01*
X16750Y22125D02*
X16875Y22000D01*
X16750Y22125D02*
X16875D01*
X17000Y22250D01*
X17125Y22125D01*
X17250D01*
X17125Y22000D02*
X17250Y22125D01*
X17125Y22000D02*
X17250Y21875D01*
X17125D02*
X17250D01*
X17000Y21750D02*
X17125Y21875D01*
X17275D02*
X17400Y21750D01*
X17150Y21875D02*
X17275D01*
X17150D02*
X17275Y22000D01*
X17150Y22125D02*
X17275Y22000D01*
X17150Y22125D02*
X17275D01*
X17400Y22250D01*
X17525Y22125D01*
X17650D01*
X17525Y22000D02*
X17650Y22125D01*
X17525Y22000D02*
X17650Y21875D01*
X17525D02*
X17650D01*
X17400Y21750D02*
X17525Y21875D01*
X16275Y16675D02*
X16400Y16550D01*
X16150Y16675D02*
X16275D01*
X16150D02*
X16275Y16800D01*
X16150Y16925D02*
X16275Y16800D01*
X16150Y16925D02*
X16275D01*
X16400Y17050D01*
X16525Y16925D01*
X16650D01*
X16525Y16800D02*
X16650Y16925D01*
X16525Y16800D02*
X16650Y16675D01*
X16525D02*
X16650D01*
X16400Y16550D02*
X16525Y16675D01*
X16275Y16275D02*
X16400Y16150D01*
X16150Y16275D02*
X16275D01*
X16150D02*
X16275Y16400D01*
X16150Y16525D02*
X16275Y16400D01*
X16150Y16525D02*
X16275D01*
X16400Y16650D01*
X16525Y16525D01*
X16650D01*
X16525Y16400D02*
X16650Y16525D01*
X16525Y16400D02*
X16650Y16275D01*
X16525D02*
X16650D01*
X16400Y16150D02*
X16525Y16275D01*
X17675Y8675D02*
X17800Y8550D01*
X17550Y8675D02*
X17675D01*
X17550D02*
X17675Y8800D01*
X17550Y8925D02*
X17675Y8800D01*
X17550Y8925D02*
X17675D01*
X17800Y9050D01*
X17925Y8925D01*
X18050D01*
X17925Y8800D02*
X18050Y8925D01*
X17925Y8800D02*
X18050Y8675D01*
X17925D02*
X18050D01*
X17800Y8550D02*
X17925Y8675D01*
X14925Y8825D02*
X15050Y8700D01*
X14800Y8825D02*
X14925D01*
X14800D02*
X14925Y8950D01*
X14800Y9075D02*
X14925Y8950D01*
X14800Y9075D02*
X14925D01*
X15050Y9200D01*
X15175Y9075D01*
X15300D01*
X15175Y8950D02*
X15300Y9075D01*
X15175Y8950D02*
X15300Y8825D01*
X15175D02*
X15300D01*
X15050Y8700D02*
X15175Y8825D01*
X14875Y7475D02*
X15000Y7350D01*
X14750Y7475D02*
X14875D01*
X14750D02*
X14875Y7600D01*
X14750Y7725D02*
X14875Y7600D01*
X14750Y7725D02*
X14875D01*
X15000Y7850D01*
X15125Y7725D01*
X15250D01*
X15125Y7600D02*
X15250Y7725D01*
X15125Y7600D02*
X15250Y7475D01*
X15125D02*
X15250D01*
X15000Y7350D02*
X15125Y7475D01*
X15675Y5625D02*
X15800Y5500D01*
X15550Y5625D02*
X15675D01*
X15550D02*
X15675Y5750D01*
X15550Y5875D02*
X15675Y5750D01*
X15550Y5875D02*
X15675D01*
X15800Y6000D01*
X15925Y5875D01*
X16050D01*
X15925Y5750D02*
X16050Y5875D01*
X15925Y5750D02*
X16050Y5625D01*
X15925D02*
X16050D01*
X15800Y5500D02*
X15925Y5625D01*
X25625Y15175D02*
X25750Y15050D01*
X25500Y15175D02*
X25625D01*
X25500D02*
X25625Y15300D01*
X25500Y15425D02*
X25625Y15300D01*
X25500Y15425D02*
X25625D01*
X25750Y15550D01*
X25875Y15425D01*
X26000D01*
X25875Y15300D02*
X26000Y15425D01*
X25875Y15300D02*
X26000Y15175D01*
X25875D02*
X26000D01*
X25750Y15050D02*
X25875Y15175D01*
X12886Y13477D02*
X13011Y13352D01*
X12761Y13477D02*
X12886D01*
X12761D02*
X12886Y13602D01*
X12761Y13727D02*
X12886Y13602D01*
X12761Y13727D02*
X12886D01*
X13011Y13852D01*
X13136Y13727D01*
X13261D01*
X13136Y13602D02*
X13261Y13727D01*
X13136Y13602D02*
X13261Y13477D01*
X13136D02*
X13261D01*
X13011Y13352D02*
X13136Y13477D01*
X13499Y14902D02*
X13624Y14777D01*
X13374Y14902D02*
X13499D01*
X13374D02*
X13499Y15027D01*
X13374Y15152D02*
X13499Y15027D01*
X13374Y15152D02*
X13499D01*
X13624Y15277D01*
X13749Y15152D01*
X13874D01*
X13749Y15027D02*
X13874Y15152D01*
X13749Y15027D02*
X13874Y14902D01*
X13749D02*
X13874D01*
X13624Y14777D02*
X13749Y14902D01*
X25475Y11775D02*
X25600Y11650D01*
X25350Y11775D02*
X25475D01*
X25350D02*
X25475Y11900D01*
X25350Y12025D02*
X25475Y11900D01*
X25350Y12025D02*
X25475D01*
X25600Y12150D01*
X25725Y12025D01*
X25850D01*
X25725Y11900D02*
X25850Y12025D01*
X25725Y11900D02*
X25850Y11775D01*
X25725D02*
X25850D01*
X25600Y11650D02*
X25725Y11775D01*
X13875Y13275D02*
X14000Y13150D01*
X13750Y13275D02*
X13875D01*
X13750D02*
X13875Y13400D01*
X13750Y13525D02*
X13875Y13400D01*
X13750Y13525D02*
X13875D01*
X14000Y13650D01*
X14125Y13525D01*
X14250D01*
X14125Y13400D02*
X14250Y13525D01*
X14125Y13400D02*
X14250Y13275D01*
X14125D02*
X14250D01*
X14000Y13150D02*
X14125Y13275D01*
X12675Y11275D02*
X12800Y11150D01*
X12550Y11275D02*
X12675D01*
X12550D02*
X12675Y11400D01*
X12550Y11525D02*
X12675Y11400D01*
X12550Y11525D02*
X12675D01*
X12800Y11650D01*
X12925Y11525D01*
X13050D01*
X12925Y11400D02*
X13050Y11525D01*
X12925Y11400D02*
X13050Y11275D01*
X12925D02*
X13050D01*
X12800Y11150D02*
X12925Y11275D01*
X25875Y18575D02*
X26000Y18450D01*
X25750Y18575D02*
X25875D01*
X25750D02*
X25875Y18700D01*
X25750Y18825D02*
X25875Y18700D01*
X25750Y18825D02*
X25875D01*
X26000Y18950D01*
X26125Y18825D01*
X26250D01*
X26125Y18700D02*
X26250Y18825D01*
X26125Y18700D02*
X26250Y18575D01*
X26125D02*
X26250D01*
X26000Y18450D02*
X26125Y18575D01*
X20274Y9742D02*
X20399Y9617D01*
X20149Y9742D02*
X20274D01*
X20149D02*
X20274Y9867D01*
X20149Y9992D02*
X20274Y9867D01*
X20149Y9992D02*
X20274D01*
X20399Y10117D01*
X20524Y9992D01*
X20649D01*
X20524Y9867D02*
X20649Y9992D01*
X20524Y9867D02*
X20649Y9742D01*
X20524D02*
X20649D01*
X20399Y9617D02*
X20524Y9742D01*
X20255Y7927D02*
X20380Y7802D01*
X20130Y7927D02*
X20255D01*
X20130D02*
X20255Y8052D01*
X20130Y8177D02*
X20255Y8052D01*
X20130Y8177D02*
X20255D01*
X20380Y8302D01*
X20505Y8177D01*
X20630D01*
X20505Y8052D02*
X20630Y8177D01*
X20505Y8052D02*
X20630Y7927D01*
X20505D02*
X20630D01*
X20380Y7802D02*
X20505Y7927D01*
X18275Y14075D02*
X18400Y13950D01*
X18150Y14075D02*
X18275D01*
X18150D02*
X18275Y14200D01*
X18150Y14325D02*
X18275Y14200D01*
X18150Y14325D02*
X18275D01*
X18400Y14450D01*
X18525Y14325D01*
X18650D01*
X18525Y14200D02*
X18650Y14325D01*
X18525Y14200D02*
X18650Y14075D01*
X18525D02*
X18650D01*
X18400Y13950D02*
X18525Y14075D01*
X17475Y12475D02*
X17600Y12350D01*
X17350Y12475D02*
X17475D01*
X17350D02*
X17475Y12600D01*
X17350Y12725D02*
X17475Y12600D01*
X17350Y12725D02*
X17475D01*
X17600Y12850D01*
X17725Y12725D01*
X17850D01*
X17725Y12600D02*
X17850Y12725D01*
X17725Y12600D02*
X17850Y12475D01*
X17725D02*
X17850D01*
X17600Y12350D02*
X17725Y12475D01*
X17875D02*
X18000Y12350D01*
X17750Y12475D02*
X17875D01*
X17750D02*
X17875Y12600D01*
X17750Y12725D02*
X17875Y12600D01*
X17750Y12725D02*
X17875D01*
X18000Y12850D01*
X18125Y12725D01*
X18250D01*
X18125Y12600D02*
X18250Y12725D01*
X18125Y12600D02*
X18250Y12475D01*
X18125D02*
X18250D01*
X18000Y12350D02*
X18125Y12475D01*
X18275D02*
X18400Y12350D01*
X18150Y12475D02*
X18275D01*
X18150D02*
X18275Y12600D01*
X18150Y12725D02*
X18275Y12600D01*
X18150Y12725D02*
X18275D01*
X18400Y12850D01*
X18525Y12725D01*
X18650D01*
X18525Y12600D02*
X18650Y12725D01*
X18525Y12600D02*
X18650Y12475D01*
X18525D02*
X18650D01*
X18400Y12350D02*
X18525Y12475D01*
X17875Y12075D02*
X18000Y11950D01*
X17750Y12075D02*
X17875D01*
X17750D02*
X17875Y12200D01*
X17750Y12325D02*
X17875Y12200D01*
X17750Y12325D02*
X17875D01*
X18000Y12450D01*
X18125Y12325D01*
X18250D01*
X18125Y12200D02*
X18250Y12325D01*
X18125Y12200D02*
X18250Y12075D01*
X18125D02*
X18250D01*
X18000Y11950D02*
X18125Y12075D01*
X17475D02*
X17600Y11950D01*
X17350Y12075D02*
X17475D01*
X17350D02*
X17475Y12200D01*
X17350Y12325D02*
X17475Y12200D01*
X17350Y12325D02*
X17475D01*
X17600Y12450D01*
X17725Y12325D01*
X17850D01*
X17725Y12200D02*
X17850Y12325D01*
X17725Y12200D02*
X17850Y12075D01*
X17725D02*
X17850D01*
X17600Y11950D02*
X17725Y12075D01*
X18668Y11687D02*
X18793Y11562D01*
X18543Y11687D02*
X18668D01*
X18543D02*
X18668Y11812D01*
X18543Y11937D02*
X18668Y11812D01*
X18543Y11937D02*
X18668D01*
X18793Y12062D01*
X18918Y11937D01*
X19043D01*
X18918Y11812D02*
X19043Y11937D01*
X18918Y11812D02*
X19043Y11687D01*
X18918D02*
X19043D01*
X18793Y11562D02*
X18918Y11687D01*
X18275Y11275D02*
X18400Y11150D01*
X18150Y11275D02*
X18275D01*
X18150D02*
X18275Y11400D01*
X18150Y11525D02*
X18275Y11400D01*
X18150Y11525D02*
X18275D01*
X18400Y11650D01*
X18525Y11525D01*
X18650D01*
X18525Y11400D02*
X18650Y11525D01*
X18525Y11400D02*
X18650Y11275D01*
X18525D02*
X18650D01*
X18400Y11150D02*
X18525Y11275D01*
X17875D02*
X18000Y11150D01*
X17750Y11275D02*
X17875D01*
X17750D02*
X17875Y11400D01*
X17750Y11525D02*
X17875Y11400D01*
X17750Y11525D02*
X17875D01*
X18000Y11650D01*
X18125Y11525D01*
X18250D01*
X18125Y11400D02*
X18250Y11525D01*
X18125Y11400D02*
X18250Y11275D01*
X18125D02*
X18250D01*
X18000Y11150D02*
X18125Y11275D01*
X17475D02*
X17600Y11150D01*
X17350Y11275D02*
X17475D01*
X17350D02*
X17475Y11400D01*
X17350Y11525D02*
X17475Y11400D01*
X17350Y11525D02*
X17475D01*
X17600Y11650D01*
X17725Y11525D01*
X17850D01*
X17725Y11400D02*
X17850Y11525D01*
X17725Y11400D02*
X17850Y11275D01*
X17725D02*
X17850D01*
X17600Y11150D02*
X17725Y11275D01*
X17868Y11687D02*
X17993Y11562D01*
X17743Y11687D02*
X17868D01*
X17743D02*
X17868Y11812D01*
X17743Y11937D02*
X17868Y11812D01*
X17743Y11937D02*
X17868D01*
X17993Y12062D01*
X18118Y11937D01*
X18243D01*
X18118Y11812D02*
X18243Y11937D01*
X18118Y11812D02*
X18243Y11687D01*
X18118D02*
X18243D01*
X17993Y11562D02*
X18118Y11687D01*
X17468D02*
X17593Y11562D01*
X17343Y11687D02*
X17468D01*
X17343D02*
X17468Y11812D01*
X17343Y11937D02*
X17468Y11812D01*
X17343Y11937D02*
X17468D01*
X17593Y12062D01*
X17718Y11937D01*
X17843D01*
X17718Y11812D02*
X17843Y11937D01*
X17718Y11812D02*
X17843Y11687D01*
X17718D02*
X17843D01*
X17593Y11562D02*
X17718Y11687D01*
X18675Y11275D02*
X18800Y11150D01*
X18550Y11275D02*
X18675D01*
X18550D02*
X18675Y11400D01*
X18550Y11525D02*
X18675Y11400D01*
X18550Y11525D02*
X18675D01*
X18800Y11650D01*
X18925Y11525D01*
X19050D01*
X18925Y11400D02*
X19050Y11525D01*
X18925Y11400D02*
X19050Y11275D01*
X18925D02*
X19050D01*
X18800Y11150D02*
X18925Y11275D01*
X18268Y11687D02*
X18393Y11562D01*
X18143Y11687D02*
X18268D01*
X18143D02*
X18268Y11812D01*
X18143Y11937D02*
X18268Y11812D01*
X18143Y11937D02*
X18268D01*
X18393Y12062D01*
X18518Y11937D01*
X18643D01*
X18518Y11812D02*
X18643Y11937D01*
X18518Y11812D02*
X18643Y11687D01*
X18518D02*
X18643D01*
X18393Y11562D02*
X18518Y11687D01*
X18675Y12475D02*
X18800Y12350D01*
X18550Y12475D02*
X18675D01*
X18550D02*
X18675Y12600D01*
X18550Y12725D02*
X18675Y12600D01*
X18550Y12725D02*
X18675D01*
X18800Y12850D01*
X18925Y12725D01*
X19050D01*
X18925Y12600D02*
X19050Y12725D01*
X18925Y12600D02*
X19050Y12475D01*
X18925D02*
X19050D01*
X18800Y12350D02*
X18925Y12475D01*
X17675Y8275D02*
X17800Y8150D01*
X17550Y8275D02*
X17675D01*
X17550D02*
X17675Y8400D01*
X17550Y8525D02*
X17675Y8400D01*
X17550Y8525D02*
X17675D01*
X17800Y8650D01*
X17925Y8525D01*
X18050D01*
X17925Y8400D02*
X18050Y8525D01*
X17925Y8400D02*
X18050Y8275D01*
X17925D02*
X18050D01*
X17800Y8150D02*
X17925Y8275D01*
X17225Y10325D02*
X17350Y10200D01*
X17100Y10325D02*
X17225D01*
X17100D02*
X17225Y10450D01*
X17100Y10575D02*
X17225Y10450D01*
X17100Y10575D02*
X17225D01*
X17350Y10700D01*
X17475Y10575D01*
X17600D01*
X17475Y10450D02*
X17600Y10575D01*
X17475Y10450D02*
X17600Y10325D01*
X17475D02*
X17600D01*
X17350Y10200D02*
X17475Y10325D01*
X17225Y10675D02*
X17350Y10550D01*
X17100Y10675D02*
X17225D01*
X17100D02*
X17225Y10800D01*
X17100Y10925D02*
X17225Y10800D01*
X17100Y10925D02*
X17225D01*
X17350Y11050D01*
X17475Y10925D01*
X17600D01*
X17475Y10800D02*
X17600Y10925D01*
X17475Y10800D02*
X17600Y10675D01*
X17475D02*
X17600D01*
X17350Y10550D02*
X17475Y10675D01*
X16575Y14275D02*
X16700Y14150D01*
X16450Y14275D02*
X16575D01*
X16450D02*
X16575Y14400D01*
X16450Y14525D02*
X16575Y14400D01*
X16450Y14525D02*
X16575D01*
X16700Y14650D01*
X16825Y14525D01*
X16950D01*
X16825Y14400D02*
X16950Y14525D01*
X16825Y14400D02*
X16950Y14275D01*
X16825D02*
X16950D01*
X16700Y14150D02*
X16825Y14275D01*
X4875Y23525D02*
X5000Y23400D01*
X4750Y23525D02*
X4875D01*
X4750D02*
X4875Y23650D01*
X4750Y23775D02*
X4875Y23650D01*
X4750Y23775D02*
X4875D01*
X5000Y23900D01*
X5125Y23775D01*
X5250D01*
X5125Y23650D02*
X5250Y23775D01*
X5125Y23650D02*
X5250Y23525D01*
X5125D02*
X5250D01*
X5000Y23400D02*
X5125Y23525D01*
X6175Y23575D02*
X6300Y23450D01*
X6050Y23575D02*
X6175D01*
X6050D02*
X6175Y23700D01*
X6050Y23825D02*
X6175Y23700D01*
X6050Y23825D02*
X6175D01*
X6300Y23950D01*
X6425Y23825D01*
X6550D01*
X6425Y23700D02*
X6550Y23825D01*
X6425Y23700D02*
X6550Y23575D01*
X6425D02*
X6550D01*
X6300Y23450D02*
X6425Y23575D01*
X7375D02*
X7500Y23450D01*
X7250Y23575D02*
X7375D01*
X7250D02*
X7375Y23700D01*
X7250Y23825D02*
X7375Y23700D01*
X7250Y23825D02*
X7375D01*
X7500Y23950D01*
X7625Y23825D01*
X7750D01*
X7625Y23700D02*
X7750Y23825D01*
X7625Y23700D02*
X7750Y23575D01*
X7625D02*
X7750D01*
X7500Y23450D02*
X7625Y23575D01*
X8675D02*
X8800Y23450D01*
X8550Y23575D02*
X8675D01*
X8550D02*
X8675Y23700D01*
X8550Y23825D02*
X8675Y23700D01*
X8550Y23825D02*
X8675D01*
X8800Y23950D01*
X8925Y23825D01*
X9050D01*
X8925Y23700D02*
X9050Y23825D01*
X8925Y23700D02*
X9050Y23575D01*
X8925D02*
X9050D01*
X8800Y23450D02*
X8925Y23575D01*
X4925Y22475D02*
X5050Y22350D01*
X4800Y22475D02*
X4925D01*
X4800D02*
X4925Y22600D01*
X4800Y22725D02*
X4925Y22600D01*
X4800Y22725D02*
X4925D01*
X5050Y22850D01*
X5175Y22725D01*
X5300D01*
X5175Y22600D02*
X5300Y22725D01*
X5175Y22600D02*
X5300Y22475D01*
X5175D02*
X5300D01*
X5050Y22350D02*
X5175Y22475D01*
X6175D02*
X6300Y22350D01*
X6050Y22475D02*
X6175D01*
X6050D02*
X6175Y22600D01*
X6050Y22725D02*
X6175Y22600D01*
X6050Y22725D02*
X6175D01*
X6300Y22850D01*
X6425Y22725D01*
X6550D01*
X6425Y22600D02*
X6550Y22725D01*
X6425Y22600D02*
X6550Y22475D01*
X6425D02*
X6550D01*
X6300Y22350D02*
X6425Y22475D01*
X7375Y22525D02*
X7500Y22400D01*
X7250Y22525D02*
X7375D01*
X7250D02*
X7375Y22650D01*
X7250Y22775D02*
X7375Y22650D01*
X7250Y22775D02*
X7375D01*
X7500Y22900D01*
X7625Y22775D01*
X7750D01*
X7625Y22650D02*
X7750Y22775D01*
X7625Y22650D02*
X7750Y22525D01*
X7625D02*
X7750D01*
X7500Y22400D02*
X7625Y22525D01*
X8675D02*
X8800Y22400D01*
X8550Y22525D02*
X8675D01*
X8550D02*
X8675Y22650D01*
X8550Y22775D02*
X8675Y22650D01*
X8550Y22775D02*
X8675D01*
X8800Y22900D01*
X8925Y22775D01*
X9050D01*
X8925Y22650D02*
X9050Y22775D01*
X8925Y22650D02*
X9050Y22525D01*
X8925D02*
X9050D01*
X8800Y22400D02*
X8925Y22525D01*
X1425Y21025D02*
X1550Y20900D01*
X1300Y21025D02*
X1425D01*
X1300D02*
X1425Y21150D01*
X1300Y21275D02*
X1425Y21150D01*
X1300Y21275D02*
X1425D01*
X1550Y21400D01*
X1675Y21275D01*
X1800D01*
X1675Y21150D02*
X1800Y21275D01*
X1675Y21150D02*
X1800Y21025D01*
X1675D02*
X1800D01*
X1550Y20900D02*
X1675Y21025D01*
X1375Y19975D02*
X1500Y19850D01*
X1250Y19975D02*
X1375D01*
X1250D02*
X1375Y20100D01*
X1250Y20225D02*
X1375Y20100D01*
X1250Y20225D02*
X1375D01*
X1500Y20350D01*
X1625Y20225D01*
X1750D01*
X1625Y20100D02*
X1750Y20225D01*
X1625Y20100D02*
X1750Y19975D01*
X1625D02*
X1750D01*
X1500Y19850D02*
X1625Y19975D01*
X2725Y20025D02*
X2850Y19900D01*
X2600Y20025D02*
X2725D01*
X2600D02*
X2725Y20150D01*
X2600Y20275D02*
X2725Y20150D01*
X2600Y20275D02*
X2725D01*
X2850Y20400D01*
X2975Y20275D01*
X3100D01*
X2975Y20150D02*
X3100Y20275D01*
X2975Y20150D02*
X3100Y20025D01*
X2975D02*
X3100D01*
X2850Y19900D02*
X2975Y20025D01*
X1325Y18775D02*
X1450Y18650D01*
X1200Y18775D02*
X1325D01*
X1200D02*
X1325Y18900D01*
X1200Y19025D02*
X1325Y18900D01*
X1200Y19025D02*
X1325D01*
X1450Y19150D01*
X1575Y19025D01*
X1700D01*
X1575Y18900D02*
X1700Y19025D01*
X1575Y18900D02*
X1700Y18775D01*
X1575D02*
X1700D01*
X1450Y18650D02*
X1575Y18775D01*
X2725Y18675D02*
X2850Y18550D01*
X2600Y18675D02*
X2725D01*
X2600D02*
X2725Y18800D01*
X2600Y18925D02*
X2725Y18800D01*
X2600Y18925D02*
X2725D01*
X2850Y19050D01*
X2975Y18925D01*
X3100D01*
X2975Y18800D02*
X3100Y18925D01*
X2975Y18800D02*
X3100Y18675D01*
X2975D02*
X3100D01*
X2850Y18550D02*
X2975Y18675D01*
X1325Y17475D02*
X1450Y17350D01*
X1200Y17475D02*
X1325D01*
X1200D02*
X1325Y17600D01*
X1200Y17725D02*
X1325Y17600D01*
X1200Y17725D02*
X1325D01*
X1450Y17850D01*
X1575Y17725D01*
X1700D01*
X1575Y17600D02*
X1700Y17725D01*
X1575Y17600D02*
X1700Y17475D01*
X1575D02*
X1700D01*
X1450Y17350D02*
X1575Y17475D01*
X2725Y17375D02*
X2850Y17250D01*
X2600Y17375D02*
X2725D01*
X2600D02*
X2725Y17500D01*
X2600Y17625D02*
X2725Y17500D01*
X2600Y17625D02*
X2725D01*
X2850Y17750D01*
X2975Y17625D01*
X3100D01*
X2975Y17500D02*
X3100Y17625D01*
X2975Y17500D02*
X3100Y17375D01*
X2975D02*
X3100D01*
X2850Y17250D02*
X2975Y17375D01*
X1275Y16175D02*
X1400Y16050D01*
X1150Y16175D02*
X1275D01*
X1150D02*
X1275Y16300D01*
X1150Y16425D02*
X1275Y16300D01*
X1150Y16425D02*
X1275D01*
X1400Y16550D01*
X1525Y16425D01*
X1650D01*
X1525Y16300D02*
X1650Y16425D01*
X1525Y16300D02*
X1650Y16175D01*
X1525D02*
X1650D01*
X1400Y16050D02*
X1525Y16175D01*
X2725Y16225D02*
X2850Y16100D01*
X2600Y16225D02*
X2725D01*
X2600D02*
X2725Y16350D01*
X2600Y16475D02*
X2725Y16350D01*
X2600Y16475D02*
X2725D01*
X2850Y16600D01*
X2975Y16475D01*
X3100D01*
X2975Y16350D02*
X3100Y16475D01*
X2975Y16350D02*
X3100Y16225D01*
X2975D02*
X3100D01*
X2850Y16100D02*
X2975Y16225D01*
X1275Y14775D02*
X1400Y14650D01*
X1150Y14775D02*
X1275D01*
X1150D02*
X1275Y14900D01*
X1150Y15025D02*
X1275Y14900D01*
X1150Y15025D02*
X1275D01*
X1400Y15150D01*
X1525Y15025D01*
X1650D01*
X1525Y14900D02*
X1650Y15025D01*
X1525Y14900D02*
X1650Y14775D01*
X1525D02*
X1650D01*
X1400Y14650D02*
X1525Y14775D01*
X1325Y13175D02*
X1450Y13050D01*
X1200Y13175D02*
X1325D01*
X1200D02*
X1325Y13300D01*
X1200Y13425D02*
X1325Y13300D01*
X1200Y13425D02*
X1325D01*
X1450Y13550D01*
X1575Y13425D01*
X1700D01*
X1575Y13300D02*
X1700Y13425D01*
X1575Y13300D02*
X1700Y13175D01*
X1575D02*
X1700D01*
X1450Y13050D02*
X1575Y13175D01*
X2825Y13125D02*
X2950Y13000D01*
X2700Y13125D02*
X2825D01*
X2700D02*
X2825Y13250D01*
X2700Y13375D02*
X2825Y13250D01*
X2700Y13375D02*
X2825D01*
X2950Y13500D01*
X3075Y13375D01*
X3200D01*
X3075Y13250D02*
X3200Y13375D01*
X3075Y13250D02*
X3200Y13125D01*
X3075D02*
X3200D01*
X2950Y13000D02*
X3075Y13125D01*
X1325Y9975D02*
X1450Y9850D01*
X1200Y9975D02*
X1325D01*
X1200D02*
X1325Y10100D01*
X1200Y10225D02*
X1325Y10100D01*
X1200Y10225D02*
X1325D01*
X1450Y10350D01*
X1575Y10225D01*
X1700D01*
X1575Y10100D02*
X1700Y10225D01*
X1575Y10100D02*
X1700Y9975D01*
X1575D02*
X1700D01*
X1450Y9850D02*
X1575Y9975D01*
X2875Y10025D02*
X3000Y9900D01*
X2750Y10025D02*
X2875D01*
X2750D02*
X2875Y10150D01*
X2750Y10275D02*
X2875Y10150D01*
X2750Y10275D02*
X2875D01*
X3000Y10400D01*
X3125Y10275D01*
X3250D01*
X3125Y10150D02*
X3250Y10275D01*
X3125Y10150D02*
X3250Y10025D01*
X3125D02*
X3250D01*
X3000Y9900D02*
X3125Y10025D01*
X1275Y8375D02*
X1400Y8250D01*
X1150Y8375D02*
X1275D01*
X1150D02*
X1275Y8500D01*
X1150Y8625D02*
X1275Y8500D01*
X1150Y8625D02*
X1275D01*
X1400Y8750D01*
X1525Y8625D01*
X1650D01*
X1525Y8500D02*
X1650Y8625D01*
X1525Y8500D02*
X1650Y8375D01*
X1525D02*
X1650D01*
X1400Y8250D02*
X1525Y8375D01*
X2775Y8325D02*
X2900Y8200D01*
X2650Y8325D02*
X2775D01*
X2650D02*
X2775Y8450D01*
X2650Y8575D02*
X2775Y8450D01*
X2650Y8575D02*
X2775D01*
X2900Y8700D01*
X3025Y8575D01*
X3150D01*
X3025Y8450D02*
X3150Y8575D01*
X3025Y8450D02*
X3150Y8325D01*
X3025D02*
X3150D01*
X2900Y8200D02*
X3025Y8325D01*
X1275Y6775D02*
X1400Y6650D01*
X1150Y6775D02*
X1275D01*
X1150D02*
X1275Y6900D01*
X1150Y7025D02*
X1275Y6900D01*
X1150Y7025D02*
X1275D01*
X1400Y7150D01*
X1525Y7025D01*
X1650D01*
X1525Y6900D02*
X1650Y7025D01*
X1525Y6900D02*
X1650Y6775D01*
X1525D02*
X1650D01*
X1400Y6650D02*
X1525Y6775D01*
X2725D02*
X2850Y6650D01*
X2600Y6775D02*
X2725D01*
X2600D02*
X2725Y6900D01*
X2600Y7025D02*
X2725Y6900D01*
X2600Y7025D02*
X2725D01*
X2850Y7150D01*
X2975Y7025D01*
X3100D01*
X2975Y6900D02*
X3100Y7025D01*
X2975Y6900D02*
X3100Y6775D01*
X2975D02*
X3100D01*
X2850Y6650D02*
X2975Y6775D01*
X1325Y5075D02*
X1450Y4950D01*
X1200Y5075D02*
X1325D01*
X1200D02*
X1325Y5200D01*
X1200Y5325D02*
X1325Y5200D01*
X1200Y5325D02*
X1325D01*
X1450Y5450D01*
X1575Y5325D01*
X1700D01*
X1575Y5200D02*
X1700Y5325D01*
X1575Y5200D02*
X1700Y5075D01*
X1575D02*
X1700D01*
X1450Y4950D02*
X1575Y5075D01*
X8775Y16175D02*
X8900Y16050D01*
X8650Y16175D02*
X8775D01*
X8650D02*
X8775Y16300D01*
X8650Y16425D02*
X8775Y16300D01*
X8650Y16425D02*
X8775D01*
X8900Y16550D01*
X9025Y16425D01*
X9150D01*
X9025Y16300D02*
X9150Y16425D01*
X9025Y16300D02*
X9150Y16175D01*
X9025D02*
X9150D01*
X8900Y16050D02*
X9025Y16175D01*
X10725Y16225D02*
X10850Y16100D01*
X10600Y16225D02*
X10725D01*
X10600D02*
X10725Y16350D01*
X10600Y16475D02*
X10725Y16350D01*
X10600Y16475D02*
X10725D01*
X10850Y16600D01*
X10975Y16475D01*
X11100D01*
X10975Y16350D02*
X11100Y16475D01*
X10975Y16350D02*
X11100Y16225D01*
X10975D02*
X11100D01*
X10850Y16100D02*
X10975Y16225D01*
X8775Y12725D02*
X8900Y12600D01*
X8650Y12725D02*
X8775D01*
X8650D02*
X8775Y12850D01*
X8650Y12975D02*
X8775Y12850D01*
X8650Y12975D02*
X8775D01*
X8900Y13100D01*
X9025Y12975D01*
X9150D01*
X9025Y12850D02*
X9150Y12975D01*
X9025Y12850D02*
X9150Y12725D01*
X9025D02*
X9150D01*
X8900Y12600D02*
X9025Y12725D01*
X10725D02*
X10850Y12600D01*
X10600Y12725D02*
X10725D01*
X10600D02*
X10725Y12850D01*
X10600Y12975D02*
X10725Y12850D01*
X10600Y12975D02*
X10725D01*
X10850Y13100D01*
X10975Y12975D01*
X11100D01*
X10975Y12850D02*
X11100Y12975D01*
X10975Y12850D02*
X11100Y12725D01*
X10975D02*
X11100D01*
X10850Y12600D02*
X10975Y12725D01*
X8775Y9225D02*
X8900Y9100D01*
X8650Y9225D02*
X8775D01*
X8650D02*
X8775Y9350D01*
X8650Y9475D02*
X8775Y9350D01*
X8650Y9475D02*
X8775D01*
X8900Y9600D01*
X9025Y9475D01*
X9150D01*
X9025Y9350D02*
X9150Y9475D01*
X9025Y9350D02*
X9150Y9225D01*
X9025D02*
X9150D01*
X8900Y9100D02*
X9025Y9225D01*
X10725Y9275D02*
X10850Y9150D01*
X10600Y9275D02*
X10725D01*
X10600D02*
X10725Y9400D01*
X10600Y9525D02*
X10725Y9400D01*
X10600Y9525D02*
X10725D01*
X10850Y9650D01*
X10975Y9525D01*
X11100D01*
X10975Y9400D02*
X11100Y9525D01*
X10975Y9400D02*
X11100Y9275D01*
X10975D02*
X11100D01*
X10850Y9150D02*
X10975Y9275D01*
X8775Y7425D02*
X8900Y7300D01*
X8650Y7425D02*
X8775D01*
X8650D02*
X8775Y7550D01*
X8650Y7675D02*
X8775Y7550D01*
X8650Y7675D02*
X8775D01*
X8900Y7800D01*
X9025Y7675D01*
X9150D01*
X9025Y7550D02*
X9150Y7675D01*
X9025Y7550D02*
X9150Y7425D01*
X9025D02*
X9150D01*
X8900Y7300D02*
X9025Y7425D01*
X4175Y775D02*
X4300Y650D01*
X4050Y775D02*
X4175D01*
X4050D02*
X4175Y900D01*
X4050Y1025D02*
X4175Y900D01*
X4050Y1025D02*
X4175D01*
X4300Y1150D01*
X4425Y1025D01*
X4550D01*
X4425Y900D02*
X4550Y1025D01*
X4425Y900D02*
X4550Y775D01*
X4425D02*
X4550D01*
X4300Y650D02*
X4425Y775D01*
X5575D02*
X5700Y650D01*
X5450Y775D02*
X5575D01*
X5450D02*
X5575Y900D01*
X5450Y1025D02*
X5575Y900D01*
X5450Y1025D02*
X5575D01*
X5700Y1150D01*
X5825Y1025D01*
X5950D01*
X5825Y900D02*
X5950Y1025D01*
X5825Y900D02*
X5950Y775D01*
X5825D02*
X5950D01*
X5700Y650D02*
X5825Y775D01*
X6925D02*
X7050Y650D01*
X6800Y775D02*
X6925D01*
X6800D02*
X6925Y900D01*
X6800Y1025D02*
X6925Y900D01*
X6800Y1025D02*
X6925D01*
X7050Y1150D01*
X7175Y1025D01*
X7300D01*
X7175Y900D02*
X7300Y1025D01*
X7175Y900D02*
X7300Y775D01*
X7175D02*
X7300D01*
X7050Y650D02*
X7175Y775D01*
X8225D02*
X8350Y650D01*
X8100Y775D02*
X8225D01*
X8100D02*
X8225Y900D01*
X8100Y1025D02*
X8225Y900D01*
X8100Y1025D02*
X8225D01*
X8350Y1150D01*
X8475Y1025D01*
X8600D01*
X8475Y900D02*
X8600Y1025D01*
X8475Y900D02*
X8600Y775D01*
X8475D02*
X8600D01*
X8350Y650D02*
X8475Y775D01*
X9525Y825D02*
X9650Y700D01*
X9400Y825D02*
X9525D01*
X9400D02*
X9525Y950D01*
X9400Y1075D02*
X9525Y950D01*
X9400Y1075D02*
X9525D01*
X9650Y1200D01*
X9775Y1075D01*
X9900D01*
X9775Y950D02*
X9900Y1075D01*
X9775Y950D02*
X9900Y825D01*
X9775D02*
X9900D01*
X9650Y700D02*
X9775Y825D01*
X10775D02*
X10900Y700D01*
X10650Y825D02*
X10775D01*
X10650D02*
X10775Y950D01*
X10650Y1075D02*
X10775Y950D01*
X10650Y1075D02*
X10775D01*
X10900Y1200D01*
X11025Y1075D01*
X11150D01*
X11025Y950D02*
X11150Y1075D01*
X11025Y950D02*
X11150Y825D01*
X11025D02*
X11150D01*
X10900Y700D02*
X11025Y825D01*
X12175D02*
X12300Y700D01*
X12050Y825D02*
X12175D01*
X12050D02*
X12175Y950D01*
X12050Y1075D02*
X12175Y950D01*
X12050Y1075D02*
X12175D01*
X12300Y1200D01*
X12425Y1075D01*
X12550D01*
X12425Y950D02*
X12550Y1075D01*
X12425Y950D02*
X12550Y825D01*
X12425D02*
X12550D01*
X12300Y700D02*
X12425Y825D01*
X13525D02*
X13650Y700D01*
X13400Y825D02*
X13525D01*
X13400D02*
X13525Y950D01*
X13400Y1075D02*
X13525Y950D01*
X13400Y1075D02*
X13525D01*
X13650Y1200D01*
X13775Y1075D01*
X13900D01*
X13775Y950D02*
X13900Y1075D01*
X13775Y950D02*
X13900Y825D01*
X13775D02*
X13900D01*
X13650Y700D02*
X13775Y825D01*
X14875D02*
X15000Y700D01*
X14750Y825D02*
X14875D01*
X14750D02*
X14875Y950D01*
X14750Y1075D02*
X14875Y950D01*
X14750Y1075D02*
X14875D01*
X15000Y1200D01*
X15125Y1075D01*
X15250D01*
X15125Y950D02*
X15250Y1075D01*
X15125Y950D02*
X15250Y825D01*
X15125D02*
X15250D01*
X15000Y700D02*
X15125Y825D01*
X16125D02*
X16250Y700D01*
X16000Y825D02*
X16125D01*
X16000D02*
X16125Y950D01*
X16000Y1075D02*
X16125Y950D01*
X16000Y1075D02*
X16125D01*
X16250Y1200D01*
X16375Y1075D01*
X16500D01*
X16375Y950D02*
X16500Y1075D01*
X16375Y950D02*
X16500Y825D01*
X16375D02*
X16500D01*
X16250Y700D02*
X16375Y825D01*
X17525D02*
X17650Y700D01*
X17400Y825D02*
X17525D01*
X17400D02*
X17525Y950D01*
X17400Y1075D02*
X17525Y950D01*
X17400Y1075D02*
X17525D01*
X17650Y1200D01*
X17775Y1075D01*
X17900D01*
X17775Y950D02*
X17900Y1075D01*
X17775Y950D02*
X17900Y825D01*
X17775D02*
X17900D01*
X17650Y700D02*
X17775Y825D01*
X18875D02*
X19000Y700D01*
X18750Y825D02*
X18875D01*
X18750D02*
X18875Y950D01*
X18750Y1075D02*
X18875Y950D01*
X18750Y1075D02*
X18875D01*
X19000Y1200D01*
X19125Y1075D01*
X19250D01*
X19125Y950D02*
X19250Y1075D01*
X19125Y950D02*
X19250Y825D01*
X19125D02*
X19250D01*
X19000Y700D02*
X19125Y825D01*
X20175D02*
X20300Y700D01*
X20050Y825D02*
X20175D01*
X20050D02*
X20175Y950D01*
X20050Y1075D02*
X20175Y950D01*
X20050Y1075D02*
X20175D01*
X20300Y1200D01*
X20425Y1075D01*
X20550D01*
X20425Y950D02*
X20550Y1075D01*
X20425Y950D02*
X20550Y825D01*
X20425D02*
X20550D01*
X20300Y700D02*
X20425Y825D01*
X11025Y15325D02*
X11150Y15200D01*
X10900Y15325D02*
X11025D01*
X10900D02*
X11025Y15450D01*
X10900Y15575D02*
X11025Y15450D01*
X10900Y15575D02*
X11025D01*
X11150Y15700D01*
X11275Y15575D01*
X11400D01*
X11275Y15450D02*
X11400Y15575D01*
X11275Y15450D02*
X11400Y15325D01*
X11275D02*
X11400D01*
X11150Y15200D02*
X11275Y15325D01*
X12375D02*
X12500Y15200D01*
X12250Y15325D02*
X12375D01*
X12250D02*
X12375Y15450D01*
X12250Y15575D02*
X12375Y15450D01*
X12250Y15575D02*
X12375D01*
X12500Y15700D01*
X12625Y15575D01*
X12750D01*
X12625Y15450D02*
X12750Y15575D01*
X12625Y15450D02*
X12750Y15325D01*
X12625D02*
X12750D01*
X12500Y15200D02*
X12625Y15325D01*
X11675Y11725D02*
X11800Y11600D01*
X11550Y11725D02*
X11675D01*
X11550D02*
X11675Y11850D01*
X11550Y11975D02*
X11675Y11850D01*
X11550Y11975D02*
X11675D01*
X11800Y12100D01*
X11925Y11975D01*
X12050D01*
X11925Y11850D02*
X12050Y11975D01*
X11925Y11850D02*
X12050Y11725D01*
X11925D02*
X12050D01*
X11800Y11600D02*
X11925Y11725D01*
X11675Y10375D02*
X11800Y10250D01*
X11550Y10375D02*
X11675D01*
X11550D02*
X11675Y10500D01*
X11550Y10625D02*
X11675Y10500D01*
X11550Y10625D02*
X11675D01*
X11800Y10750D01*
X11925Y10625D01*
X12050D01*
X11925Y10500D02*
X12050Y10625D01*
X11925Y10500D02*
X12050Y10375D01*
X11925D02*
X12050D01*
X11800Y10250D02*
X11925Y10375D01*
X12425Y8375D02*
X12550Y8250D01*
X12300Y8375D02*
X12425D01*
X12300D02*
X12425Y8500D01*
X12300Y8625D02*
X12425Y8500D01*
X12300Y8625D02*
X12425D01*
X12550Y8750D01*
X12675Y8625D01*
X12800D01*
X12675Y8500D02*
X12800Y8625D01*
X12675Y8500D02*
X12800Y8375D01*
X12675D02*
X12800D01*
X12550Y8250D02*
X12675Y8375D01*
X13825Y8325D02*
X13950Y8200D01*
X13700Y8325D02*
X13825D01*
X13700D02*
X13825Y8450D01*
X13700Y8575D02*
X13825Y8450D01*
X13700Y8575D02*
X13825D01*
X13950Y8700D01*
X14075Y8575D01*
X14200D01*
X14075Y8450D02*
X14200Y8575D01*
X14075Y8450D02*
X14200Y8325D01*
X14075D02*
X14200D01*
X13950Y8200D02*
X14075Y8325D01*
X12425Y6975D02*
X12550Y6850D01*
X12300Y6975D02*
X12425D01*
X12300D02*
X12425Y7100D01*
X12300Y7225D02*
X12425Y7100D01*
X12300Y7225D02*
X12425D01*
X12550Y7350D01*
X12675Y7225D01*
X12800D01*
X12675Y7100D02*
X12800Y7225D01*
X12675Y7100D02*
X12800Y6975D01*
X12675D02*
X12800D01*
X12550Y6850D02*
X12675Y6975D01*
X13875Y6925D02*
X14000Y6800D01*
X13750Y6925D02*
X13875D01*
X13750D02*
X13875Y7050D01*
X13750Y7175D02*
X13875Y7050D01*
X13750Y7175D02*
X13875D01*
X14000Y7300D01*
X14125Y7175D01*
X14250D01*
X14125Y7050D02*
X14250Y7175D01*
X14125Y7050D02*
X14250Y6925D01*
X14125D02*
X14250D01*
X14000Y6800D02*
X14125Y6925D01*
X12425Y5575D02*
X12550Y5450D01*
X12300Y5575D02*
X12425D01*
X12300D02*
X12425Y5700D01*
X12300Y5825D02*
X12425Y5700D01*
X12300Y5825D02*
X12425D01*
X12550Y5950D01*
X12675Y5825D01*
X12800D01*
X12675Y5700D02*
X12800Y5825D01*
X12675Y5700D02*
X12800Y5575D01*
X12675D02*
X12800D01*
X12550Y5450D02*
X12675Y5575D01*
X13925Y5525D02*
X14050Y5400D01*
X13800Y5525D02*
X13925D01*
X13800D02*
X13925Y5650D01*
X13800Y5775D02*
X13925Y5650D01*
X13800Y5775D02*
X13925D01*
X14050Y5900D01*
X14175Y5775D01*
X14300D01*
X14175Y5650D02*
X14300Y5775D01*
X14175Y5650D02*
X14300Y5525D01*
X14175D02*
X14300D01*
X14050Y5400D02*
X14175Y5525D01*
X12425Y4125D02*
X12550Y4000D01*
X12300Y4125D02*
X12425D01*
X12300D02*
X12425Y4250D01*
X12300Y4375D02*
X12425Y4250D01*
X12300Y4375D02*
X12425D01*
X12550Y4500D01*
X12675Y4375D01*
X12800D01*
X12675Y4250D02*
X12800Y4375D01*
X12675Y4250D02*
X12800Y4125D01*
X12675D02*
X12800D01*
X12550Y4000D02*
X12675Y4125D01*
X13975D02*
X14100Y4000D01*
X13850Y4125D02*
X13975D01*
X13850D02*
X13975Y4250D01*
X13850Y4375D02*
X13975Y4250D01*
X13850Y4375D02*
X13975D01*
X14100Y4500D01*
X14225Y4375D01*
X14350D01*
X14225Y4250D02*
X14350Y4375D01*
X14225Y4250D02*
X14350Y4125D01*
X14225D02*
X14350D01*
X14100Y4000D02*
X14225Y4125D01*
X15375D02*
X15500Y4000D01*
X15250Y4125D02*
X15375D01*
X15250D02*
X15375Y4250D01*
X15250Y4375D02*
X15375Y4250D01*
X15250Y4375D02*
X15375D01*
X15500Y4500D01*
X15625Y4375D01*
X15750D01*
X15625Y4250D02*
X15750Y4375D01*
X15625Y4250D02*
X15750Y4125D01*
X15625D02*
X15750D01*
X15500Y4000D02*
X15625Y4125D01*
X16775D02*
X16900Y4000D01*
X16650Y4125D02*
X16775D01*
X16650D02*
X16775Y4250D01*
X16650Y4375D02*
X16775Y4250D01*
X16650Y4375D02*
X16775D01*
X16900Y4500D01*
X17025Y4375D01*
X17150D01*
X17025Y4250D02*
X17150Y4375D01*
X17025Y4250D02*
X17150Y4125D01*
X17025D02*
X17150D01*
X16900Y4000D02*
X17025Y4125D01*
X11025D02*
X11150Y4000D01*
X10900Y4125D02*
X11025D01*
X10900D02*
X11025Y4250D01*
X10900Y4375D02*
X11025Y4250D01*
X10900Y4375D02*
X11025D01*
X11150Y4500D01*
X11275Y4375D01*
X11400D01*
X11275Y4250D02*
X11400Y4375D01*
X11275Y4250D02*
X11400Y4125D01*
X11275D02*
X11400D01*
X11150Y4000D02*
X11275Y4125D01*
X20675Y7375D02*
X20800Y7250D01*
X20550Y7375D02*
X20675D01*
X20550D02*
X20675Y7500D01*
X20550Y7625D02*
X20675Y7500D01*
X20550Y7625D02*
X20675D01*
X20800Y7750D01*
X20925Y7625D01*
X21050D01*
X20925Y7500D02*
X21050Y7625D01*
X20925Y7500D02*
X21050Y7375D01*
X20925D02*
X21050D01*
X20800Y7250D02*
X20925Y7375D01*
X21975D02*
X22100Y7250D01*
X21850Y7375D02*
X21975D01*
X21850D02*
X21975Y7500D01*
X21850Y7625D02*
X21975Y7500D01*
X21850Y7625D02*
X21975D01*
X22100Y7750D01*
X22225Y7625D01*
X22350D01*
X22225Y7500D02*
X22350Y7625D01*
X22225Y7500D02*
X22350Y7375D01*
X22225D02*
X22350D01*
X22100Y7250D02*
X22225Y7375D01*
X20675Y6125D02*
X20800Y6000D01*
X20550Y6125D02*
X20675D01*
X20550D02*
X20675Y6250D01*
X20550Y6375D02*
X20675Y6250D01*
X20550Y6375D02*
X20675D01*
X20800Y6500D01*
X20925Y6375D01*
X21050D01*
X20925Y6250D02*
X21050Y6375D01*
X20925Y6250D02*
X21050Y6125D01*
X20925D02*
X21050D01*
X20800Y6000D02*
X20925Y6125D01*
X21975Y6075D02*
X22100Y5950D01*
X21850Y6075D02*
X21975D01*
X21850D02*
X21975Y6200D01*
X21850Y6325D02*
X21975Y6200D01*
X21850Y6325D02*
X21975D01*
X22100Y6450D01*
X22225Y6325D01*
X22350D01*
X22225Y6200D02*
X22350Y6325D01*
X22225Y6200D02*
X22350Y6075D01*
X22225D02*
X22350D01*
X22100Y5950D02*
X22225Y6075D01*
X20675Y4775D02*
X20800Y4650D01*
X20550Y4775D02*
X20675D01*
X20550D02*
X20675Y4900D01*
X20550Y5025D02*
X20675Y4900D01*
X20550Y5025D02*
X20675D01*
X20800Y5150D01*
X20925Y5025D01*
X21050D01*
X20925Y4900D02*
X21050Y5025D01*
X20925Y4900D02*
X21050Y4775D01*
X20925D02*
X21050D01*
X20800Y4650D02*
X20925Y4775D01*
X22025D02*
X22150Y4650D01*
X21900Y4775D02*
X22025D01*
X21900D02*
X22025Y4900D01*
X21900Y5025D02*
X22025Y4900D01*
X21900Y5025D02*
X22025D01*
X22150Y5150D01*
X22275Y5025D01*
X22400D01*
X22275Y4900D02*
X22400Y5025D01*
X22275Y4900D02*
X22400Y4775D01*
X22275D02*
X22400D01*
X22150Y4650D02*
X22275Y4775D01*
X20725Y3425D02*
X20850Y3300D01*
X20600Y3425D02*
X20725D01*
X20600D02*
X20725Y3550D01*
X20600Y3675D02*
X20725Y3550D01*
X20600Y3675D02*
X20725D01*
X20850Y3800D01*
X20975Y3675D01*
X21100D01*
X20975Y3550D02*
X21100Y3675D01*
X20975Y3550D02*
X21100Y3425D01*
X20975D02*
X21100D01*
X20850Y3300D02*
X20975Y3425D01*
X22025Y3375D02*
X22150Y3250D01*
X21900Y3375D02*
X22025D01*
X21900D02*
X22025Y3500D01*
X21900Y3625D02*
X22025Y3500D01*
X21900Y3625D02*
X22025D01*
X22150Y3750D01*
X22275Y3625D01*
X22400D01*
X22275Y3500D02*
X22400Y3625D01*
X22275Y3500D02*
X22400Y3375D01*
X22275D02*
X22400D01*
X22150Y3250D02*
X22275Y3375D01*
X20725Y2125D02*
X20850Y2000D01*
X20600Y2125D02*
X20725D01*
X20600D02*
X20725Y2250D01*
X20600Y2375D02*
X20725Y2250D01*
X20600Y2375D02*
X20725D01*
X20850Y2500D01*
X20975Y2375D01*
X21100D01*
X20975Y2250D02*
X21100Y2375D01*
X20975Y2250D02*
X21100Y2125D01*
X20975D02*
X21100D01*
X20850Y2000D02*
X20975Y2125D01*
X22025Y2025D02*
X22150Y1900D01*
X21900Y2025D02*
X22025D01*
X21900D02*
X22025Y2150D01*
X21900Y2275D02*
X22025Y2150D01*
X21900Y2275D02*
X22025D01*
X22150Y2400D01*
X22275Y2275D01*
X22400D01*
X22275Y2150D02*
X22400Y2275D01*
X22275Y2150D02*
X22400Y2025D01*
X22275D02*
X22400D01*
X22150Y1900D02*
X22275Y2025D01*
X24775Y4775D02*
X24900Y4650D01*
X24650Y4775D02*
X24775D01*
X24650D02*
X24775Y4900D01*
X24650Y5025D02*
X24775Y4900D01*
X24650Y5025D02*
X24775D01*
X24900Y5150D01*
X25025Y5025D01*
X25150D01*
X25025Y4900D02*
X25150Y5025D01*
X25025Y4900D02*
X25150Y4775D01*
X25025D02*
X25150D01*
X24900Y4650D02*
X25025Y4775D01*
X9425Y24925D02*
X9550Y24800D01*
X9300Y24925D02*
X9425D01*
X9300D02*
X9425Y25050D01*
X9300Y25175D02*
X9425Y25050D01*
X9300Y25175D02*
X9425D01*
X9550Y25300D01*
X9675Y25175D01*
X9800D01*
X9675Y25050D02*
X9800Y25175D01*
X9675Y25050D02*
X9800Y24925D01*
X9675D02*
X9800D01*
X9550Y24800D02*
X9675Y24925D01*
X13225Y24975D02*
X13350Y24850D01*
X13100Y24975D02*
X13225D01*
X13100D02*
X13225Y25100D01*
X13100Y25225D02*
X13225Y25100D01*
X13100Y25225D02*
X13225D01*
X13350Y25350D01*
X13475Y25225D01*
X13600D01*
X13475Y25100D02*
X13600Y25225D01*
X13475Y25100D02*
X13600Y24975D01*
X13475D02*
X13600D01*
X13350Y24850D02*
X13475Y24975D01*
X16875Y25025D02*
X17000Y24900D01*
X16750Y25025D02*
X16875D01*
X16750D02*
X16875Y25150D01*
X16750Y25275D02*
X16875Y25150D01*
X16750Y25275D02*
X16875D01*
X17000Y25400D01*
X17125Y25275D01*
X17250D01*
X17125Y25150D02*
X17250Y25275D01*
X17125Y25150D02*
X17250Y25025D01*
X17125D02*
X17250D01*
X17000Y24900D02*
X17125Y25025D01*
X20575D02*
X20700Y24900D01*
X20450Y25025D02*
X20575D01*
X20450D02*
X20575Y25150D01*
X20450Y25275D02*
X20575Y25150D01*
X20450Y25275D02*
X20575D01*
X20700Y25400D01*
X20825Y25275D01*
X20950D01*
X20825Y25150D02*
X20950Y25275D01*
X20825Y25150D02*
X20950Y25025D01*
X20825D02*
X20950D01*
X20700Y24900D02*
X20825Y25025D01*
X23575Y25075D02*
X23700Y24950D01*
X23450Y25075D02*
X23575D01*
X23450D02*
X23575Y25200D01*
X23450Y25325D02*
X23575Y25200D01*
X23450Y25325D02*
X23575D01*
X23700Y25450D01*
X23825Y25325D01*
X23950D01*
X23825Y25200D02*
X23950Y25325D01*
X23825Y25200D02*
X23950Y25075D01*
X23825D02*
X23950D01*
X23700Y24950D02*
X23825Y25075D01*
X26925Y24425D02*
X27050Y24300D01*
X26800Y24425D02*
X26925D01*
X26800D02*
X26925Y24550D01*
X26800Y24675D02*
X26925Y24550D01*
X26800Y24675D02*
X26925D01*
X27050Y24800D01*
X27175Y24675D01*
X27300D01*
X27175Y24550D02*
X27300Y24675D01*
X27175Y24550D02*
X27300Y24425D01*
X27175D02*
X27300D01*
X27050Y24300D02*
X27175Y24425D01*
X29825Y24625D02*
X29950Y24500D01*
X29700Y24625D02*
X29825D01*
X29700D02*
X29825Y24750D01*
X29700Y24875D02*
X29825Y24750D01*
X29700Y24875D02*
X29825D01*
X29950Y25000D01*
X30075Y24875D01*
X30200D01*
X30075Y24750D02*
X30200Y24875D01*
X30075Y24750D02*
X30200Y24625D01*
X30075D02*
X30200D01*
X29950Y24500D02*
X30075Y24625D01*
X32925Y24725D02*
X33050Y24600D01*
X32800Y24725D02*
X32925D01*
X32800D02*
X32925Y24850D01*
X32800Y24975D02*
X32925Y24850D01*
X32800Y24975D02*
X32925D01*
X33050Y25100D01*
X33175Y24975D01*
X33300D01*
X33175Y24850D02*
X33300Y24975D01*
X33175Y24850D02*
X33300Y24725D01*
X33175D02*
X33300D01*
X33050Y24600D02*
X33175Y24725D01*
X36125Y24825D02*
X36250Y24700D01*
X36000Y24825D02*
X36125D01*
X36000D02*
X36125Y24950D01*
X36000Y25075D02*
X36125Y24950D01*
X36000Y25075D02*
X36125D01*
X36250Y25200D01*
X36375Y25075D01*
X36500D01*
X36375Y24950D02*
X36500Y25075D01*
X36375Y24950D02*
X36500Y24825D01*
X36375D02*
X36500D01*
X36250Y24700D02*
X36375Y24825D01*
X28175Y22375D02*
X28300Y22250D01*
X28050Y22375D02*
X28175D01*
X28050D02*
X28175Y22500D01*
X28050Y22625D02*
X28175Y22500D01*
X28050Y22625D02*
X28175D01*
X28300Y22750D01*
X28425Y22625D01*
X28550D01*
X28425Y22500D02*
X28550Y22625D01*
X28425Y22500D02*
X28550Y22375D01*
X28425D02*
X28550D01*
X28300Y22250D02*
X28425Y22375D01*
X31125Y22875D02*
X31250Y22750D01*
X31000Y22875D02*
X31125D01*
X31000D02*
X31125Y23000D01*
X31000Y23125D02*
X31125Y23000D01*
X31000Y23125D02*
X31125D01*
X31250Y23250D01*
X31375Y23125D01*
X31500D01*
X31375Y23000D02*
X31500Y23125D01*
X31375Y23000D02*
X31500Y22875D01*
X31375D02*
X31500D01*
X31250Y22750D02*
X31375Y22875D01*
X34925Y23725D02*
X35050Y23600D01*
X34800Y23725D02*
X34925D01*
X34800D02*
X34925Y23850D01*
X34800Y23975D02*
X34925Y23850D01*
X34800Y23975D02*
X34925D01*
X35050Y24100D01*
X35175Y23975D01*
X35300D01*
X35175Y23850D02*
X35300Y23975D01*
X35175Y23850D02*
X35300Y23725D01*
X35175D02*
X35300D01*
X35050Y23600D02*
X35175Y23725D01*
X28625Y20675D02*
X28750Y20550D01*
X28500Y20675D02*
X28625D01*
X28500D02*
X28625Y20800D01*
X28500Y20925D02*
X28625Y20800D01*
X28500Y20925D02*
X28625D01*
X28750Y21050D01*
X28875Y20925D01*
X29000D01*
X28875Y20800D02*
X29000Y20925D01*
X28875Y20800D02*
X29000Y20675D01*
X28875D02*
X29000D01*
X28750Y20550D02*
X28875Y20675D01*
X25975Y21175D02*
X26100Y21050D01*
X25850Y21175D02*
X25975D01*
X25850D02*
X25975Y21300D01*
X25850Y21425D02*
X25975Y21300D01*
X25850Y21425D02*
X25975D01*
X26100Y21550D01*
X26225Y21425D01*
X26350D01*
X26225Y21300D02*
X26350Y21425D01*
X26225Y21300D02*
X26350Y21175D01*
X26225D02*
X26350D01*
X26100Y21050D02*
X26225Y21175D01*
X40125Y21625D02*
X40250Y21500D01*
X40000Y21625D02*
X40125D01*
X40000D02*
X40125Y21750D01*
X40000Y21875D02*
X40125Y21750D01*
X40000Y21875D02*
X40125D01*
X40250Y22000D01*
X40375Y21875D01*
X40500D01*
X40375Y21750D02*
X40500Y21875D01*
X40375Y21750D02*
X40500Y21625D01*
X40375D02*
X40500D01*
X40250Y21500D02*
X40375Y21625D01*
X40425Y19825D02*
X40550Y19700D01*
X40300Y19825D02*
X40425D01*
X40300D02*
X40425Y19950D01*
X40300Y20075D02*
X40425Y19950D01*
X40300Y20075D02*
X40425D01*
X40550Y20200D01*
X40675Y20075D01*
X40800D01*
X40675Y19950D02*
X40800Y20075D01*
X40675Y19950D02*
X40800Y19825D01*
X40675D02*
X40800D01*
X40550Y19700D02*
X40675Y19825D01*
X40375Y18125D02*
X40500Y18000D01*
X40250Y18125D02*
X40375D01*
X40250D02*
X40375Y18250D01*
X40250Y18375D02*
X40375Y18250D01*
X40250Y18375D02*
X40375D01*
X40500Y18500D01*
X40625Y18375D01*
X40750D01*
X40625Y18250D02*
X40750Y18375D01*
X40625Y18250D02*
X40750Y18125D01*
X40625D02*
X40750D01*
X40500Y18000D02*
X40625Y18125D01*
X40225Y16125D02*
X40350Y16000D01*
X40100Y16125D02*
X40225D01*
X40100D02*
X40225Y16250D01*
X40100Y16375D02*
X40225Y16250D01*
X40100Y16375D02*
X40225D01*
X40350Y16500D01*
X40475Y16375D01*
X40600D01*
X40475Y16250D02*
X40600Y16375D01*
X40475Y16250D02*
X40600Y16125D01*
X40475D02*
X40600D01*
X40350Y16000D02*
X40475Y16125D01*
X40675Y12975D02*
X40800Y12850D01*
X40550Y12975D02*
X40675D01*
X40550D02*
X40675Y13100D01*
X40550Y13225D02*
X40675Y13100D01*
X40550Y13225D02*
X40675D01*
X40800Y13350D01*
X40925Y13225D01*
X41050D01*
X40925Y13100D02*
X41050Y13225D01*
X40925Y13100D02*
X41050Y12975D01*
X40925D02*
X41050D01*
X40800Y12850D02*
X40925Y12975D01*
X40625Y11625D02*
X40750Y11500D01*
X40500Y11625D02*
X40625D01*
X40500D02*
X40625Y11750D01*
X40500Y11875D02*
X40625Y11750D01*
X40500Y11875D02*
X40625D01*
X40750Y12000D01*
X40875Y11875D01*
X41000D01*
X40875Y11750D02*
X41000Y11875D01*
X40875Y11750D02*
X41000Y11625D01*
X40875D02*
X41000D01*
X40750Y11500D02*
X40875Y11625D01*
X40525Y10075D02*
X40650Y9950D01*
X40400Y10075D02*
X40525D01*
X40400D02*
X40525Y10200D01*
X40400Y10325D02*
X40525Y10200D01*
X40400Y10325D02*
X40525D01*
X40650Y10450D01*
X40775Y10325D01*
X40900D01*
X40775Y10200D02*
X40900Y10325D01*
X40775Y10200D02*
X40900Y10075D01*
X40775D02*
X40900D01*
X40650Y9950D02*
X40775Y10075D01*
Y8675D02*
X40900Y8550D01*
X40650Y8675D02*
X40775D01*
X40650D02*
X40775Y8800D01*
X40650Y8925D02*
X40775Y8800D01*
X40650Y8925D02*
X40775D01*
X40900Y9050D01*
X41025Y8925D01*
X41150D01*
X41025Y8800D02*
X41150Y8925D01*
X41025Y8800D02*
X41150Y8675D01*
X41025D02*
X41150D01*
X40900Y8550D02*
X41025Y8675D01*
X40725Y7425D02*
X40850Y7300D01*
X40600Y7425D02*
X40725D01*
X40600D02*
X40725Y7550D01*
X40600Y7675D02*
X40725Y7550D01*
X40600Y7675D02*
X40725D01*
X40850Y7800D01*
X40975Y7675D01*
X41100D01*
X40975Y7550D02*
X41100Y7675D01*
X40975Y7550D02*
X41100Y7425D01*
X40975D02*
X41100D01*
X40850Y7300D02*
X40975Y7425D01*
X40625Y6375D02*
X40750Y6250D01*
X40500Y6375D02*
X40625D01*
X40500D02*
X40625Y6500D01*
X40500Y6625D02*
X40625Y6500D01*
X40500Y6625D02*
X40625D01*
X40750Y6750D01*
X40875Y6625D01*
X41000D01*
X40875Y6500D02*
X41000Y6625D01*
X40875Y6500D02*
X41000Y6375D01*
X40875D02*
X41000D01*
X40750Y6250D02*
X40875Y6375D01*
X40975Y4975D02*
X41100Y4850D01*
X40850Y4975D02*
X40975D01*
X40850D02*
X40975Y5100D01*
X40850Y5225D02*
X40975Y5100D01*
X40850Y5225D02*
X40975D01*
X41100Y5350D01*
X41225Y5225D01*
X41350D01*
X41225Y5100D02*
X41350Y5225D01*
X41225Y5100D02*
X41350Y4975D01*
X41225D02*
X41350D01*
X41100Y4850D02*
X41225Y4975D01*
X34975Y5275D02*
X35100Y5150D01*
X34850Y5275D02*
X34975D01*
X34850D02*
X34975Y5400D01*
X34850Y5525D02*
X34975Y5400D01*
X34850Y5525D02*
X34975D01*
X35100Y5650D01*
X35225Y5525D01*
X35350D01*
X35225Y5400D02*
X35350Y5525D01*
X35225Y5400D02*
X35350Y5275D01*
X35225D02*
X35350D01*
X35100Y5150D02*
X35225Y5275D01*
X36325Y2675D02*
X36450Y2550D01*
X36200Y2675D02*
X36325D01*
X36200D02*
X36325Y2800D01*
X36200Y2925D02*
X36325Y2800D01*
X36200Y2925D02*
X36325D01*
X36450Y3050D01*
X36575Y2925D01*
X36700D01*
X36575Y2800D02*
X36700Y2925D01*
X36575Y2800D02*
X36700Y2675D01*
X36575D02*
X36700D01*
X36450Y2550D02*
X36575Y2675D01*
X32625Y2175D02*
X32750Y2050D01*
X32500Y2175D02*
X32625D01*
X32500D02*
X32625Y2300D01*
X32500Y2425D02*
X32625Y2300D01*
X32500Y2425D02*
X32625D01*
X32750Y2550D01*
X32875Y2425D01*
X33000D01*
X32875Y2300D02*
X33000Y2425D01*
X32875Y2300D02*
X33000Y2175D01*
X32875D02*
X33000D01*
X32750Y2050D02*
X32875Y2175D01*
X29925Y3975D02*
X30050Y3850D01*
X29800Y3975D02*
X29925D01*
X29800D02*
X29925Y4100D01*
X29800Y4225D02*
X29925Y4100D01*
X29800Y4225D02*
X29925D01*
X30050Y4350D01*
X30175Y4225D01*
X30300D01*
X30175Y4100D02*
X30300Y4225D01*
X30175Y4100D02*
X30300Y3975D01*
X30175D02*
X30300D01*
X30050Y3850D02*
X30175Y3975D01*
X26925Y4325D02*
X27050Y4200D01*
X26800Y4325D02*
X26925D01*
X26800D02*
X26925Y4450D01*
X26800Y4575D02*
X26925Y4450D01*
X26800Y4575D02*
X26925D01*
X27050Y4700D01*
X27175Y4575D01*
X27300D01*
X27175Y4450D02*
X27300Y4575D01*
X27175Y4450D02*
X27300Y4325D01*
X27175D02*
X27300D01*
X27050Y4200D02*
X27175Y4325D01*
X29725Y1975D02*
X29850Y1850D01*
X29600Y1975D02*
X29725D01*
X29600D02*
X29725Y2100D01*
X29600Y2225D02*
X29725Y2100D01*
X29600Y2225D02*
X29725D01*
X29850Y2350D01*
X29975Y2225D01*
X30100D01*
X29975Y2100D02*
X30100Y2225D01*
X29975Y2100D02*
X30100Y1975D01*
X29975D02*
X30100D01*
X29850Y1850D02*
X29975Y1975D01*
X34725Y1625D02*
X34850Y1500D01*
X34600Y1625D02*
X34725D01*
X34600D02*
X34725Y1750D01*
X34600Y1875D02*
X34725Y1750D01*
X34600Y1875D02*
X34725D01*
X34850Y2000D01*
X34975Y1875D01*
X35100D01*
X34975Y1750D02*
X35100Y1875D01*
X34975Y1750D02*
X35100Y1625D01*
X34975D02*
X35100D01*
X34850Y1500D02*
X34975Y1625D01*
X35308Y13458D02*
X35433Y13333D01*
X35183Y13458D02*
X35308D01*
X35183D02*
X35308Y13583D01*
X35183Y13708D02*
X35308Y13583D01*
X35183Y13708D02*
X35308D01*
X35433Y13833D01*
X35558Y13708D01*
X35683D01*
X35558Y13583D02*
X35683Y13708D01*
X35558Y13583D02*
X35683Y13458D01*
X35558D02*
X35683D01*
X35433Y13333D02*
X35558Y13458D01*
X33725Y13425D02*
X33850Y13300D01*
X33600Y13425D02*
X33725D01*
X33600D02*
X33725Y13550D01*
X33600Y13675D02*
X33725Y13550D01*
X33600Y13675D02*
X33725D01*
X33850Y13800D01*
X33975Y13675D01*
X34100D01*
X33975Y13550D02*
X34100Y13675D01*
X33975Y13550D02*
X34100Y13425D01*
X33975D02*
X34100D01*
X33850Y13300D02*
X33975Y13425D01*
X37025Y13325D02*
X37150Y13200D01*
X36900Y13325D02*
X37025D01*
X36900D02*
X37025Y13450D01*
X36900Y13575D02*
X37025Y13450D01*
X36900Y13575D02*
X37025D01*
X37150Y13700D01*
X37275Y13575D01*
X37400D01*
X37275Y13450D02*
X37400Y13575D01*
X37275Y13450D02*
X37400Y13325D01*
X37275D02*
X37400D01*
X37150Y13200D02*
X37275Y13325D01*
X24475Y19325D02*
X24600Y19200D01*
X24350Y19325D02*
X24475D01*
X24350D02*
X24475Y19450D01*
X24350Y19575D02*
X24475Y19450D01*
X24350Y19575D02*
X24475D01*
X24600Y19700D01*
X24725Y19575D01*
X24850D01*
X24725Y19450D02*
X24850Y19575D01*
X24725Y19450D02*
X24850Y19325D01*
X24725D02*
X24850D01*
X24600Y19200D02*
X24725Y19325D01*
X15875Y8625D02*
X16000Y8500D01*
X15750Y8625D02*
X15875D01*
X15750D02*
X15875Y8750D01*
X15750Y8875D02*
X15875Y8750D01*
X15750Y8875D02*
X15875D01*
X16000Y9000D01*
X16125Y8875D01*
X16250D01*
X16125Y8750D02*
X16250Y8875D01*
X16125Y8750D02*
X16250Y8625D01*
X16125D02*
X16250D01*
X16000Y8500D02*
X16125Y8625D01*
X16675Y8475D02*
X16800Y8350D01*
X16550Y8475D02*
X16675D01*
X16550D02*
X16675Y8600D01*
X16550Y8725D02*
X16675Y8600D01*
X16550Y8725D02*
X16675D01*
X16800Y8850D01*
X16925Y8725D01*
X17050D01*
X16925Y8600D02*
X17050Y8725D01*
X16925Y8600D02*
X17050Y8475D01*
X16925D02*
X17050D01*
X16800Y8350D02*
X16925Y8475D01*
X16125Y7425D02*
X16250Y7300D01*
X16000Y7425D02*
X16125D01*
X16000D02*
X16125Y7550D01*
X16000Y7675D02*
X16125Y7550D01*
X16000Y7675D02*
X16125D01*
X16250Y7800D01*
X16375Y7675D01*
X16500D01*
X16375Y7550D02*
X16500Y7675D01*
X16375Y7550D02*
X16500Y7425D01*
X16375D02*
X16500D01*
X16250Y7300D02*
X16375Y7425D01*
X15375Y6575D02*
X15500Y6450D01*
X15250Y6575D02*
X15375D01*
X15250D02*
X15375Y6700D01*
X15250Y6825D02*
X15375Y6700D01*
X15250Y6825D02*
X15375D01*
X15500Y6950D01*
X15625Y6825D01*
X15750D01*
X15625Y6700D02*
X15750Y6825D01*
X15625Y6700D02*
X15750Y6575D01*
X15625D02*
X15750D01*
X15500Y6450D02*
X15625Y6575D01*
X14025Y21725D02*
X14150Y21600D01*
X13900Y21725D02*
X14025D01*
X13900D02*
X14025Y21850D01*
X13900Y21975D02*
X14025Y21850D01*
X13900Y21975D02*
X14025D01*
X14150Y22100D01*
X14275Y21975D01*
X14400D01*
X14275Y21850D02*
X14400Y21975D01*
X14275Y21850D02*
X14400Y21725D01*
X14275D02*
X14400D01*
X14150Y21600D02*
X14275Y21725D01*
X15475Y21825D02*
X15600Y21700D01*
X15350Y21825D02*
X15475D01*
X15350D02*
X15475Y21950D01*
X15350Y22075D02*
X15475Y21950D01*
X15350Y22075D02*
X15475D01*
X15600Y22200D01*
X15725Y22075D01*
X15850D01*
X15725Y21950D02*
X15850Y22075D01*
X15725Y21950D02*
X15850Y21825D01*
X15725D02*
X15850D01*
X15600Y21700D02*
X15725Y21825D01*
X13925Y20425D02*
X14050Y20300D01*
X13800Y20425D02*
X13925D01*
X13800D02*
X13925Y20550D01*
X13800Y20675D02*
X13925Y20550D01*
X13800Y20675D02*
X13925D01*
X14050Y20800D01*
X14175Y20675D01*
X14300D01*
X14175Y20550D02*
X14300Y20675D01*
X14175Y20550D02*
X14300Y20425D01*
X14175D02*
X14300D01*
X14050Y20300D02*
X14175Y20425D01*
X15475Y20375D02*
X15600Y20250D01*
X15350Y20375D02*
X15475D01*
X15350D02*
X15475Y20500D01*
X15350Y20625D02*
X15475Y20500D01*
X15350Y20625D02*
X15475D01*
X15600Y20750D01*
X15725Y20625D01*
X15850D01*
X15725Y20500D02*
X15850Y20625D01*
X15725Y20500D02*
X15850Y20375D01*
X15725D02*
X15850D01*
X15600Y20250D02*
X15725Y20375D01*
X13975Y18925D02*
X14100Y18800D01*
X13850Y18925D02*
X13975D01*
X13850D02*
X13975Y19050D01*
X13850Y19175D02*
X13975Y19050D01*
X13850Y19175D02*
X13975D01*
X14100Y19300D01*
X14225Y19175D01*
X14350D01*
X14225Y19050D02*
X14350Y19175D01*
X14225Y19050D02*
X14350Y18925D01*
X14225D02*
X14350D01*
X14100Y18800D02*
X14225Y18925D01*
X15375Y18875D02*
X15500Y18750D01*
X15250Y18875D02*
X15375D01*
X15250D02*
X15375Y19000D01*
X15250Y19125D02*
X15375Y19000D01*
X15250Y19125D02*
X15375D01*
X15500Y19250D01*
X15625Y19125D01*
X15750D01*
X15625Y19000D02*
X15750Y19125D01*
X15625Y19000D02*
X15750Y18875D01*
X15625D02*
X15750D01*
X15500Y18750D02*
X15625Y18875D01*
X15375Y17575D02*
X15500Y17450D01*
X15250Y17575D02*
X15375D01*
X15250D02*
X15375Y17700D01*
X15250Y17825D02*
X15375Y17700D01*
X15250Y17825D02*
X15375D01*
X15500Y17950D01*
X15625Y17825D01*
X15750D01*
X15625Y17700D02*
X15750Y17825D01*
X15625Y17700D02*
X15750Y17575D01*
X15625D02*
X15750D01*
X15500Y17450D02*
X15625Y17575D01*
X37490Y14375D02*
X37990D01*
Y14875D01*
X37490D02*
X37990D01*
X37490Y14375D02*
Y14875D01*
Y20765D02*
X37990D01*
Y21265D01*
X37490D02*
X37990D01*
X37490Y20765D02*
Y21265D01*
X32490Y14375D02*
X32990D01*
Y14875D01*
X32490D02*
X32990D01*
X32490Y14375D02*
Y14875D01*
Y20765D02*
X32990D01*
Y21265D01*
X32490D02*
X32990D01*
X32490Y20765D02*
Y21265D01*
X3746Y10917D02*
X4246D01*
Y11417D01*
X3746D02*
X4246D01*
X3746Y10917D02*
Y11417D01*
Y4528D02*
X4246D01*
Y5028D01*
X3746D02*
X4246D01*
X3746Y4528D02*
Y5028D01*
X8746Y10917D02*
X9246D01*
Y11417D01*
X8746D02*
X9246D01*
X8746Y10917D02*
Y11417D01*
Y4528D02*
X9246D01*
Y5028D01*
X8746D02*
X9246D01*
X8746Y4528D02*
Y5028D01*
X3746Y20760D02*
X4246D01*
Y21260D01*
X3746D02*
X4246D01*
X3746Y20760D02*
Y21260D01*
Y14370D02*
X4246D01*
Y14870D01*
X3746D02*
X4246D01*
X3746Y14370D02*
Y14870D01*
X8746Y20760D02*
X9246D01*
Y21260D01*
X8746D02*
X9246D01*
X8746Y20760D02*
Y21260D01*
Y14370D02*
X9246D01*
Y14870D01*
X8746D02*
X9246D01*
X8746Y14370D02*
Y14870D01*
X20472Y19494D02*
X20722Y19994D01*
X20222D02*
X20722D01*
X20222D02*
X20472Y19494D01*
Y21896D02*
X20722Y22396D01*
X20222D02*
X20722D01*
X20222D02*
X20472Y21896D01*
X18661Y20596D02*
X18911Y21096D01*
X18411D02*
X18911D01*
X18411D02*
X18661Y20596D01*
X32486Y10917D02*
X32986D01*
Y11417D01*
X32486D02*
X32986D01*
X32486Y10917D02*
Y11417D01*
Y4528D02*
X32986D01*
Y5028D01*
X32486D02*
X32986D01*
X32486Y4528D02*
Y5028D01*
X37486Y10917D02*
X37986D01*
Y11417D01*
X37486D02*
X37986D01*
X37486Y10917D02*
Y11417D01*
Y4528D02*
X37986D01*
Y5028D01*
X37486D02*
X37986D01*
X37486Y4528D02*
Y5028D01*
D54*
X150682Y12052D02*
Y11332D01*
Y11692D01*
X151161D01*
Y12052D01*
Y11332D01*
X151521D02*
X151761D01*
X151881Y11452D01*
Y11692D01*
X151761Y11812D01*
X151521D01*
X151401Y11692D01*
Y11452D01*
X151521Y11332D01*
X152121D02*
X152361D01*
X152241D01*
Y12052D01*
X152121D01*
X153081Y11332D02*
X152841D01*
X152721Y11452D01*
Y11692D01*
X152841Y11812D01*
X153081D01*
X153201Y11692D01*
Y11572D01*
X152721D01*
X154160Y12052D02*
X154640D01*
X154400D01*
Y11332D01*
X155000D02*
X155240D01*
X155360Y11452D01*
Y11692D01*
X155240Y11812D01*
X155000D01*
X154880Y11692D01*
Y11452D01*
X155000Y11332D01*
X155600D02*
X155840D01*
X155720D01*
Y12052D01*
X155600D01*
X156560Y11332D02*
X156320D01*
X156200Y11452D01*
Y11692D01*
X156320Y11812D01*
X156560D01*
X156680Y11692D01*
Y11572D01*
X156200D01*
X156919Y11812D02*
Y11332D01*
Y11572D01*
X157039Y11692D01*
X157159Y11812D01*
X157279D01*
X157759D02*
X157999D01*
X158119Y11692D01*
Y11332D01*
X157759D01*
X157639Y11452D01*
X157759Y11572D01*
X158119D01*
X158359Y11332D02*
Y11812D01*
X158719D01*
X158839Y11692D01*
Y11332D01*
X159559Y11812D02*
X159199D01*
X159079Y11692D01*
Y11452D01*
X159199Y11332D01*
X159559D01*
X160158D02*
X159919D01*
X159799Y11452D01*
Y11692D01*
X159919Y11812D01*
X160158D01*
X160278Y11692D01*
Y11572D01*
X159799D01*
X161478Y11332D02*
X161238Y11572D01*
Y11812D01*
X161478Y12052D01*
X161838Y11692D02*
X162318D01*
X162558Y11332D02*
X162798Y11572D01*
Y11812D01*
X162558Y12052D01*
X137345D02*
Y11332D01*
Y11692D01*
X137825D01*
Y12052D01*
Y11332D01*
X138185D02*
X138425D01*
X138545Y11452D01*
Y11692D01*
X138425Y11812D01*
X138185D01*
X138065Y11692D01*
Y11452D01*
X138185Y11332D01*
X138785D02*
X139025D01*
X138905D01*
Y12052D01*
X138785D01*
X139745Y11332D02*
X139505D01*
X139385Y11452D01*
Y11692D01*
X139505Y11812D01*
X139745D01*
X139865Y11692D01*
Y11572D01*
X139385D01*
X140824Y12052D02*
X141304D01*
X141064D01*
Y11332D01*
X141664D02*
X141904D01*
X142024Y11452D01*
Y11692D01*
X141904Y11812D01*
X141664D01*
X141544Y11692D01*
Y11452D01*
X141664Y11332D01*
X142264D02*
X142504D01*
X142384D01*
Y12052D01*
X142264D01*
X143224Y11332D02*
X142984D01*
X142864Y11452D01*
Y11692D01*
X142984Y11812D01*
X143224D01*
X143343Y11692D01*
Y11572D01*
X142864D01*
X143583Y11812D02*
Y11332D01*
Y11572D01*
X143703Y11692D01*
X143823Y11812D01*
X143943D01*
X144423D02*
X144663D01*
X144783Y11692D01*
Y11332D01*
X144423D01*
X144303Y11452D01*
X144423Y11572D01*
X144783D01*
X145023Y11332D02*
Y11812D01*
X145383D01*
X145503Y11692D01*
Y11332D01*
X146223Y11812D02*
X145863D01*
X145743Y11692D01*
Y11452D01*
X145863Y11332D01*
X146223D01*
X146822D02*
X146582D01*
X146462Y11452D01*
Y11692D01*
X146582Y11812D01*
X146822D01*
X146942Y11692D01*
Y11572D01*
X146462D01*
X148142Y11332D02*
X147902Y11572D01*
Y11812D01*
X148142Y12052D01*
X148502Y11692D02*
X148982D01*
X148742Y11932D02*
Y11452D01*
X149222Y11332D02*
X149462Y11572D01*
Y11812D01*
X149222Y12052D01*
X128808D02*
Y11332D01*
X129168D01*
X129288Y11452D01*
Y11932D01*
X129168Y12052D01*
X128808D01*
X129887Y11332D02*
X129648D01*
X129528Y11452D01*
Y11692D01*
X129648Y11812D01*
X129887D01*
X130007Y11692D01*
Y11572D01*
X129528D01*
X130247Y11332D02*
X130607D01*
X130727Y11452D01*
X130607Y11572D01*
X130367D01*
X130247Y11692D01*
X130367Y11812D01*
X130727D01*
X131447D02*
X131087D01*
X130967Y11692D01*
Y11452D01*
X131087Y11332D01*
X131447D01*
X131687Y11812D02*
Y11332D01*
Y11572D01*
X131807Y11692D01*
X131927Y11812D01*
X132047D01*
X132407Y11332D02*
X132647D01*
X132527D01*
Y11812D01*
X132407D01*
X133006Y11092D02*
Y11812D01*
X133366D01*
X133486Y11692D01*
Y11452D01*
X133366Y11332D01*
X133006D01*
X133846Y11932D02*
Y11812D01*
X133726D01*
X133966D01*
X133846D01*
Y11452D01*
X133966Y11332D01*
X134326D02*
X134566D01*
X134446D01*
Y11812D01*
X134326D01*
X135046Y11332D02*
X135286D01*
X135406Y11452D01*
Y11692D01*
X135286Y11812D01*
X135046D01*
X134926Y11692D01*
Y11452D01*
X135046Y11332D01*
X135646D02*
Y11812D01*
X136005D01*
X136125Y11692D01*
Y11332D01*
X113612Y12052D02*
X114092D01*
X113852D01*
Y11332D01*
X114692D02*
X114452D01*
X114332Y11452D01*
Y11692D01*
X114452Y11812D01*
X114692D01*
X114812Y11692D01*
Y11572D01*
X114332D01*
X115052Y11332D02*
Y11812D01*
X115172D01*
X115292Y11692D01*
Y11332D01*
Y11692D01*
X115412Y11812D01*
X115532Y11692D01*
Y11332D01*
X115772Y11092D02*
Y11812D01*
X116132D01*
X116251Y11692D01*
Y11452D01*
X116132Y11332D01*
X115772D01*
X116491D02*
X116731D01*
X116611D01*
Y12052D01*
X116491D01*
X117211Y11812D02*
X117451D01*
X117571Y11692D01*
Y11332D01*
X117211D01*
X117091Y11452D01*
X117211Y11572D01*
X117571D01*
X117931Y11932D02*
Y11812D01*
X117811D01*
X118051D01*
X117931D01*
Y11452D01*
X118051Y11332D01*
X118771D02*
X118531D01*
X118411Y11452D01*
Y11692D01*
X118531Y11812D01*
X118771D01*
X118891Y11692D01*
Y11572D01*
X118411D01*
X106154Y11332D02*
Y12052D01*
X106514D01*
X106634Y11932D01*
Y11692D01*
X106514Y11572D01*
X106154D01*
X106994Y11812D02*
X107234D01*
X107354Y11692D01*
Y11332D01*
X106994D01*
X106874Y11452D01*
X106994Y11572D01*
X107354D01*
X108074Y12052D02*
Y11332D01*
X107714D01*
X107594Y11452D01*
Y11692D01*
X107714Y11812D01*
X108074D01*
X109513Y11932D02*
X109393Y12052D01*
X109153D01*
X109033Y11932D01*
Y11812D01*
X109153Y11692D01*
X109393D01*
X109513Y11572D01*
Y11452D01*
X109393Y11332D01*
X109153D01*
X109033Y11452D01*
X109753Y12052D02*
Y11332D01*
Y11692D01*
X109873Y11812D01*
X110113D01*
X110233Y11692D01*
Y11332D01*
X110593Y11812D02*
X110833D01*
X110953Y11692D01*
Y11332D01*
X110593D01*
X110473Y11452D01*
X110593Y11572D01*
X110953D01*
X111193Y11092D02*
Y11812D01*
X111553D01*
X111673Y11692D01*
Y11452D01*
X111553Y11332D01*
X111193D01*
X112272D02*
X112032D01*
X111913Y11452D01*
Y11692D01*
X112032Y11812D01*
X112272D01*
X112392Y11692D01*
Y11572D01*
X111913D01*
X100256Y12052D02*
Y11572D01*
X100496Y11332D01*
X100736Y11572D01*
Y12052D01*
X100976Y11332D02*
X101216D01*
X101096D01*
Y11812D01*
X100976D01*
X101695D02*
X101935D01*
X102055Y11692D01*
Y11332D01*
X101695D01*
X101575Y11452D01*
X101695Y11572D01*
X102055D01*
X102295Y11332D02*
X102775Y11812D01*
X103015Y11332D02*
Y12052D01*
X103375D01*
X103495Y11932D01*
Y11692D01*
X103375Y11572D01*
X103015D01*
X103855Y11812D02*
X104095D01*
X104215Y11692D01*
Y11332D01*
X103855D01*
X103735Y11452D01*
X103855Y11572D01*
X104215D01*
X104934Y12052D02*
Y11332D01*
X104574D01*
X104455Y11452D01*
Y11692D01*
X104574Y11812D01*
X104934D01*
X85260Y12052D02*
Y11332D01*
X85620D01*
X85740Y11452D01*
Y11932D01*
X85620Y12052D01*
X85260D01*
X85980Y11812D02*
Y11332D01*
Y11572D01*
X86100Y11692D01*
X86220Y11812D01*
X86340D01*
X86700Y11332D02*
X86940D01*
X86820D01*
Y11812D01*
X86700D01*
X87300Y11332D02*
X87540D01*
X87420D01*
Y12052D01*
X87300D01*
X87900Y11332D02*
X88139D01*
X88019D01*
Y12052D01*
X87900D01*
X89219D02*
Y11332D01*
X89699D01*
X90059Y11812D02*
X90299D01*
X90419Y11692D01*
Y11332D01*
X90059D01*
X89939Y11452D01*
X90059Y11572D01*
X90419D01*
X90659Y11812D02*
Y11452D01*
X90779Y11332D01*
X91138D01*
Y11212D01*
X91019Y11092D01*
X90899D01*
X91138Y11332D02*
Y11812D01*
X91738Y11332D02*
X91498D01*
X91378Y11452D01*
Y11692D01*
X91498Y11812D01*
X91738D01*
X91858Y11692D01*
Y11572D01*
X91378D01*
X92098Y11812D02*
Y11332D01*
Y11572D01*
X92218Y11692D01*
X92338Y11812D01*
X92458D01*
X93538Y11332D02*
Y12052D01*
X93898D01*
X94018Y11932D01*
Y11692D01*
X93898Y11572D01*
X93538D01*
X94377Y11812D02*
X94617D01*
X94737Y11692D01*
Y11332D01*
X94377D01*
X94257Y11452D01*
X94377Y11572D01*
X94737D01*
X94977Y11332D02*
X95217D01*
X95097D01*
Y11812D01*
X94977D01*
X95577D02*
Y11332D01*
Y11572D01*
X95697Y11692D01*
X95817Y11812D01*
X95937D01*
X77922Y12052D02*
Y11332D01*
Y11692D01*
X78402D01*
Y12052D01*
Y11332D01*
X78762D02*
X79002D01*
X79122Y11452D01*
Y11692D01*
X79002Y11812D01*
X78762D01*
X78642Y11692D01*
Y11452D01*
X78762Y11332D01*
X79362D02*
X79602D01*
X79482D01*
Y12052D01*
X79362D01*
X80322Y11332D02*
X80082D01*
X79962Y11452D01*
Y11692D01*
X80082Y11812D01*
X80322D01*
X80442Y11692D01*
Y11572D01*
X79962D01*
X81401Y12052D02*
X81881D01*
X81641D01*
Y11332D01*
X82121Y11812D02*
Y11452D01*
X82241Y11332D01*
X82601D01*
Y11212D01*
X82481Y11092D01*
X82361D01*
X82601Y11332D02*
Y11812D01*
X82841Y11092D02*
Y11812D01*
X83201D01*
X83321Y11692D01*
Y11452D01*
X83201Y11332D01*
X82841D01*
X83920D02*
X83680D01*
X83561Y11452D01*
Y11692D01*
X83680Y11812D01*
X83920D01*
X84040Y11692D01*
Y11572D01*
X83561D01*
X72864Y11332D02*
Y12052D01*
X73223D01*
X73343Y11932D01*
Y11692D01*
X73223Y11572D01*
X72864D01*
X73583Y11332D02*
X73823D01*
X73703D01*
Y12052D01*
X73583D01*
X74303Y11812D02*
X74543D01*
X74663Y11692D01*
Y11332D01*
X74303D01*
X74183Y11452D01*
X74303Y11572D01*
X74663D01*
X75023Y11932D02*
Y11812D01*
X74903D01*
X75143D01*
X75023D01*
Y11452D01*
X75143Y11332D01*
X75863D02*
X75623D01*
X75503Y11452D01*
Y11692D01*
X75623Y11812D01*
X75863D01*
X75983Y11692D01*
Y11572D01*
X75503D01*
X76702Y12052D02*
Y11332D01*
X76342D01*
X76223Y11452D01*
Y11692D01*
X76342Y11812D01*
X76702D01*
X61967Y12052D02*
Y11332D01*
Y11692D01*
X62447D01*
Y12052D01*
Y11332D01*
X62807D02*
X63046D01*
X63166Y11452D01*
Y11692D01*
X63046Y11812D01*
X62807D01*
X62687Y11692D01*
Y11452D01*
X62807Y11332D01*
X63406D02*
X63646D01*
X63526D01*
Y12052D01*
X63406D01*
X64366Y11332D02*
X64126D01*
X64006Y11452D01*
Y11692D01*
X64126Y11812D01*
X64366D01*
X64486Y11692D01*
Y11572D01*
X64006D01*
X65925Y11932D02*
X65806Y12052D01*
X65566D01*
X65446Y11932D01*
Y11812D01*
X65566Y11692D01*
X65806D01*
X65925Y11572D01*
Y11452D01*
X65806Y11332D01*
X65566D01*
X65446Y11452D01*
X66165Y11332D02*
X66405D01*
X66285D01*
Y11812D01*
X66165D01*
X66765D02*
X67245D01*
X66765Y11332D01*
X67245D01*
X67845D02*
X67605D01*
X67485Y11452D01*
Y11692D01*
X67605Y11812D01*
X67845D01*
X67965Y11692D01*
Y11572D01*
X67485D01*
X56548Y11932D02*
X56428Y12052D01*
X56188D01*
X56068Y11932D01*
Y11452D01*
X56188Y11332D01*
X56428D01*
X56548Y11452D01*
X56908Y11332D02*
X57148D01*
X57268Y11452D01*
Y11692D01*
X57148Y11812D01*
X56908D01*
X56788Y11692D01*
Y11452D01*
X56908Y11332D01*
X57508Y11812D02*
Y11452D01*
X57628Y11332D01*
X57988D01*
Y11812D01*
X58228Y11332D02*
Y11812D01*
X58588D01*
X58707Y11692D01*
Y11332D01*
X59067Y11932D02*
Y11812D01*
X58947D01*
X59187D01*
X59067D01*
Y11452D01*
X59187Y11332D01*
X51489Y11932D02*
X51369Y12052D01*
X51130D01*
X51010Y11932D01*
Y11812D01*
X51130Y11692D01*
X51369D01*
X51489Y11572D01*
Y11452D01*
X51369Y11332D01*
X51130D01*
X51010Y11452D01*
X51729Y11812D02*
Y11452D01*
X51849Y11332D01*
X52209D01*
Y11212D01*
X52089Y11092D01*
X51969D01*
X52209Y11332D02*
Y11812D01*
X52449Y11332D02*
Y11812D01*
X52569D01*
X52689Y11692D01*
Y11332D01*
Y11692D01*
X52809Y11812D01*
X52929Y11692D01*
Y11332D01*
X53169Y12052D02*
Y11332D01*
X53529D01*
X53649Y11452D01*
Y11572D01*
Y11692D01*
X53529Y11812D01*
X53169D01*
X54009Y11332D02*
X54249D01*
X54368Y11452D01*
Y11692D01*
X54249Y11812D01*
X54009D01*
X53889Y11692D01*
Y11452D01*
X54009Y11332D01*
X54608D02*
X54848D01*
X54728D01*
Y12052D01*
X54608D01*
D55*
X61336Y1982D02*
Y1383D01*
Y1683D01*
X61736D01*
Y1982D01*
Y1383D01*
X62036D02*
X62236D01*
X62336Y1483D01*
Y1683D01*
X62236Y1783D01*
X62036D01*
X61936Y1683D01*
Y1483D01*
X62036Y1383D01*
X62536D02*
X62736D01*
X62636D01*
Y1982D01*
X62536D01*
X63336Y1383D02*
X63136D01*
X63036Y1483D01*
Y1683D01*
X63136Y1783D01*
X63336D01*
X63436Y1683D01*
Y1583D01*
X63036D01*
X64236Y1982D02*
Y1383D01*
X64635D01*
X65135D02*
X64935D01*
X64835Y1483D01*
Y1683D01*
X64935Y1783D01*
X65135D01*
X65235Y1683D01*
Y1583D01*
X64835D01*
X65435Y1383D02*
Y1783D01*
X65735D01*
X65835Y1683D01*
Y1383D01*
X66235Y1183D02*
X66335D01*
X66435Y1283D01*
Y1783D01*
X66135D01*
X66035Y1683D01*
Y1483D01*
X66135Y1383D01*
X66435D01*
X66735Y1883D02*
Y1783D01*
X66635D01*
X66835D01*
X66735D01*
Y1483D01*
X66835Y1383D01*
X67135Y1982D02*
Y1383D01*
Y1683D01*
X67235Y1783D01*
X67435D01*
X67534Y1683D01*
Y1383D01*
X61336Y2382D02*
Y2982D01*
X61636D01*
X61736Y2882D01*
Y2682D01*
X61636Y2582D01*
X61336D01*
X61536D02*
X61736Y2382D01*
X62036D02*
X62236D01*
X62336Y2482D01*
Y2682D01*
X62236Y2782D01*
X62036D01*
X61936Y2682D01*
Y2482D01*
X62036Y2382D01*
X62536Y2782D02*
Y2482D01*
X62636Y2382D01*
X62936D01*
Y2782D01*
X63236Y2882D02*
Y2782D01*
X63136D01*
X63336D01*
X63236D01*
Y2482D01*
X63336Y2382D01*
X63936D02*
X63736D01*
X63636Y2482D01*
Y2682D01*
X63736Y2782D01*
X63936D01*
X64036Y2682D01*
Y2582D01*
X63636D01*
X64635Y2982D02*
Y2382D01*
X64335D01*
X64236Y2482D01*
Y2682D01*
X64335Y2782D01*
X64635D01*
X65435Y2382D02*
Y2982D01*
X65735D01*
X65835Y2882D01*
Y2682D01*
X65735Y2582D01*
X65435D01*
X66135Y2782D02*
X66335D01*
X66435Y2682D01*
Y2382D01*
X66135D01*
X66035Y2482D01*
X66135Y2582D01*
X66435D01*
X66735Y2882D02*
Y2782D01*
X66635D01*
X66835D01*
X66735D01*
Y2482D01*
X66835Y2382D01*
X67135Y2982D02*
Y2382D01*
Y2682D01*
X67235Y2782D01*
X67435D01*
X67534Y2682D01*
Y2382D01*
X68334Y2982D02*
Y2382D01*
X68734D01*
X69234D02*
X69034D01*
X68934Y2482D01*
Y2682D01*
X69034Y2782D01*
X69234D01*
X69334Y2682D01*
Y2582D01*
X68934D01*
X69534Y2382D02*
Y2782D01*
X69834D01*
X69934Y2682D01*
Y2382D01*
X70334Y2182D02*
X70434D01*
X70533Y2282D01*
Y2782D01*
X70234D01*
X70134Y2682D01*
Y2482D01*
X70234Y2382D01*
X70533D01*
X70833Y2882D02*
Y2782D01*
X70733D01*
X70933D01*
X70833D01*
Y2482D01*
X70933Y2382D01*
X71233Y2982D02*
Y2382D01*
Y2682D01*
X71333Y2782D01*
X71533D01*
X71633Y2682D01*
Y2382D01*
X51409Y2882D02*
X51309Y2982D01*
X51110D01*
X51010Y2882D01*
Y2782D01*
X51110Y2682D01*
X51309D01*
X51409Y2582D01*
Y2482D01*
X51309Y2382D01*
X51110D01*
X51010Y2482D01*
X51609Y2382D02*
X51809D01*
X51709D01*
Y2982D01*
X51609D01*
X52209Y2382D02*
X52409D01*
X52509Y2482D01*
Y2682D01*
X52409Y2782D01*
X52209D01*
X52109Y2682D01*
Y2482D01*
X52209Y2382D01*
X52809Y2882D02*
Y2782D01*
X52709D01*
X52909D01*
X52809D01*
Y2482D01*
X52909Y2382D01*
X54209Y2982D02*
Y2382D01*
X53909D01*
X53809Y2482D01*
Y2682D01*
X53909Y2782D01*
X54209D01*
X54708Y2382D02*
X54508D01*
X54408Y2482D01*
Y2682D01*
X54508Y2782D01*
X54708D01*
X54808Y2682D01*
Y2582D01*
X54408D01*
X55108Y2382D02*
Y2882D01*
Y2682D01*
X55008D01*
X55208D01*
X55108D01*
Y2882D01*
X55208Y2982D01*
X55508Y2382D02*
X55708D01*
X55608D01*
Y2782D01*
X55508D01*
X56008Y2382D02*
Y2782D01*
X56308D01*
X56408Y2682D01*
Y2382D01*
X56608D02*
X56808D01*
X56708D01*
Y2782D01*
X56608D01*
X57208Y2882D02*
Y2782D01*
X57108D01*
X57308D01*
X57208D01*
Y2482D01*
X57308Y2382D01*
X57607D02*
X57807D01*
X57707D01*
Y2782D01*
X57607D01*
X58207Y2382D02*
X58407D01*
X58507Y2482D01*
Y2682D01*
X58407Y2782D01*
X58207D01*
X58107Y2682D01*
Y2482D01*
X58207Y2382D01*
X58707D02*
Y2782D01*
X59007D01*
X59107Y2682D01*
Y2382D01*
X59307D02*
X59607D01*
X59707Y2482D01*
X59607Y2582D01*
X59407D01*
X59307Y2682D01*
X59407Y2782D01*
X59707D01*
X60507D02*
X60606D01*
Y2682D01*
X60507D01*
Y2782D01*
Y2482D02*
X60606D01*
Y2382D01*
X60507D01*
Y2482D01*
M02*
